<svg width="1425" height="1019" viewBox="0 0 1425 1019" fill="none" xmlns="http://www.w3.org/2000/svg">
<circle cx="31.126" cy="702.458" r="1" fill="white"/>
<circle cx="1340.19" cy="327.671" r="1" fill="white"/>
<circle cx="1032.64" cy="688.036" r="1" fill="white"/>
<circle opacity="0.4" cx="1233.62" cy="98.2767" r="1" fill="white"/>
<circle cx="1129.39" cy="235.501" r="1" fill="white"/>
<circle cx="1014.73" cy="583.673" r="1" fill="white"/>
<circle cx="795.812" cy="372.385" r="1" fill="white"/>
<circle opacity="0.4" cx="722.476" cy="802.074" r="1" fill="white"/>
<circle cx="920.948" cy="500.145" r="1" fill="white"/>
<circle cx="1316.9" cy="106.028" r="1" fill="white"/>
<circle cx="803.123" cy="555.458" r="1" fill="white"/>
<circle opacity="0.4" cx="1049.67" cy="149.18" r="1" fill="white"/>
<circle cx="303.616" cy="149.583" r="1" fill="white"/>
<circle opacity="0.4" cx="1266.51" cy="984.896" r="1" fill="white"/>
<circle cx="692.925" cy="719.59" r="1" fill="white"/>
<circle opacity="0.4" cx="904.453" cy="856.124" r="1" fill="white"/>
<circle opacity="0.4" cx="905.375" cy="313.983" r="1" fill="white"/>
<circle opacity="0.4" cx="522.473" cy="683.58" r="1" fill="white"/>
<circle opacity="0.4" cx="969.021" cy="978.639" r="1" fill="white"/>
<circle opacity="0.4" cx="376.198" cy="938.89" r="1" fill="white"/>
<circle opacity="0.4" cx="187" cy="996.875" r="1" fill="white"/>
<circle opacity="0.4" cx="1093.51" cy="252.887" r="1" fill="white"/>
<circle cx="755.247" cy="35.321" r="1" fill="white"/>
<circle cx="351.124" cy="152.788" r="1" fill="white"/>
<circle cx="1151.51" cy="1003.49" r="1" fill="white"/>
<circle opacity="0.4" cx="29.3877" cy="579.387" r="1" fill="white"/>
<circle opacity="0.4" cx="1052.6" cy="11.1357" r="1" fill="white"/>
<circle opacity="0.4" cx="1383.05" cy="270.08" r="1" fill="white"/>
<circle opacity="0.4" cx="511.081" cy="969.121" r="1" fill="white"/>
<circle opacity="0.4" cx="1172.26" cy="890.192" r="1" fill="white"/>
<circle cx="560.311" cy="793.731" r="1" fill="white"/>
<circle opacity="0.4" cx="517.56" cy="946.189" r="1" fill="white"/>
<circle opacity="0.4" cx="135.163" cy="196.525" r="1" fill="white"/>
<circle cx="962.438" cy="758.306" r="1" fill="white"/>
<circle cx="48.3145" cy="602.451" r="1" fill="white"/>
<circle cx="1.70605" cy="108.161" r="1" fill="white"/>
<circle cx="925.008" cy="434.976" r="1" fill="white"/>
<circle cx="1198.58" cy="849.615" r="1" fill="white"/>
<circle opacity="0.4" cx="313.776" cy="237.478" r="1" fill="white"/>
<circle cx="1244.44" cy="876.663" r="1" fill="white"/>
<circle cx="147.377" cy="548.578" r="1" fill="white"/>
<circle cx="41.1914" cy="516.873" r="1" fill="white"/>
<circle opacity="0.4" cx="210.796" cy="601.701" r="1" fill="white"/>
<circle cx="629.889" cy="256.004" r="1" fill="white"/>
<circle opacity="0.4" cx="1415.32" cy="219.65" r="1" fill="white"/>
<circle opacity="0.4" cx="57.1299" cy="963.14" r="1" fill="white"/>
<circle opacity="0.4" cx="1027.1" cy="70.923" r="1" fill="white"/>
<circle cx="468.54" cy="194.826" r="1" fill="white"/>
<circle opacity="0.4" cx="603.242" cy="421.915" r="1" fill="white"/>
<circle opacity="0.4" cx="572.309" cy="608.329" r="1" fill="white"/>
<circle opacity="0.4" cx="1059.84" cy="335.756" r="1" fill="white"/>
<circle cx="581.062" cy="610.074" r="1" fill="white"/>
<circle opacity="0.4" cx="17.4883" cy="710.84" r="1" fill="white"/>
<circle opacity="0.4" cx="773.775" cy="760.757" r="1" fill="white"/>
<circle opacity="0.4" cx="324.556" cy="588.496" r="1" fill="white"/>
<circle cx="385.482" cy="287.752" r="1" fill="white"/>
<rect x="524.058" y="988.943" width="1" height="1" fill="white"/>
<rect opacity="0.4" x="965.007" y="612.044" width="1" height="1" fill="white"/>
<rect opacity="0.4" x="87.9531" y="824.792" width="1" height="1" fill="white"/>
<rect x="1160.45" y="555.747" width="1" height="1" fill="white"/>
<rect opacity="0.4" x="57.4961" y="597.885" width="1" height="1" fill="white"/>
<rect x="1103.93" y="349.262" width="1" height="1" fill="white"/>
<rect x="134.286" y="789.858" width="1" height="1" fill="white"/>
<rect opacity="0.4" x="575.207" y="231.49" width="1" height="1" fill="white"/>
<rect opacity="0.4" x="253.396" y="652.749" width="1" height="1" fill="white"/>
<rect opacity="0.4" x="594.124" y="857.841" width="1" height="1" fill="white"/>
<rect x="842.524" y="10.2985" width="1" height="1" fill="white"/>
<rect opacity="0.4" x="314.095" y="23.8766" width="1" height="1" fill="white"/>
<rect opacity="0.4" x="1121.79" y="809.573" width="1" height="1" fill="white"/>
<rect x="692.402" y="603.265" width="1" height="1" fill="white"/>
<rect opacity="0.4" x="1223.89" y="239.802" width="1" height="1" fill="white"/>
<rect x="109.343" y="3.5686" width="1" height="1" fill="white"/>
<rect x="1044.46" y="573.138" width="1" height="1" fill="white"/>
<rect x="1026.72" y="794.902" width="1" height="1" fill="white"/>
<rect x="873.949" y="541.573" width="1" height="1" fill="white"/>
<rect opacity="0.4" x="755.664" y="760.606" width="1" height="1" fill="white"/>
<rect opacity="0.4" x="725.506" y="668.317" width="1" height="1" fill="white"/>
<rect opacity="0.4" x="461.65" y="224.95" width="1" height="1" fill="white"/>
<rect x="11.9023" y="434.172" width="1" height="1" fill="white"/>
<rect x="202.694" y="97.0754" width="1" height="1" fill="white"/>
<rect x="815.756" y="50.3158" width="1" height="1" fill="white"/>
<rect x="346.075" y="182.544" width="1" height="1" fill="white"/>
<rect x="340.238" y="393.477" width="1" height="1" fill="white"/>
<rect x="888.372" y="502.636" width="1" height="1" fill="white"/>
<rect opacity="0.4" x="427.972" y="241.719" width="1" height="1" fill="white"/>
<rect opacity="0.4" x="265.567" y="162.091" width="1" height="1" fill="white"/>
<rect x="1409.74" y="982.578" width="1" height="1" fill="white"/>
<rect opacity="0.4" x="1215.94" y="387.118" width="1" height="1" fill="white"/>
<rect opacity="0.4" x="654.246" y="139.106" width="1" height="1" fill="white"/>
<rect opacity="0.4" x="852.83" y="1017.27" width="1" height="1" fill="white"/>
<rect opacity="0.4" x="463.373" y="814.664" width="1" height="1" fill="white"/>
<rect x="1106.41" y="961.613" width="1" height="1" fill="white"/>
<rect opacity="0.4" x="1072.83" y="572.111" width="1" height="1" fill="white"/>
<rect x="1025.64" y="610.694" width="1" height="1" fill="white"/>
<rect opacity="0.4" x="531.084" y="743.864" width="1" height="1" fill="white"/>
<rect opacity="0.4" x="1401.93" y="821.932" width="1" height="1" fill="white"/>
<rect opacity="0.4" x="1054.66" y="635.934" width="1" height="1" fill="white"/>
<rect x="1008.19" y="758.651" width="1" height="1" fill="white"/>
<rect x="259.149" y="483.212" width="1" height="1" fill="white"/>
<rect opacity="0.4" x="795.594" y="16.1316" width="1" height="1" fill="white"/>
<rect x="295.277" y="254.554" width="1" height="1" fill="white"/>
<rect x="444.156" y="658.171" width="1" height="1" fill="white"/>
<rect x="222.446" y="699.372" width="1" height="1" fill="white"/>
<rect opacity="0.4" x="762.182" y="480.798" width="1" height="1" fill="white"/>
<rect opacity="0.4" x="95.2334" y="616.065" width="1" height="1" fill="white"/>
<rect x="208.06" y="806.357" width="1" height="1" fill="white"/>
<rect opacity="0.4" x="64.2725" y="525.677" width="1" height="1" fill="white"/>
<rect x="733.109" y="563.567" width="1" height="1" fill="white"/>
<rect opacity="0.4" x="278.277" y="581.342" width="1" height="1" fill="white"/>
<rect opacity="0.4" x="619.669" y="870.783" width="1" height="1" fill="white"/>
<rect x="1320.88" y="215.817" width="1" height="1" fill="white"/>
<rect opacity="0.4" x="745.492" y="700.299" width="1" height="1" fill="white"/>
<rect opacity="0.4" x="446.44" y="224.653" width="1" height="1" fill="white"/>
<rect opacity="0.4" x="297.593" y="844.439" width="1" height="1" fill="white"/>
<rect opacity="0.4" x="394.007" y="633.24" width="1" height="1" fill="white"/>
<rect x="650.751" y="962.439" width="1" height="1" fill="white"/>
<rect opacity="0.4" x="1303.36" y="644.771" width="1" height="1" fill="white"/>
<rect opacity="0.4" x="916.518" y="0.547607" width="1" height="1" fill="white"/>
<rect opacity="0.4" x="868.501" y="13.4858" width="1" height="1" fill="white"/>
<rect x="811.726" y="588.258" width="1" height="1" fill="white"/>
<rect opacity="0.4" x="718.426" y="884.495" width="1" height="1" fill="white"/>
<rect opacity="0.4" x="212.116" y="521.599" width="1" height="1" fill="white"/>
<rect opacity="0.4" x="595.787" y="158.18" width="1" height="1" fill="white"/>
<rect x="1417.83" y="282.352" width="1" height="1" fill="white"/>
<rect x="1169.52" y="560.49" width="1" height="1" fill="white"/>
<rect opacity="0.4" x="842.221" y="369.187" width="1" height="1" fill="white"/>
<rect x="556.495" y="576.051" width="1" height="1" fill="white"/>
<rect x="767.232" y="236.847" width="1" height="1" fill="white"/>
<rect opacity="0.4" x="1392.83" y="551.357" width="1" height="1" fill="white"/>
<rect opacity="0.4" x="1232.47" y="852.085" width="1" height="1" fill="white"/>
<rect x="344.168" y="225.174" width="1" height="1" fill="white"/>
<rect x="370.646" y="869.329" width="1" height="1" fill="white"/>
<rect x="752.443" y="370.146" width="1" height="1" fill="white"/>
<rect opacity="0.4" x="142.721" y="635.819" width="1" height="1" fill="white"/>
<rect opacity="0.4" x="1307.28" y="340.054" width="1" height="1" fill="white"/>
<rect x="1328.16" y="702.866" width="1" height="1" fill="white"/>
<rect opacity="0.4" x="1389.02" y="998.548" width="1" height="1" fill="white"/>
<rect x="0.853516" y="15.8369" width="1" height="1" fill="white"/>
<rect opacity="0.4" x="303.885" y="1015.67" width="1" height="1" fill="white"/>
<rect opacity="0.4" x="321.051" y="499.01" width="1" height="1" fill="white"/>
<rect x="875.703" y="713.856" width="1" height="1" fill="white"/>
<rect x="757.206" y="898.978" width="1" height="1" fill="white"/>
<rect opacity="0.4" x="1047.71" y="504.625" width="1" height="1" fill="white"/>
<rect opacity="0.4" x="790.152" y="454.709" width="1" height="1" fill="white"/>
<rect opacity="0.4" x="370.484" y="95.3367" width="1" height="1" fill="white"/>
<rect x="774.747" y="267.141" width="1" height="1" fill="white"/>
<rect opacity="0.4" x="1025.84" y="271.452" width="1" height="1" fill="white"/>
<rect x="4.45215" y="380.01" width="1" height="1" fill="white"/>
<rect opacity="0.4" x="443.729" y="356.365" width="1" height="1" fill="white"/>
<rect opacity="0.4" x="1423.12" y="964.338" width="1" height="1" fill="white"/>
<rect opacity="0.4" x="503.558" y="997.204" width="1" height="1" fill="white"/>
<rect opacity="0.4" x="1384.6" y="386.14" width="1" height="1" fill="white"/>
<rect x="330.473" y="804.908" width="1" height="1" fill="white"/>
<rect x="1204.14" y="295.312" width="1" height="1" fill="white"/>
<rect opacity="0.4" x="317.233" y="448.837" width="1" height="1" fill="white"/>
<path opacity="0.4" d="M253.817 717.763L254.087 718.493L254.817 718.763L254.087 719.034L253.817 719.763L253.547 719.034L252.817 718.763L253.547 718.493L253.817 717.763Z" fill="#D9D9D9"/>
<path d="M467.284 1010.8L467.554 1011.53L468.284 1011.8L467.554 1012.07L467.284 1012.8L467.014 1012.07L466.284 1011.8L467.014 1011.53L467.284 1010.8Z" fill="#D9D9D9"/>
<path d="M248.246 212.815L248.516 213.545L249.246 213.815L248.516 214.085L248.246 214.815L247.976 214.085L247.246 213.815L247.976 213.545L248.246 212.815Z" fill="#D9D9D9"/>
<path opacity="0.4" d="M332.332 527.718L332.602 528.448L333.332 528.718L332.602 528.988L332.332 529.718L332.062 528.988L331.332 528.718L332.062 528.448L332.332 527.718Z" fill="#D9D9D9"/>
<path d="M1022.99 359.83L1023.26 360.559L1023.99 360.83L1023.26 361.1L1022.99 361.83L1022.72 361.1L1021.99 360.83L1022.72 360.559L1022.99 359.83Z" fill="#D9D9D9"/>
<path d="M53.4082 260.288L53.6783 261.018L54.4082 261.288L53.6783 261.558L53.4082 262.288L53.1381 261.558L52.4082 261.288L53.1381 261.018L53.4082 260.288Z" fill="#D9D9D9"/>
<path d="M291.355 832.678L291.626 833.408L292.355 833.678L291.626 833.949L291.355 834.678L291.085 833.949L290.355 833.678L291.085 833.408L291.355 832.678Z" fill="#D9D9D9"/>
<path opacity="0.4" d="M7.4707 9.86951L7.74079 10.5994L8.4707 10.8695L7.74079 11.1396L7.4707 11.8695L7.20061 11.1396L6.4707 10.8695L7.20061 10.5994L7.4707 9.86951Z" fill="#D9D9D9"/>
<path opacity="0.4" d="M225.757 748.294L226.027 749.024L226.757 749.294L226.027 749.564L225.757 750.294L225.487 749.564L224.757 749.294L225.487 749.024L225.757 748.294Z" fill="#D9D9D9"/>
<path opacity="0.4" d="M827.883 857.996L828.153 858.726L828.883 858.996L828.153 859.266L827.883 859.996L827.613 859.266L826.883 858.996L827.613 858.726L827.883 857.996Z" fill="#D9D9D9"/>
<path d="M1338.79 689.072L1339.06 689.802L1339.79 690.072L1339.06 690.342L1338.79 691.072L1338.52 690.342L1337.79 690.072L1338.52 689.802L1338.79 689.072Z" fill="#D9D9D9"/>
<path opacity="0.4" d="M557.262 529.581L557.532 530.311L558.262 530.581L557.532 530.851L557.262 531.581L556.992 530.851L556.262 530.581L556.992 530.311L557.262 529.581Z" fill="#D9D9D9"/>
<path d="M822.973 379.876L823.243 380.606L823.973 380.876L823.243 381.146L822.973 381.876L822.703 381.146L821.973 380.876L822.703 380.606L822.973 379.876Z" fill="#D9D9D9"/>
<path d="M283.514 336.255L283.784 336.985L284.514 337.255L283.784 337.525L283.514 338.255L283.244 337.525L282.514 337.255L283.244 336.985L283.514 336.255Z" fill="#D9D9D9"/>
<path opacity="0.4" d="M767.199 739.578L767.469 740.308L768.199 740.578L767.469 740.848L767.199 741.578L766.929 740.848L766.199 740.578L766.929 740.308L767.199 739.578Z" fill="#D9D9D9"/>
<path d="M1325.75 787.713L1326.02 788.443L1326.75 788.713L1326.02 788.983L1325.75 789.713L1325.48 788.983L1324.75 788.713L1325.48 788.443L1325.75 787.713Z" fill="#D9D9D9"/>
<path opacity="0.4" d="M1365.93 522.776L1366.2 523.506L1366.93 523.776L1366.2 524.046L1365.93 524.776L1365.66 524.046L1364.93 523.776L1365.66 523.506L1365.93 522.776Z" fill="#D9D9D9"/>
<path opacity="0.4" d="M384.021 141.145L384.292 141.874L385.021 142.145L384.292 142.415L384.021 143.145L383.751 142.415L383.021 142.145L383.751 141.874L384.021 141.145Z" fill="#D9D9D9"/>
<path d="M203.713 918.352L203.983 919.082L204.713 919.352L203.983 919.622L203.713 920.352L203.443 919.622L202.713 919.352L203.443 919.082L203.713 918.352Z" fill="#D9D9D9"/>
<path d="M974.64 954.758L974.91 955.487L975.64 955.758L974.91 956.028L974.64 956.758L974.37 956.028L973.64 955.758L974.37 955.487L974.64 954.758Z" fill="#D9D9D9"/>
<path d="M49.8418 532.686L50.1119 533.416L50.8418 533.686L50.1119 533.956L49.8418 534.686L49.5717 533.956L48.8418 533.686L49.5717 533.416L49.8418 532.686Z" fill="#D9D9D9"/>
<path opacity="0.4" d="M937.735 658.164L938.005 658.894L938.735 659.164L938.005 659.434L937.735 660.164L937.465 659.434L936.735 659.164L937.465 658.894L937.735 658.164Z" fill="#D9D9D9"/>
<path d="M400.435 270.595L400.705 271.325L401.435 271.595L400.705 271.865L400.435 272.595L400.164 271.865L399.435 271.595L400.164 271.325L400.435 270.595Z" fill="#D9D9D9"/>
<path d="M296.23 976.42L296.501 977.15L297.23 977.42L296.501 977.691L296.23 978.42L295.96 977.691L295.23 977.42L295.96 977.15L296.23 976.42Z" fill="#D9D9D9"/>
<path d="M164.458 387.218L164.728 387.948L165.458 388.218L164.728 388.488L164.458 389.218L164.188 388.488L163.458 388.218L164.188 387.948L164.458 387.218Z" fill="#D9D9D9"/>
<path opacity="0.4" d="M1093.31 680.437L1093.58 681.167L1094.31 681.437L1093.58 681.707L1093.31 682.437L1093.04 681.707L1092.31 681.437L1093.04 681.167L1093.31 680.437Z" fill="#D9D9D9"/>
<path opacity="0.4" d="M1144.62 482.192L1144.89 482.922L1145.62 483.192L1144.89 483.462L1144.62 484.192L1144.35 483.462L1143.62 483.192L1144.35 482.922L1144.62 482.192Z" fill="#D9D9D9"/>
<path d="M636.868 146.709L637.138 147.439L637.868 147.709L637.138 147.98L636.868 148.709L636.598 147.98L635.868 147.709L636.598 147.439L636.868 146.709Z" fill="#D9D9D9"/>
<path d="M964.928 677.963L965.198 678.693L965.928 678.963L965.198 679.233L964.928 679.963L964.658 679.233L963.928 678.963L964.658 678.693L964.928 677.963Z" fill="#D9D9D9"/>
<path d="M1422.75 876.209L1423.02 876.939L1423.75 877.209L1423.02 877.48L1422.75 878.209L1422.48 877.48L1421.75 877.209L1422.48 876.939L1422.75 876.209Z" fill="#D9D9D9"/>
<path d="M892.148 877.212L892.419 877.942L893.148 878.212L892.419 878.482L892.148 879.212L891.878 878.482L891.148 878.212L891.878 877.942L892.148 877.212Z" fill="#D9D9D9"/>
<path d="M428.466 331.122L428.736 331.852L429.466 332.122L428.736 332.392L428.466 333.122L428.196 332.392L427.466 332.122L428.196 331.852L428.466 331.122Z" fill="#D9D9D9"/>
<path opacity="0.4" d="M1139.94 572.929L1140.21 573.659L1140.94 573.929L1140.21 574.199L1139.94 574.929L1139.67 574.199L1138.94 573.929L1139.67 573.659L1139.94 572.929Z" fill="#D9D9D9"/>
<path opacity="0.4" d="M992.021 927.787L992.292 928.517L993.021 928.787L992.292 929.057L992.021 929.787L991.751 929.057L991.021 928.787L991.751 928.517L992.021 927.787Z" fill="#D9D9D9"/>
<path d="M690.285 997.673L690.555 998.403L691.285 998.673L690.555 998.943L690.285 999.673L690.015 998.943L689.285 998.673L690.015 998.403L690.285 997.673Z" fill="#D9D9D9"/>
<path opacity="0.4" d="M823.104 129.515L823.374 130.245L824.104 130.515L823.374 130.785L823.104 131.515L822.833 130.785L822.104 130.515L822.833 130.245L823.104 129.515Z" fill="#D9D9D9"/>
<path d="M398.015 790.385L398.285 791.115L399.015 791.385L398.285 791.655L398.015 792.385L397.745 791.655L397.015 791.385L397.745 791.115L398.015 790.385Z" fill="#D9D9D9"/>
<path opacity="0.4" d="M653.235 640.607L653.505 641.337L654.235 641.607L653.505 641.877L653.235 642.607L652.965 641.877L652.235 641.607L652.965 641.337L653.235 640.607Z" fill="#D9D9D9"/>
<path d="M718.666 292.248L718.936 292.978L719.666 293.248L718.936 293.518L718.666 294.248L718.396 293.518L717.666 293.248L718.396 292.978L718.666 292.248Z" fill="#D9D9D9"/>
<path opacity="0.4" d="M1269.75 928.887L1270.02 929.617L1270.75 929.887L1270.02 930.158L1269.75 930.887L1269.48 930.158L1268.75 929.887L1269.48 929.617L1269.75 928.887Z" fill="#D9D9D9"/>
<path opacity="0.4" d="M1301.55 851.217L1301.82 851.947L1302.55 852.217L1301.82 852.487L1301.55 853.217L1301.28 852.487L1300.55 852.217L1301.28 851.947L1301.55 851.217Z" fill="#D9D9D9"/>
<path d="M312.041 101.667L312.311 102.397L313.041 102.667L312.311 102.937L312.041 103.667L311.771 102.937L311.041 102.667L311.771 102.397L312.041 101.667Z" fill="#D9D9D9"/>
<path opacity="0.4" d="M1234.16 448.132L1234.43 448.862L1235.16 449.132L1234.43 449.402L1234.16 450.132L1233.89 449.402L1233.16 449.132L1233.89 448.862L1234.16 448.132Z" fill="#D9D9D9"/>
<path opacity="0.4" d="M687.914 266.81L688.184 267.54L688.914 267.81L688.184 268.08L687.914 268.81L687.644 268.08L686.914 267.81L687.644 267.54L687.914 266.81Z" fill="#D9D9D9"/>
<path opacity="0.4" d="M1125.83 335.579L1126.1 336.309L1126.83 336.579L1126.1 336.849L1125.83 337.579L1125.56 336.849L1124.83 336.579L1125.56 336.309L1125.83 335.579Z" fill="#D9D9D9"/>
<path d="M882.895 942.348L883.165 943.078L883.895 943.348L883.165 943.618L882.895 944.348L882.624 943.618L881.895 943.348L882.624 943.078L882.895 942.348Z" fill="#D9D9D9"/>
<path d="M1144.22 550.671L1144.49 551.401L1145.22 551.671L1144.49 551.941L1144.22 552.671L1143.95 551.941L1143.22 551.671L1143.95 551.401L1144.22 550.671Z" fill="#D9D9D9"/>
<path opacity="0.4" d="M768.901 396.215L769.171 396.945L769.901 397.215L769.171 397.485L768.901 398.215L768.631 397.485L767.901 397.215L768.631 396.945L768.901 396.215Z" fill="#D9D9D9"/>
<path opacity="0.4" d="M1314.24 54.9159L1314.51 55.6458L1315.24 55.9159L1314.51 56.186L1314.24 56.9159L1313.97 56.186L1313.24 55.9159L1313.97 55.6458L1314.24 54.9159Z" fill="#D9D9D9"/>
<path opacity="0.4" d="M242.159 617.716L242.429 618.446L243.159 618.716L242.429 618.986L242.159 619.716L241.889 618.986L241.159 618.716L241.889 618.446L242.159 617.716Z" fill="#D9D9D9"/>
</svg>
