<svg width="44" height="44" viewBox="0 0 44 44" fill="none" xmlns="http://www.w3.org/2000/svg">
<path d="M39.7433 19.8717C39.7484 18.5984 39.4169 17.3464 38.7824 16.2424C38.1479 15.1384 37.233 14.2217 36.1303 13.585C36.1575 13.2725 36.1575 12.9582 36.1303 12.6457C36.1303 11.2083 35.5593 9.82981 34.5429 8.81345C33.5266 7.79709 32.1481 7.2261 30.7107 7.2261H30.3855C30.0847 6.39206 29.5838 5.64456 28.9269 5.04915C28.2699 4.45375 27.4768 4.02863 26.6173 3.81107C25.7578 3.59351 24.858 3.59016 23.9968 3.80131C23.1357 4.01246 22.3395 4.43166 21.6781 5.02215C21.0167 4.43166 20.2206 4.01246 19.3594 3.80131C18.4983 3.59016 17.5985 3.59351 16.739 3.81107C15.8794 4.02863 15.0864 4.45375 14.4294 5.04915C13.7724 5.64456 13.2716 6.39206 12.9707 7.2261H12.6456C11.2082 7.2261 9.82972 7.79709 8.81335 8.81345C7.79699 9.82981 7.226 11.2083 7.226 12.6457C7.19882 12.9582 7.19882 13.2725 7.226 13.585C6.20074 14.1646 5.33265 14.9859 4.69732 15.9775C4.06198 16.9692 3.67865 18.1011 3.5807 19.2747C3.48275 20.4484 3.67314 21.6282 4.13531 22.7114C4.59747 23.7947 5.3174 24.7485 6.23242 25.49C5.64037 26.5942 5.34563 27.8335 5.37712 29.086C5.4086 30.3386 5.76524 31.5615 6.41203 32.6346C7.05881 33.7077 7.97352 34.5942 9.06636 35.2071C10.1592 35.8199 11.3926 36.1381 12.6456 36.1304H12.9707C13.2716 36.9644 13.7724 37.7119 14.4294 38.3073C15.0864 38.9027 15.8794 39.3278 16.739 39.5454C17.5985 39.763 18.4983 39.7663 19.3594 39.5552C20.2206 39.344 21.0167 38.9248 21.6781 38.3343C22.3395 38.9248 23.1357 39.344 23.9968 39.5552C24.858 39.7663 25.7578 39.763 26.6173 39.5454C27.4768 39.3278 28.2699 38.9027 28.9269 38.3073C29.5838 37.7119 30.0847 36.9644 30.3855 36.1304H30.7107C31.956 36.1225 33.1781 35.7929 34.2585 35.1737C35.3389 34.5544 36.241 33.6664 36.8771 32.5958C37.5133 31.5253 37.862 30.3085 37.8894 29.0635C37.9168 27.8185 37.622 26.5875 37.0335 25.49C37.8761 24.8154 38.5569 23.9605 39.0258 22.9883C39.4948 22.0161 39.7399 20.9511 39.7433 19.8717ZM19.8716 15.4458C19.4772 15.2225 19.0666 15.0293 18.6432 14.8677C18.188 14.7143 17.6906 14.7481 17.2603 14.9616C16.8301 15.175 16.5022 15.5506 16.3489 16.0058C16.1956 16.4609 16.2294 16.9584 16.4428 17.3886C16.6562 17.8189 17.0319 18.1467 17.487 18.3C18.1824 18.5515 18.7839 19.0102 19.2104 19.6143C19.6368 20.2184 19.8676 20.9388 19.8716 21.6782V24.4783C19.4772 24.2551 19.0666 24.0619 18.6432 23.9002C18.188 23.7469 17.6906 23.7807 17.2603 23.9941C16.8301 24.2076 16.5022 24.5832 16.3489 25.0384C16.1956 25.4935 16.2294 25.9909 16.4428 26.4212C16.6562 26.8515 17.0319 27.1793 17.487 27.3326C18.1824 27.584 18.7839 28.0428 19.2104 28.6469C19.6368 29.251 19.8676 29.9714 19.8716 30.7108V34.3239C19.8716 34.803 19.6813 35.2625 19.3425 35.6013C19.0037 35.94 18.5442 36.1304 18.0651 36.1304C17.7156 36.1281 17.3743 36.0245 17.0825 35.8321C16.7907 35.6397 16.561 35.3668 16.4212 35.0465C16.7243 34.8691 17.0141 34.6698 17.2883 34.4503C17.471 34.2985 17.6219 34.1122 17.7326 33.902C17.8433 33.6918 17.9115 33.4619 17.9333 33.2254C17.9551 32.9888 17.9301 32.7503 17.8597 32.5234C17.7893 32.2966 17.675 32.0858 17.5231 31.9031C17.3713 31.7204 17.185 31.5695 16.9748 31.4588C16.7646 31.3481 16.5347 31.28 16.2982 31.2582C16.0617 31.2363 15.8232 31.2613 15.5963 31.3317C15.3694 31.4021 15.1586 31.5164 14.976 31.6683C14.3237 32.2174 13.4982 32.5182 12.6456 32.5173C11.6873 32.5173 10.7683 32.1367 10.0908 31.4591C9.41318 30.7815 9.03252 29.8625 9.03252 28.9043C9.04116 28.2243 9.24154 27.5606 9.61061 26.9894C10.0162 27.0605 10.4272 27.0967 10.839 27.0978C11.3182 27.0978 11.7776 26.9075 12.1164 26.5687C12.4552 26.2299 12.6456 25.7704 12.6456 25.2913C12.6456 24.8122 12.4552 24.3527 12.1164 24.0139C11.7776 23.6751 11.3182 23.4848 10.839 23.4848C10.4122 23.4891 9.9886 23.4093 9.59254 23.2499C8.94282 23.0156 8.37387 22.5999 7.95311 22.0522C7.53235 21.5045 7.2774 20.8476 7.21847 20.1594C7.15954 19.4713 7.29909 18.7806 7.6206 18.1693C7.94211 17.558 8.4321 17.0517 9.03252 16.7103C9.28852 16.9473 9.56681 17.1591 9.86352 17.3426C10.2804 17.5822 10.7753 17.6463 11.2394 17.521C11.7036 17.3956 12.0989 17.091 12.3384 16.6742C12.578 16.2574 12.6422 15.7624 12.5168 15.2983C12.3915 14.8341 12.0869 14.4388 11.67 14.1993C11.4157 14.059 11.2036 13.8531 11.0558 13.6031C10.8866 13.3139 10.8109 12.9795 10.839 12.6457C10.839 12.1665 11.0294 11.707 11.3682 11.3683C11.7069 11.0295 12.1664 10.8391 12.6456 10.8391C12.7715 10.8225 12.899 10.8225 13.0249 10.8391C13.1213 11.1291 13.2359 11.4127 13.3682 11.6882C13.4862 11.8952 13.644 12.0768 13.8325 12.2226C14.021 12.3683 14.2365 12.4754 14.4665 12.5375C14.6966 12.5996 14.9366 12.6156 15.1729 12.5846C15.4091 12.5535 15.6369 12.4761 15.8431 12.3566C16.2436 12.1156 16.5351 11.7288 16.6564 11.2774C16.7777 10.826 16.7193 10.3451 16.4934 9.93588C16.3419 9.65877 16.2612 9.34847 16.2586 9.03262C16.2586 8.5535 16.4489 8.09401 16.7877 7.75522C17.1265 7.41643 17.586 7.2261 18.0651 7.2261C18.5442 7.2261 19.0037 7.41643 19.3425 7.75522C19.6813 8.09401 19.8716 8.5535 19.8716 9.03262V15.4458ZM33.7637 23.2499C33.3677 23.4093 32.9441 23.4891 32.5172 23.4848C32.0381 23.4848 31.5786 23.6751 31.2398 24.0139C30.901 24.3527 30.7107 24.8122 30.7107 25.2913C30.7107 25.7704 30.901 26.2299 31.2398 26.5687C31.5786 26.9075 32.0381 27.0978 32.5172 27.0978C32.9291 27.0967 33.34 27.0605 33.7457 26.9894C34.1147 27.5606 34.3151 28.2243 34.3238 28.9043C34.3238 29.8625 33.9431 30.7815 33.2655 31.4591C32.5879 32.1367 31.669 32.5173 30.7107 32.5173C29.8581 32.5182 29.0326 32.2174 28.3803 31.6683C28.0114 31.3616 27.5358 31.2141 27.0581 31.2582C26.5804 31.3022 26.1398 31.5342 25.8331 31.9031C25.5265 32.272 25.379 32.7477 25.423 33.2254C25.467 33.703 25.6991 34.1437 26.068 34.4503C26.3421 34.6698 26.632 34.8691 26.9351 35.0465C26.7953 35.3668 26.5656 35.6397 26.2738 35.8321C25.982 36.0245 25.6407 36.1281 25.2912 36.1304C24.8121 36.1304 24.3526 35.94 24.0138 35.6013C23.675 35.2625 23.4847 34.803 23.4847 34.3239V30.7108C23.4887 29.9714 23.7195 29.251 24.1459 28.6469C24.5723 28.0428 25.1739 27.584 25.8693 27.3326C26.3244 27.1793 26.7 26.8515 26.9135 26.4212C27.1269 25.9909 27.1607 25.4935 27.0074 25.0384C26.854 24.5832 26.5262 24.2076 26.0959 23.9941C25.6657 23.7807 25.1682 23.7469 24.7131 23.9002C24.2897 24.0619 23.879 24.2551 23.4847 24.4783V21.6782C23.4887 20.9388 23.7195 20.2184 24.1459 19.6143C24.5723 19.0102 25.1739 18.5515 25.8693 18.3C26.0946 18.2241 26.3028 18.1046 26.482 17.9482C26.6612 17.7918 26.8078 17.6017 26.9135 17.3886C27.0191 17.1756 27.0818 16.9438 27.0979 16.7065C27.1141 16.4693 27.0833 16.2311 27.0074 16.0058C26.9314 15.7804 26.8119 15.5722 26.6555 15.393C26.4991 15.2139 26.309 15.0672 26.0959 14.9616C25.8829 14.8559 25.6511 14.7932 25.4138 14.7771C25.1766 14.761 24.9385 14.7918 24.7131 14.8677C24.2897 15.0293 23.879 15.2225 23.4847 15.4458V9.03262C23.4847 8.5535 23.675 8.09401 24.0138 7.75522C24.3526 7.41643 24.8121 7.2261 25.2912 7.2261C25.7703 7.2261 26.2298 7.41643 26.5686 7.75522C26.9074 8.09401 27.0977 8.5535 27.0977 9.03262C27.0951 9.34847 27.0144 9.65877 26.8628 9.93588C26.7426 10.141 26.6641 10.3678 26.6318 10.6033C26.5994 10.8388 26.6138 11.0784 26.6743 11.3083C26.7347 11.5383 26.8399 11.754 26.9838 11.9432C27.1278 12.1324 27.3077 12.2913 27.5132 12.4108C27.7194 12.5302 27.9471 12.6077 28.1834 12.6388C28.4197 12.6698 28.6597 12.6538 28.8898 12.5917C29.1198 12.5295 29.3353 12.4225 29.5238 12.2768C29.7123 12.131 29.8701 11.9494 29.9881 11.7424C30.1226 11.4493 30.2372 11.1475 30.3314 10.8391C30.4573 10.8225 30.5848 10.8225 30.7107 10.8391C31.1898 10.8391 31.6493 11.0295 31.9881 11.3683C32.3269 11.707 32.5172 12.1665 32.5172 12.6457C32.5145 12.9998 32.4077 13.3453 32.2101 13.6392C32.0624 13.8737 31.8572 14.0664 31.614 14.1993C31.1971 14.4388 30.8925 14.8341 30.7672 15.2983C30.6418 15.7624 30.706 16.2574 30.9456 16.6742C31.1851 17.091 31.5805 17.3956 32.0446 17.521C32.5087 17.6463 33.0037 17.5822 33.4205 17.3426C33.7445 17.1667 34.0475 16.9545 34.3238 16.7103C34.9262 17.0457 35.4202 17.5464 35.7472 18.1534C36.0743 18.7604 36.2208 19.4484 36.1695 20.136C36.1183 20.8236 35.8713 21.4822 35.4578 22.0339C35.0443 22.5857 34.4815 23.0076 33.836 23.2499H33.7637Z" fill="url(#paint0_linear_93_33749)"/>
<defs>
<linearGradient id="paint0_linear_93_33749" x1="21.6495" y1="3.64539" x2="21.6495" y2="39.7111" gradientUnits="userSpaceOnUse">
<stop stop-color="#2BB5FA"/>
<stop offset="1" stop-color="#1EEF32"/>
</linearGradient>
</defs>
</svg>
