<svg width="30" height="29" viewBox="0 0 30 29" fill="none" xmlns="http://www.w3.org/2000/svg">
<path d="M12.7752 12.3458C12.2495 12.8501 11.9527 13.535 11.95 14.25C11.95 14.9661 12.2449 15.6529 12.7701 16.1592C13.2952 16.6656 14.0073 16.95 14.75 16.95C15.4915 16.9474 16.2017 16.6612 16.7247 16.1542" stroke="url(#paint0_linear_93_34251)" stroke-width="1.5" stroke-linecap="round" stroke-linejoin="round"/>
<path d="M14.75 6.15002C13.0886 6.15002 11.4646 6.62508 10.0832 7.51512C8.70182 8.40516 7.62517 9.67021 6.98939 11.1503C6.35362 12.6304 6.18727 14.259 6.51138 15.8303C6.8355 17.4015 7.63552 18.8448 8.81028 19.9776C9.98504 21.1104 11.4818 21.8818 13.1112 22.1944C14.7407 22.5069 16.4296 22.3465 17.9645 21.7334C19.4994 21.1204 20.8113 20.0822 21.7343 18.7501C22.6573 17.4181 23.15 15.8521 23.15 14.25" stroke="url(#paint1_linear_93_34251)" stroke-width="1.5" stroke-linecap="round" stroke-linejoin="round"/>
<path d="M14.75 0.75C11.9811 0.75 9.27431 1.54176 6.97202 3.02516C4.66973 4.50856 2.87532 6.61697 1.81569 9.08377C0.756066 11.5506 0.478819 14.265 1.01901 16.8837C1.55921 19.5025 2.89258 21.9079 4.85051 23.7959C6.80845 25.6839 9.30301 26.9697 12.0187 27.4906C14.7345 28.0115 17.5494 27.7441 20.1076 26.7224C22.6657 25.7006 24.8522 23.9703 26.3906 21.7502C27.9289 19.5301 28.75 16.92 28.75 14.25M19.9447 9.24221L16.15 12.9" stroke="url(#paint2_linear_93_34251)" stroke-width="1.5" stroke-linecap="round" stroke-linejoin="round"/>
<path d="M27.9247 5.50195L23.15 6.14995L23.822 1.54574C23.8269 1.49226 23.8152 1.43858 23.7883 1.39155C23.7615 1.34453 23.7207 1.30629 23.6712 1.28173C23.6216 1.25717 23.5657 1.24741 23.5104 1.25368C23.4551 1.25995 23.403 1.28198 23.3607 1.31695L20.1952 4.35374C19.8701 4.66952 19.631 5.05791 19.4991 5.48433C19.3672 5.91076 19.3466 6.36201 19.4392 6.79795L19.9432 9.24216L22.478 9.72674C22.9301 9.81605 23.398 9.79623 23.8402 9.66905C24.2825 9.54186 24.6852 9.31125 25.0127 8.99774L28.1605 5.94674C28.1969 5.90591 28.2198 5.85552 28.2263 5.80205C28.2327 5.74857 28.2225 5.69445 28.1968 5.64664C28.1712 5.59883 28.1313 5.5595 28.0823 5.53372C28.0332 5.50794 27.9773 5.49687 27.9218 5.50195" stroke="url(#paint3_linear_93_34251)" stroke-width="1.5" stroke-linecap="round" stroke-linejoin="round"/>
<defs>
<linearGradient id="paint0_linear_93_34251" x1="14.3373" y1="12.3458" x2="14.3373" y2="16.95" gradientUnits="userSpaceOnUse">
<stop stop-color="#0285FF"/>
<stop offset="1" stop-color="#1EEF32"/>
</linearGradient>
<linearGradient id="paint1_linear_93_34251" x1="14.75" y1="6.15002" x2="14.75" y2="22.35" gradientUnits="userSpaceOnUse">
<stop stop-color="#0285FF"/>
<stop offset="1" stop-color="#1EEF32"/>
</linearGradient>
<linearGradient id="paint2_linear_93_34251" x1="14.75" y1="0.75" x2="14.75" y2="27.75" gradientUnits="userSpaceOnUse">
<stop stop-color="#0285FF"/>
<stop offset="1" stop-color="#1EEF32"/>
</linearGradient>
<linearGradient id="paint3_linear_93_34251" x1="23.8052" y1="1.25183" x2="23.8052" y2="9.78168" gradientUnits="userSpaceOnUse">
<stop stop-color="#0285FF"/>
<stop offset="1" stop-color="#1EEF32"/>
</linearGradient>
</defs>
</svg>
