<svg width="81" height="81" viewBox="0 0 81 81" fill="none" xmlns="http://www.w3.org/2000/svg">
<path d="M22.275 58.725L50.625 50.625L58.725 22.275L30.375 30.375L22.275 58.725ZM40.5 46.575C38.8125 46.575 37.3788 45.985 36.1989 44.8051C35.019 43.6252 34.4277 42.1902 34.425 40.5C34.4223 38.8098 35.0136 37.3761 36.1989 36.1989C37.3842 35.0217 38.8179 34.4304 40.5 34.425C42.1821 34.4196 43.6171 35.0109 44.8051 36.1989C45.9931 37.3869 46.5831 38.8206 46.575 40.5C46.5669 42.1794 45.9769 43.6144 44.8051 44.8051C43.6333 45.9958 42.1983 46.5858 40.5 46.575ZM40.5 81C34.8975 81 29.6325 79.9362 24.705 77.8086C19.7775 75.681 15.4912 72.796 11.8462 69.1537C8.20125 65.5114 5.3163 61.2252 3.1914 56.295C1.0665 51.3648 0.00270512 46.0998 5.12658e-06 40.5C-0.00269487 34.9002 1.0611 29.6352 3.1914 24.705C5.3217 19.7748 8.20665 15.4885 11.8462 11.8462C15.4858 8.20395 19.7721 5.319 24.705 3.1914C29.6379 1.0638 34.9029 0 40.5 0C46.0971 0 51.3621 1.0638 56.295 3.1914C61.2279 5.319 65.5141 8.20395 69.1537 11.8462C72.7933 15.4885 75.6796 19.7748 77.8126 24.705C79.9456 29.6352 81.0081 34.9002 81 40.5C80.9919 46.0998 79.9281 51.3648 77.8086 56.295C75.6891 61.2252 72.8041 65.5114 69.1537 69.1537C65.5033 72.796 61.2171 75.6823 56.295 77.8126C51.3729 79.9429 46.1079 81.0054 40.5 81ZM40.5 72.9C49.4775 72.9 57.1225 69.745 63.4351 63.4351C69.7477 57.1252 72.9027 49.4802 72.9 40.5C72.8973 31.5198 69.7423 23.8747 63.4351 17.5648C57.1279 11.2549 49.4829 8.1 40.5 8.1C31.5171 8.1 23.872 11.2563 17.5648 17.5689C11.2576 23.8815 8.1027 31.5252 8.1 40.5C8.0973 49.4748 11.2536 57.1198 17.5689 63.4351C23.8842 69.7504 31.5279 72.9054 40.5 72.9Z" fill="url(#paint0_linear_158_27)"/>
<defs>
<linearGradient id="paint0_linear_158_27" x1="40.5" y1="0" x2="40.5" y2="81" gradientUnits="userSpaceOnUse">
<stop stop-color="#0285FF"/>
<stop offset="1" stop-color="#1EEF32"/>
</linearGradient>
</defs>
</svg>
