<svg width="37" height="25" viewBox="0 0 37 25" fill="none" xmlns="http://www.w3.org/2000/svg">
<path d="M18.3333 7.5C19.6594 7.5 20.9312 8.02678 21.8689 8.96447C22.8066 9.90215 23.3333 11.1739 23.3333 12.5C23.3333 13.8261 22.8066 15.0979 21.8689 16.0355C20.9312 16.9732 19.6594 17.5 18.3333 17.5C17.0073 17.5 15.7355 16.9732 14.7978 16.0355C13.8601 15.0979 13.3333 13.8261 13.3333 12.5C13.3333 11.1739 13.8601 9.90215 14.7978 8.96447C15.7355 8.02678 17.0073 7.5 18.3333 7.5ZM18.3333 0C26.6667 0 33.7833 5.18333 36.6667 12.5C33.7833 19.8167 26.6667 25 18.3333 25C10 25 2.88333 19.8167 0 12.5C2.88333 5.18333 10 0 18.3333 0ZM3.63333 12.5C4.98042 15.2505 7.07218 17.5679 9.6708 19.1888C12.2694 20.8096 15.2707 21.6689 18.3333 21.6689C21.396 21.6689 24.3972 20.8096 26.9959 19.1888C29.5945 17.5679 31.6862 15.2505 33.0333 12.5C31.6862 9.74949 29.5945 7.43209 26.9959 5.81124C24.3972 4.1904 21.396 3.33113 18.3333 3.33113C15.2707 3.33113 12.2694 4.1904 9.6708 5.81124C7.07218 7.43209 4.98042 9.74949 3.63333 12.5Z" fill="url(#paint0_linear_93_33752)"/>
<defs>
<linearGradient id="paint0_linear_93_33752" x1="18.3333" y1="0" x2="18.3333" y2="25" gradientUnits="userSpaceOnUse">
<stop stop-color="#0285FF"/>
<stop offset="1" stop-color="#1EEF32"/>
</linearGradient>
</defs>
</svg>
