<svg width="25" height="30" viewBox="0 0 25 30" fill="none" xmlns="http://www.w3.org/2000/svg">
<path d="M1 17.513C2.47985 16.0625 4.46946 15.25 6.54167 15.25C8.61388 15.25 10.6035 16.0625 12.0833 17.513C13.5632 18.9636 15.5528 19.7761 17.625 19.7761C19.6972 19.7761 21.6868 18.9636 23.1667 17.513V3.26304C21.6868 4.71358 19.6972 5.52607 17.625 5.52607C15.5528 5.52607 13.5632 4.71358 12.0833 3.26304C10.6035 1.81249 8.61388 1 6.54167 1C4.46946 1 2.47985 1.81249 1 3.26304V17.513ZM1 17.513V28.5964" stroke="url(#paint0_linear_93_34259)" stroke-width="2" stroke-linecap="round" stroke-linejoin="round"/>
<defs>
<linearGradient id="paint0_linear_93_34259" x1="12.0833" y1="1" x2="12.0833" y2="28.5964" gradientUnits="userSpaceOnUse">
<stop stop-color="#0285FF"/>
<stop offset="1" stop-color="#1EEF32"/>
</linearGradient>
</defs>
</svg>
