<svg width="40" height="40" viewBox="0 0 40 40" fill="none" xmlns="http://www.w3.org/2000/svg">
<path d="M10.4554 28.2242C8.68895 28.2242 7.25223 27.5859 6.17488 26.3187C5.09754 25.0515 4.39051 23.1711 3.97879 20.4351C3.37254 16.4031 3.9741 13.0047 5.67254 10.8664C6.67254 9.607 7.98504 8.87888 9.46785 8.76169C10.7374 8.66013 12.635 9.17497 14.4679 12.1992C15.6155 14.0929 16.4882 16.6086 16.8624 19.1008C17.3147 22.1093 16.978 24.3242 15.8327 25.8703C14.9233 27.0984 13.5249 27.8593 11.6757 28.1359C11.2716 28.1952 10.8637 28.2247 10.4554 28.2242ZM13.5155 38.75C12.4835 38.75 11.4374 38.4195 10.4952 37.7843C9.13567 36.863 8.19461 35.4424 7.87645 33.8312C7.65379 32.6859 7.78738 31.7758 8.28426 31.0468C9.09129 29.8633 10.5397 29.5968 12.0725 29.314C12.2343 29.2843 12.3983 29.2547 12.5647 29.2226C12.9179 29.1554 13.2788 29.0664 13.6288 28.9797C14.9397 28.6562 16.296 28.3211 17.4155 29.1164C18.1647 29.6476 18.5874 30.5508 18.7139 31.8758C18.8577 33.4047 18.5296 34.9304 17.7897 36.1726C16.9936 37.5093 15.7999 38.3929 14.4304 38.6617C14.129 38.7205 13.8226 38.7501 13.5155 38.75ZM29.5444 20.7242C29.1364 20.7227 28.7291 20.6914 28.3257 20.6304C26.4772 20.357 25.0788 19.5953 24.1694 18.3648C23.0241 16.8187 22.685 14.6047 23.1397 11.5953C23.5139 9.10075 24.3843 6.58747 25.5264 4.70075C27.3499 1.68747 29.2499 1.16481 30.5264 1.257C32.0046 1.36481 33.3147 2.08278 34.3163 3.33513C36.0264 5.47341 36.6327 8.882 36.0241 12.932C35.6124 15.6664 34.9147 17.5375 33.828 18.8156C32.7413 20.0937 31.3108 20.7242 29.5444 20.7242ZM26.4843 31.25C26.178 31.2499 25.8724 31.2204 25.5718 31.1617C24.1999 30.8929 23.0061 30.0093 22.2124 28.6726C21.4725 27.4304 21.1444 25.9047 21.2882 24.3758C21.4132 23.0476 21.835 22.1476 22.5866 21.6156C23.7061 20.8211 25.0624 21.1554 26.3733 21.4797C26.7233 21.5656 27.0843 21.6547 27.4374 21.7226L27.9288 21.814C29.4624 22.0961 30.9108 22.3609 31.7179 23.5461C32.2147 24.275 32.3483 25.1867 32.1257 26.3304C31.8079 27.942 30.8667 29.3629 29.5069 30.2843C28.5593 30.9203 27.5132 31.25 26.4843 31.25Z" fill="url(#paint0_linear_93_34213)"/>
<defs>
<linearGradient id="paint0_linear_93_34213" x1="20.0017" y1="1.24731" x2="20.0017" y2="38.75" gradientUnits="userSpaceOnUse">
<stop stop-color="#0285FF"/>
<stop offset="1" stop-color="#1EEF32"/>
</linearGradient>
</defs>
</svg>
