<svg width="78" height="50" viewBox="0 0 78 50" fill="none" xmlns="http://www.w3.org/2000/svg">
<path d="M71.5635 6.60156C73.6455 8.73698 75.2324 11.1589 76.3242 13.8672C77.416 16.5755 77.9746 19.4531 78 22.5C78 23.4115 77.9746 24.5052 77.9238 25.7812C77.873 27.0573 77.7715 28.4375 77.6191 29.9219C77.4668 31.4062 77.2256 32.9297 76.8955 34.4922C76.5654 36.0547 76.1465 37.6042 75.6387 39.1406C74.877 41.3802 73.9883 43.2031 72.9727 44.6094C71.957 46.0156 70.9033 47.1224 69.8115 47.9297C68.7197 48.737 67.6152 49.2839 66.498 49.5703C65.3809 49.8568 64.3398 50 63.375 50C62.5371 50 61.7754 49.8568 61.0898 49.5703C60.4043 49.2839 59.7441 48.8932 59.1094 48.3984C58.4746 47.9036 57.8906 47.3698 57.3574 46.7969C56.8242 46.224 56.2783 45.599 55.7197 44.9219C55.1865 44.2969 54.666 43.6979 54.1582 43.125C53.6504 42.5521 53.1045 42.0443 52.5205 41.6016C51.9365 41.1589 51.3525 40.7812 50.7686 40.4688C50.1846 40.1562 49.499 40 48.7119 40H29.2881C28.5518 40.026 27.8789 40.1823 27.2695 40.4688C26.6602 40.7552 26.0635 41.1198 25.4795 41.5625C24.8955 42.0052 24.3623 42.526 23.8799 43.125C23.3975 43.724 22.8643 44.3229 22.2803 44.9219C21.7471 45.5469 21.2139 46.1589 20.6807 46.7578C20.1475 47.3568 19.5635 47.9036 18.9287 48.3984C18.2939 48.8932 17.6338 49.2708 16.9482 49.5312C16.2627 49.7917 15.4883 49.9479 14.625 50C13.6602 50 12.6191 49.8568 11.502 49.5703C10.3848 49.2839 9.28027 48.75 8.18848 47.9688C7.09668 47.1875 6.04297 46.0807 5.02734 44.6484C4.01172 43.2161 3.12305 41.3802 2.36133 39.1406C1.85352 37.6302 1.44727 36.0938 1.14258 34.5312C0.837891 32.9688 0.59668 31.4323 0.418945 29.9219C0.241211 28.4115 0.126953 27.0312 0.0761719 25.7812C0.0253906 24.5312 0 23.4375 0 22.5C0 19.4792 0.545898 16.6146 1.6377 13.9062C2.72949 11.1979 4.3291 8.76302 6.43652 6.60156C8.49316 4.46615 10.8545 2.83854 13.5205 1.71875C16.1865 0.598958 18.9922 0.0260417 21.9375 0H56.0625C59.0078 0 61.8008 0.559896 64.4414 1.67969C67.082 2.79948 69.4561 4.4401 71.5635 6.60156ZM71.0303 37.5C71.5127 36.1198 71.8936 34.6875 72.1729 33.2031C72.4521 31.7188 72.6553 30.2995 72.7822 28.9453C72.9092 27.5911 72.998 26.3411 73.0488 25.1953C73.0996 24.0495 73.125 23.151 73.125 22.5C73.125 20.0781 72.6807 17.8125 71.792 15.7031C70.9033 13.5938 69.6846 11.7448 68.1357 10.1562C66.5869 8.56771 64.7842 7.31771 62.7275 6.40625C60.6709 5.49479 58.4492 5.02604 56.0625 5H21.9375C19.5762 5 17.3672 5.45573 15.3105 6.36719C13.2539 7.27865 11.4512 8.52865 9.90234 10.1172C8.35352 11.7057 7.13477 13.5547 6.24609 15.6641C5.35742 17.7734 4.90039 20.0521 4.875 22.5C4.875 23.1771 4.8877 24.0755 4.91309 25.1953C4.93848 26.3151 5.02734 27.5521 5.17969 28.9062C5.33203 30.2604 5.54785 31.6927 5.82715 33.2031C6.10645 34.7135 6.4873 36.1458 6.96973 37.5C7.60449 39.375 8.30273 40.8203 9.06445 41.8359C9.82617 42.8516 10.5625 43.5938 11.2734 44.0625C11.9844 44.5312 12.6445 44.8047 13.2539 44.8828C13.8633 44.9609 14.3203 45 14.625 45C15.1836 45 15.793 44.6615 16.4531 43.9844C17.1133 43.3073 17.8242 42.526 18.5859 41.6406C19.1953 40.9115 19.8428 40.1693 20.5283 39.4141C21.2139 38.6589 21.9883 37.9557 22.8516 37.3047C23.7148 36.6536 24.667 36.1198 25.708 35.7031C26.749 35.2865 27.9043 35.0521 29.1738 35H48.8262C50.0957 35.0521 51.251 35.2865 52.292 35.7031C53.333 36.1198 54.2725 36.6406 55.1104 37.2656C55.9482 37.8906 56.7227 38.5938 57.4336 39.375C58.1445 40.1562 58.8047 40.9115 59.4141 41.6406C60.1504 42.5 60.8486 43.2682 61.5088 43.9453C62.1689 44.6224 62.791 44.974 63.375 45C63.6797 45 64.124 44.9609 64.708 44.8828C65.292 44.8047 65.9521 44.5312 66.6885 44.0625C67.4248 43.5938 68.1738 42.8516 68.9355 41.8359C69.6973 40.8203 70.3955 39.375 71.0303 37.5ZM19.5 20H24.375V25H19.5V30H14.625V25H9.75V20H14.625V15H19.5V20ZM63.375 25C64.0605 25 64.6953 25.1302 65.2793 25.3906C65.8633 25.651 66.3711 26.0026 66.8027 26.4453C67.2344 26.888 67.5898 27.4219 67.8691 28.0469C68.1484 28.6719 68.2754 29.3229 68.25 30C68.25 30.7031 68.123 31.3542 67.8691 31.9531C67.6152 32.5521 67.2725 33.0729 66.8408 33.5156C66.4092 33.9583 65.8887 34.3229 65.2793 34.6094C64.6699 34.8958 64.0352 35.026 63.375 35C62.6895 35 62.0547 34.8698 61.4707 34.6094C60.8867 34.349 60.3789 33.9974 59.9473 33.5547C59.5156 33.112 59.1602 32.5781 58.8809 31.9531C58.6016 31.3281 58.4746 30.6771 58.5 30C58.5 29.2969 58.627 28.6458 58.8809 28.0469C59.1348 27.4479 59.4775 26.9271 59.9092 26.4844C60.3408 26.0417 60.8613 25.6771 61.4707 25.3906C62.0801 25.1042 62.7148 24.974 63.375 25ZM53.625 15C54.3105 15 54.9453 15.1302 55.5293 15.3906C56.1133 15.651 56.6211 16.0026 57.0527 16.4453C57.4844 16.888 57.8398 17.4219 58.1191 18.0469C58.3984 18.6719 58.5254 19.3229 58.5 20C58.5 20.7031 58.373 21.3542 58.1191 21.9531C57.8652 22.5521 57.5225 23.0729 57.0908 23.5156C56.6592 23.9583 56.1387 24.3229 55.5293 24.6094C54.9199 24.8958 54.2852 25.026 53.625 25C52.9395 25 52.3047 24.8698 51.7207 24.6094C51.1367 24.349 50.6289 23.9974 50.1973 23.5547C49.7656 23.112 49.4102 22.5781 49.1309 21.9531C48.8516 21.3281 48.7246 20.6771 48.75 20C48.75 19.2969 48.877 18.6458 49.1309 18.0469C49.3848 17.4479 49.7275 16.9271 50.1592 16.4844C50.5908 16.0417 51.1113 15.6771 51.7207 15.3906C52.3301 15.1042 52.9648 14.974 53.625 15Z" fill="url(#paint0_linear_255_1039)"/>
<defs>
<linearGradient id="paint0_linear_255_1039" x1="39" y1="0" x2="39" y2="50" gradientUnits="userSpaceOnUse">
<stop stop-color="#0285FF"/>
<stop offset="1" stop-color="#1EEF32"/>
</linearGradient>
</defs>
</svg>
