<svg width="56" height="64" viewBox="0 0 56 64" fill="none" xmlns="http://www.w3.org/2000/svg">
<path fill-rule="evenodd" clip-rule="evenodd" d="M47.0763 19.0572V17.5138C47.0767 16.4639 46.8272 15.4273 46.3464 14.4804C45.8655 13.5335 45.1655 12.7005 44.298 12.0429C43.4304 11.3852 42.4175 10.9196 41.3338 10.6805C40.2501 10.4413 39.1234 10.4347 38.0366 10.6611C37.7296 9.04019 36.8279 7.57286 35.4896 6.51595C34.1513 5.45903 32.4616 4.87988 30.7163 4.87988C28.9709 4.87988 27.2812 5.45903 25.9429 6.51595C24.6046 7.57286 23.703 9.04019 23.3959 10.6611C22.3091 10.4347 21.1824 10.4413 20.0987 10.6805C19.015 10.9196 18.0021 11.3852 17.1346 12.0429C16.267 12.7005 15.567 13.5335 15.0861 14.4804C14.6053 15.4273 14.3558 16.4639 14.3562 17.5138V31.4382C13.561 30.8027 12.693 30.253 11.7683 29.7994C8.73427 28.3458 5.78946 28.5703 2.687 29.7657C0.188367 30.7339 -0.605841 33.4363 0.465 35.4567L8.91869 51.4072C10.8949 55.1355 13.9323 58.2711 17.6907 60.4628C21.4492 62.6544 25.7802 63.8156 30.1987 63.8163H32.2035C38.5148 63.8163 44.5675 61.4511 49.0302 57.2409C53.4929 53.0308 56 47.3206 56 41.3666V25.9325C56.0002 24.892 55.7551 23.8646 55.2825 22.9245C54.8099 21.9845 54.1216 21.1554 53.2674 20.4973C52.4132 19.8392 51.4145 19.3685 50.3438 19.1195C49.273 18.8704 48.1569 18.8492 47.0763 19.0572ZM23.2799 17.5138C23.2799 17.1417 23.1232 16.7848 22.8442 16.5217C22.5653 16.2586 22.187 16.1107 21.7926 16.1107C21.3981 16.1107 21.0198 16.2586 20.7409 16.5217C20.462 16.7848 20.3053 17.1417 20.3053 17.5138V38.5604C20.3048 39.1414 20.1132 39.7079 19.7569 40.1818C19.4007 40.6556 18.8972 41.0135 18.3162 41.206C17.7352 41.3984 17.1051 41.416 16.513 41.2563C15.9209 41.0966 15.396 40.7674 15.0106 40.3143C12.2591 37.0703 10.4982 35.4876 9.07635 34.8029C8.31778 34.4136 7.43535 34.297 6.59259 34.4746L14.2372 48.8985C15.7196 51.6946 17.998 54.0462 20.8171 55.6897C23.6362 57.3332 26.8847 58.2038 30.1987 58.2039H32.2035C36.9369 58.2039 41.4765 56.43 44.8235 53.2724C48.1705 50.1148 50.0509 45.8321 50.0509 41.3666V25.9325C50.0509 25.5603 49.8942 25.2034 49.6153 24.9403C49.3364 24.6772 48.9581 24.5294 48.5636 24.5294C48.1692 24.5294 47.7909 24.6772 47.5119 24.9403C47.233 25.2034 47.0763 25.5603 47.0763 25.9325V32.948C47.0763 33.6922 46.7629 34.406 46.2051 34.9323C45.6473 35.4585 44.8907 35.7542 44.1018 35.7542C43.3129 35.7542 42.5563 35.4585 41.9984 34.9323C41.4406 34.406 41.1272 33.6922 41.1272 32.948V17.5138C41.1272 17.1417 40.9705 16.7848 40.6916 16.5217C40.4127 16.2586 40.0344 16.1107 39.6399 16.1107C39.2455 16.1107 38.8672 16.2586 38.5883 16.5217C38.3093 16.7848 38.1527 17.1417 38.1527 17.5138V30.1418C38.1527 30.886 37.8393 31.5998 37.2814 32.1261C36.7236 32.6523 35.967 32.948 35.1781 32.948C34.3892 32.948 33.6326 32.6523 33.0748 32.1261C32.5169 31.5998 32.2035 30.886 32.2035 30.1418V11.9014C32.2035 11.5293 32.0468 11.1724 31.7679 10.9093C31.489 10.6461 31.1107 10.4983 30.7163 10.4983C30.3218 10.4983 29.9435 10.6461 29.6646 10.9093C29.3857 11.1724 29.229 11.5293 29.229 11.9014V32.948C29.229 33.6922 28.9156 34.406 28.3577 34.9323C27.7999 35.4585 27.0433 35.7542 26.2544 35.7542C25.4655 35.7542 24.7089 35.4585 24.1511 34.9323C23.5933 34.406 23.2799 33.6922 23.2799 32.948V17.5138Z" fill="url(#paint0_linear_166_282)"/>
<defs>
<linearGradient id="paint0_linear_166_282" x1="28" y1="4.87988" x2="28" y2="63.8163" gradientUnits="userSpaceOnUse">
<stop stop-color="#2BB5FA"/>
<stop offset="1" stop-color="#1EEF32"/>
</linearGradient>
</defs>
</svg>
