<svg width="44" height="44" viewBox="0 0 44 44" fill="none" xmlns="http://www.w3.org/2000/svg">
<path d="M31.4642 22.605C30.9512 26.8774 28.1529 28.5845 26.9443 29.8238C25.7339 31.0667 25.9507 31.3142 26.032 33.137C26.0456 33.3625 26.0128 33.5884 25.9358 33.8008C25.8587 34.0131 25.739 34.2075 25.5839 34.3718C25.4289 34.5362 25.2418 34.667 25.0343 34.7563C24.8268 34.8456 24.6032 34.8915 24.3772 34.8911H19.5755C19.3497 34.8907 19.1264 34.8443 18.9192 34.7548C18.7119 34.6652 18.5251 34.5344 18.3701 34.3702C18.215 34.2061 18.0951 34.0121 18.0175 33.8C17.94 33.588 17.9064 33.3624 17.9189 33.137C17.9189 31.3485 18.0851 30.933 17.0085 29.8238C15.6355 28.4509 12.4055 26.5125 12.4055 21.1814C12.3972 19.8573 12.6634 18.5457 13.1872 17.3295C13.711 16.1133 14.481 15.0188 15.4488 14.115C16.4166 13.2111 17.5611 12.5176 18.8103 12.0781C20.0594 11.6385 21.386 11.4625 22.7066 11.5612C24.0271 11.6598 25.3129 12.0309 26.4828 12.6512C27.6528 13.2714 28.6816 14.1272 29.5044 15.1648C30.3272 16.2024 30.9261 17.3991 31.2634 18.6797C31.6007 19.9602 31.6691 21.2967 31.4642 22.605Z" stroke="url(#paint0_linear_93_33721)" stroke-width="1.5" stroke-linecap="round" stroke-linejoin="round"/>
<path d="M19.1941 34.7918V37.5232C19.1941 38.2693 19.6096 38.8817 20.1209 38.8817H23.8296C24.3445 38.8817 24.7582 38.2675 24.7582 37.5232V34.7918M20.5671 15.7511C19.5004 15.7515 18.4776 16.1756 17.7235 16.9301C16.9694 17.6845 16.5458 18.7075 16.5458 19.7742M35.2215 21.5464H38.5347M31.8867 10.6856L34.237 8.33532M33.6932 30.7524L36.0435 33.1009M21.9762 4.33569V7.01476M9.76411 8.33351L12.0981 10.6856M7.95759 33.1009L10.2916 30.7524M8.73078 21.5464H5.41943" stroke="url(#paint1_linear_93_33721)" stroke-width="1.5" stroke-linecap="round" stroke-linejoin="round"/>
<defs>
<linearGradient id="paint0_linear_93_33721" x1="21.9925" y1="11.5345" x2="21.9925" y2="34.8911" gradientUnits="userSpaceOnUse">
<stop stop-color="#2BB5FA"/>
<stop offset="1" stop-color="#1EEF32"/>
</linearGradient>
<linearGradient id="paint1_linear_93_33721" x1="21.9771" y1="4.33569" x2="21.9771" y2="38.8817" gradientUnits="userSpaceOnUse">
<stop stop-color="#2BB5FA"/>
<stop offset="1" stop-color="#1EEF32"/>
</linearGradient>
</defs>
</svg>
