<svg width="30" height="30" viewBox="0 0 30 30" fill="none" xmlns="http://www.w3.org/2000/svg">
<path d="M30 20C30 21.8333 29.3472 23.4028 28.0417 24.7083C26.7361 26.0139 25.1667 26.6667 23.3333 26.6667L9.70833 26.6667C9.34722 27.6389 8.74333 28.4372 7.89667 29.0617C7.05 29.6861 6.08444 29.9989 5 30C3.61111 30 2.43056 29.5139 1.45833 28.5417C0.486111 27.5694 -1.57847e-07 26.3889 -2.18557e-07 25C-2.79267e-07 23.6111 0.486111 22.4306 1.45833 21.4583C2.43056 20.4861 3.61111 20 5 20C6.08333 20 7.04889 20.3122 7.89667 20.9367C8.74444 21.5611 9.34833 22.36 9.70833 23.3333L23.3333 23.3333C24.25 23.3333 25.035 23.0067 25.6883 22.3533C26.3417 21.7 26.6678 20.9156 26.6667 20C26.6656 19.0844 26.3394 18.2994 25.6883 17.645C25.0372 16.9906 24.2522 16.6644 23.3333 16.6667L6.66667 16.6667C4.83333 16.6667 3.26389 16.0139 1.95833 14.7083C0.652777 13.4028 -7.9409e-07 11.8333 -8.74228e-07 10C-9.54365e-07 8.16667 0.652777 6.59723 1.95833 5.29167C3.26389 3.98611 4.83333 3.33334 6.66667 3.33334L20.2917 3.33334C20.6528 2.36111 21.2572 1.56223 22.105 0.936671C22.9528 0.311116 23.9178 -0.00110643 25 4.62926e-06C26.3889 4.56855e-06 27.5694 0.486115 28.5417 1.45834C29.5139 2.43056 30 3.61111 30 5C30 6.38889 29.5139 7.56945 28.5417 8.54167C27.5694 9.51389 26.3889 10 25 10C23.9167 10 22.9444 9.68722 22.0833 9.06167C21.2222 8.43611 20.625 7.63778 20.2917 6.66667L6.66667 6.66667C5.75 6.66667 4.96555 6.99278 4.31333 7.645C3.66111 8.29723 3.33444 9.08223 3.33333 10C3.33222 10.9178 3.65889 11.7022 4.31333 12.3533C4.96778 13.0044 5.75222 13.3311 6.66667 13.3333L23.3333 13.3333C25.1667 13.3333 26.7361 13.9861 28.0417 15.2917C29.3472 16.5972 30 18.1667 30 20ZM6.66667 25C6.66667 24.5278 6.50667 24.1317 6.18667 23.8117C5.86667 23.4917 5.47111 23.3322 5 23.3333C4.52889 23.3344 4.13333 23.4944 3.81333 23.8133C3.49333 24.1322 3.33333 24.5278 3.33333 25C3.33333 25.4722 3.49333 25.8678 3.81333 26.1867C4.13333 26.5056 4.52889 26.6656 5 26.6667C5.47111 26.6678 5.86722 26.5078 6.18833 26.1867C6.50944 25.8656 6.66889 25.47 6.66667 25ZM26.6667 5C26.6667 4.52778 26.5067 4.13167 26.1867 3.81167C25.8667 3.49167 25.4711 3.33223 25 3.33334C24.5289 3.33445 24.1333 3.49445 23.8133 3.81334C23.4933 4.13223 23.3333 4.52778 23.3333 5C23.3333 5.47222 23.4933 5.86778 23.8133 6.18667C24.1333 6.50556 24.5289 6.66556 25 6.66667C25.4711 6.66778 25.8672 6.50778 26.1883 6.18667C26.5094 5.86556 26.6689 5.47 26.6667 5Z" fill="url(#paint0_linear_93_34210)"/>
<defs>
<linearGradient id="paint0_linear_93_34210" x1="-6.55671e-07" y1="15" x2="30" y2="15" gradientUnits="userSpaceOnUse">
<stop stop-color="#0285FF"/>
<stop offset="1" stop-color="#1EEF32"/>
</linearGradient>
</defs>
</svg>
