<svg width="28" height="33" viewBox="0 0 28 33" fill="none" xmlns="http://www.w3.org/2000/svg">
<path d="M13.2122 5.72868C13.2599 5.63091 13.3358 5.54815 13.4311 5.49016C13.5264 5.43218 13.6371 5.40137 13.7501 5.40137C13.8631 5.40137 13.9738 5.43218 14.0691 5.49016C14.1644 5.54815 14.2403 5.63091 14.288 5.72868L15.6107 8.31408C15.6984 8.48458 15.8625 8.60393 16.0543 8.63493L18.9272 9.09063C19.4146 9.16813 19.6096 9.76333 19.2603 10.1105L17.2031 12.1658C17.1354 12.2344 17.085 12.3169 17.0557 12.4068C17.0265 12.4968 17.0191 12.592 17.0341 12.6851L17.4875 15.5526C17.5638 16.0393 17.0552 16.4066 16.6165 16.1834L14.0247 14.8675C13.9402 14.8246 13.8459 14.8022 13.7501 14.8022C13.6543 14.8022 13.56 14.8246 13.4755 14.8675L10.8837 16.1834C10.445 16.4066 9.93637 16.0393 10.0127 15.5526L10.4661 12.6851C10.4811 12.592 10.4737 12.4968 10.4445 12.4068C10.4152 12.3169 10.3648 12.2344 10.2971 12.1658L8.23993 10.1121C7.89219 9.76488 8.08556 9.16968 8.57304 9.09218L11.4459 8.63648C11.5415 8.62107 11.6318 8.58385 11.709 8.52798C11.7863 8.47211 11.8482 8.39926 11.8895 8.31563L13.2122 5.72868Z" stroke="url(#paint0_linear_93_34263)" stroke-width="1.5" stroke-linecap="round" stroke-linejoin="round"/>
<path d="M25.1247 11.6C25.1247 13.0248 24.8305 14.4357 24.2588 15.7521C23.6872 17.0685 22.8494 18.2646 21.7931 19.2721C20.7369 20.2796 19.483 21.0788 18.103 21.6241C16.7229 22.1694 15.2438 22.45 13.7501 22.45C12.2564 22.45 10.7773 22.1694 9.39725 21.6241C8.01722 21.0788 6.7633 20.2796 5.70707 19.2721C4.65085 18.2646 3.813 17.0685 3.24138 15.7521C2.66975 14.4357 2.37554 13.0248 2.37554 11.6C2.37554 8.7224 3.57393 5.96266 5.70707 3.92789C7.84022 1.89312 10.7334 0.75 13.7501 0.75C16.7668 0.75 19.66 1.89312 21.7931 3.92789C23.9263 5.96266 25.1247 8.7224 25.1247 11.6Z" stroke="url(#paint1_linear_93_34263)" stroke-width="1.5" stroke-linecap="round" stroke-linejoin="round"/>
<path d="M15.375 22.9801L18.0172 29.6606C18.5502 31.0044 18.8167 31.6787 19.2798 31.75C19.7445 31.6849 20.3132 30.944 20.869 29.6063C21.2671 28.6484 21.4653 28.1695 21.8764 27.9106C22.0021 27.8321 22.138 27.7701 22.2843 27.7246C22.7588 27.582 23.3031 27.7215 24.3935 28.0036C25.5585 28.3043 26.3678 28.2206 26.6879 28.0036C26.7821 27.9401 26.6879 27.999 26.6879 27.999C26.8764 27.6797 26.6229 27.1837 26.1143 26.1901L22.6158 19.35M12.1252 22.9801L9.48301 29.6575C8.95003 31.0029 8.42355 31.6787 7.96045 31.75C7.49571 31.6849 7.21785 31.0153 6.6605 29.6776C6.26401 28.7197 6.03489 28.1679 5.62378 27.9106C5.49758 27.8308 5.3603 27.7682 5.21592 27.7246C4.74144 27.5805 4.19709 27.7215 3.10675 28.0021C1.94167 28.3028 1.13245 28.2144 0.81234 27.9974C0.623847 27.6781 0.877337 27.1821 1.38594 26.1886L4.88444 19.35" stroke="url(#paint2_linear_93_34263)" stroke-width="1.5" stroke-linecap="round" stroke-linejoin="round"/>
<defs>
<linearGradient id="paint0_linear_93_34263" x1="13.7505" y1="5.40137" x2="13.7505" y2="16.2503" gradientUnits="userSpaceOnUse">
<stop stop-color="#0285FF"/>
<stop offset="1" stop-color="#1EEF32"/>
</linearGradient>
<linearGradient id="paint1_linear_93_34263" x1="13.7501" y1="0.75" x2="13.7501" y2="22.45" gradientUnits="userSpaceOnUse">
<stop stop-color="#0285FF"/>
<stop offset="1" stop-color="#1EEF32"/>
</linearGradient>
<linearGradient id="paint2_linear_93_34263" x1="13.7501" y1="19.35" x2="13.7501" y2="31.75" gradientUnits="userSpaceOnUse">
<stop stop-color="#0285FF"/>
<stop offset="1" stop-color="#1EEF32"/>
</linearGradient>
</defs>
</svg>
