<svg width="38" height="31" viewBox="0 0 38 31" fill="none" xmlns="http://www.w3.org/2000/svg">
<path d="M18.6051 6.70111C18.6051 3.42827 15.9268 0.75 12.654 0.75H0.75V22.1761H12.7272C18.6051 22.1761 18.6051 28.129 18.6051 28.129M18.6051 6.70111C18.6051 3.42648 21.2834 0.75 24.5562 0.75H36.4602V22.1761H24.5562C18.6051 22.1761 18.6051 28.129 18.6051 28.129M18.6051 6.70111V28.129M21.9529 30.1359C22.3255 29.3644 22.9058 28.712 23.6288 28.2521C24.3517 27.7922 25.1886 27.5431 26.0453 27.5327H34.6747M15.2573 30.1359C14.8915 29.3591 14.3128 28.7021 13.5883 28.2413C12.8639 27.7804 12.0235 27.5347 11.1649 27.5327H2.53551" stroke="url(#paint0_linear_93_34223)" stroke-width="1.5" stroke-miterlimit="10" stroke-linecap="round" stroke-linejoin="round"/>
<defs>
<linearGradient id="paint0_linear_93_34223" x1="18.6051" y1="0.75" x2="18.6051" y2="30.1359" gradientUnits="userSpaceOnUse">
<stop stop-color="#2BB5FA"/>
<stop offset="1" stop-color="#1EEF32"/>
</linearGradient>
</defs>
</svg>
