<svg width="38" height="28" viewBox="0 0 38 28" fill="none" xmlns="http://www.w3.org/2000/svg">
<path fill-rule="evenodd" clip-rule="evenodd" d="M31.885 0.383845C32.1311 0.138056 32.4647 0 32.8125 0C33.1603 0 33.4939 0.138056 33.74 0.383845L37.24 3.88385C37.4858 4.12994 37.6238 4.46353 37.6238 4.81135C37.6238 5.15916 37.4858 5.49275 37.24 5.73885L33.74 9.23884C33.6198 9.3678 33.4749 9.47123 33.3139 9.54296C33.1529 9.6147 32.9791 9.65327 32.8029 9.65638C32.6267 9.65949 32.4516 9.62707 32.2882 9.56106C32.1248 9.49505 31.9763 9.3968 31.8517 9.27216C31.7271 9.14753 31.6288 8.99907 31.5628 8.83564C31.4968 8.67221 31.4644 8.49716 31.4675 8.32093C31.4706 8.1447 31.5091 7.9709 31.5809 7.8099C31.6526 7.6489 31.756 7.504 31.885 7.38385L33.145 6.12385H30.0072C28.5302 6.12385 27.5153 6.12385 26.7173 6.2026C25.9473 6.27785 25.4818 6.4161 25.095 6.63485C24.71 6.8536 24.3495 7.1826 23.8892 7.80385C23.4132 8.44785 22.8883 9.3176 22.1287 10.5846L17.7135 17.9433C16.996 19.1421 16.4062 20.1221 15.8445 20.8816C15.2583 21.6743 14.6405 22.3096 13.8232 22.7716C13.006 23.2336 12.1433 23.4366 11.1632 23.5328C10.2218 23.6238 9.079 23.6238 7.68075 23.6238H1.3125C0.964403 23.6238 0.630564 23.4856 0.384422 23.2394C0.138281 22.9933 0 22.6594 0 22.3113C0 21.9632 0.138281 21.6294 0.384422 21.3833C0.630564 21.1371 0.964403 20.9988 1.3125 20.9988H7.61775C9.09475 20.9988 10.1097 20.9988 10.9077 20.9201C11.6777 20.8448 12.1432 20.7066 12.53 20.4878C12.915 20.2691 13.2755 19.9401 13.7358 19.3188C14.2118 18.6748 14.735 17.8051 15.4962 16.5381L19.9115 9.17935C20.629 7.9806 21.2188 7.0006 21.7805 6.2411C22.3668 5.44835 22.9845 4.8131 23.8018 4.3511C24.619 3.8891 25.4818 3.6861 26.4618 3.58985C27.4032 3.49885 28.546 3.49885 29.9443 3.49885H33.1432L31.8832 2.23885C31.6375 1.99275 31.4994 1.65916 31.4994 1.31135C31.4994 0.963531 31.6392 0.629939 31.885 0.383845ZM11.34 6.19385C10.997 6.12735 10.6085 6.1221 9.47975 6.1221H1.3125C0.964403 6.1221 0.630564 5.98381 0.384422 5.73767C0.138281 5.49153 0 5.15769 0 4.8096C0 4.4615 0.138281 4.12766 0.384422 3.88152C0.630564 3.63538 0.964403 3.4971 1.3125 3.4971H9.6075C10.563 3.4971 11.221 3.49709 11.844 3.6196C13.2427 3.89166 14.5149 4.61159 15.4682 5.6706C15.8935 6.1431 16.2312 6.70659 16.723 7.5256L16.7878 7.6341C16.8785 7.78192 16.939 7.94626 16.9659 8.11762C16.9927 8.28899 16.9853 8.46397 16.9441 8.63246C16.9029 8.80095 16.8287 8.9596 16.7259 9.09924C16.623 9.23889 16.4934 9.35675 16.3447 9.44603C16.196 9.5353 16.0311 9.59422 15.8594 9.61936C15.6878 9.6445 15.5129 9.63538 15.3449 9.59252C15.1768 9.54966 15.0189 9.47391 14.8802 9.36965C14.7416 9.26539 14.625 9.13469 14.5373 8.9851C13.9563 8.0156 13.7498 7.6866 13.517 7.4276C12.9452 6.7909 12.1799 6.3578 11.34 6.19385ZM21.287 17.6843C21.4348 17.5954 21.5988 17.5364 21.7694 17.5109C21.9401 17.4853 22.1141 17.4937 22.2815 17.5355C22.4489 17.5772 22.6065 17.6516 22.7451 17.7543C22.8838 17.857 23.0008 17.9861 23.0895 18.1341C23.6688 19.1036 23.8735 19.4326 24.108 19.6916C24.6803 20.3286 25.4432 20.7608 26.2832 20.9253C26.6262 20.9918 27.0148 20.9971 28.1435 20.9971H33.1432L31.8832 19.7371C31.758 19.616 31.658 19.4711 31.5893 19.3109C31.5206 19.1508 31.4845 18.9785 31.4831 18.8042C31.4816 18.63 31.5149 18.4572 31.581 18.2959C31.6471 18.1346 31.7446 17.9881 31.8679 17.865C31.9912 17.7418 32.1378 17.6444 32.2991 17.5785C32.4604 17.5126 32.6333 17.4794 32.8075 17.481C32.9818 17.4826 33.154 17.5189 33.3141 17.5878C33.4742 17.6566 33.619 17.7567 33.74 17.8821L37.24 21.3821C37.4858 21.6282 37.6238 21.9618 37.6238 22.3096C37.6238 22.6574 37.4858 22.991 37.24 23.2371L33.74 26.7371C33.6198 26.866 33.4749 26.9695 33.3139 27.0412C33.1529 27.113 32.9791 27.1515 32.8029 27.1546C32.6267 27.1577 32.4516 27.1253 32.2882 27.0593C32.1248 26.9933 31.9763 26.895 31.8517 26.7704C31.7271 26.6458 31.6288 26.4973 31.5628 26.3339C31.4968 26.1705 31.4644 25.9954 31.4675 25.8192C31.4706 25.643 31.5091 25.4692 31.5809 25.3082C31.6526 25.1472 31.756 25.0023 31.885 24.8821L33.145 23.6221H28.0158C27.062 23.6221 26.4058 23.6221 25.781 23.4996C24.3823 23.2275 23.1101 22.5076 22.1567 21.4486C21.7315 20.9761 21.3938 20.4126 20.902 19.5936L20.8372 19.4851C20.7483 19.3373 20.6893 19.1733 20.6638 19.0027C20.6382 18.832 20.6466 18.658 20.6884 18.4906C20.7301 18.3232 20.8045 18.1656 20.9072 18.027C21.0099 17.8883 21.139 17.7713 21.287 17.6826" fill="url(#paint0_linear_93_34212)"/>
<defs>
<linearGradient id="paint0_linear_93_34212" x1="18.8119" y1="0" x2="18.8119" y2="27.1548" gradientUnits="userSpaceOnUse">
<stop stop-color="#0285FF"/>
<stop offset="1" stop-color="#1EEF32"/>
</linearGradient>
</defs>
</svg>
