<svg width="32" height="43" viewBox="0 0 32 43" fill="none" xmlns="http://www.w3.org/2000/svg">
<mask id="mask0_147_579" style="mask-type:luminance" maskUnits="userSpaceOnUse" x="0" y="0" width="32" height="43">
<path d="M0 0H32V43H0V0Z" fill="white"/>
<path d="M14.8575 25.0184H11.726C8.50547 25.0184 6.89633 25.0184 6.22204 24.1154C5.54776 23.2144 6.22433 21.9654 7.57747 19.4675L13.8198 7.93569C14.6769 6.35642 15.1043 5.56678 15.5523 5.64887C16.0003 5.73487 16.0003 6.6066 16.0003 8.34615V17.0048C16.0003 17.4661 16.0003 17.6967 16.1672 17.8394C16.334 17.9821 16.6038 17.9821 17.1432 17.9821H20.2746C23.4952 17.9821 25.1043 17.9821 25.7786 18.8851C26.4529 19.7861 25.7763 21.0351 24.4232 23.533L18.1809 35.0648C17.3238 36.6441 16.8963 37.4337 16.4483 37.3516C16.0003 37.2636 16.0003 36.3939 16.0003 34.6543V25.9957C16.0003 25.5344 16.0003 25.3038 15.8335 25.1611C15.6666 25.0184 15.3969 25.0184 14.8575 25.0184Z" fill="black"/>
</mask>
<g mask="url(#mask0_147_579)">
<path d="M14.8575 25.0184H11.726C8.50547 25.0184 6.89633 25.0184 6.22204 24.1154C5.54776 23.2144 6.22433 21.9654 7.57747 19.4675L13.8198 7.93569C14.6769 6.35642 15.1043 5.56678 15.5523 5.64887C16.0003 5.73487 16.0003 6.6066 16.0003 8.34615V17.0048C16.0003 17.4661 16.0003 17.6967 16.1672 17.8394C16.334 17.9821 16.6038 17.9821 17.1432 17.9821H20.2746C23.4952 17.9821 25.1043 17.9821 25.7786 18.8851C26.4529 19.7861 25.7763 21.0351 24.4232 23.533L18.1809 35.0648C17.3238 36.6441 16.8963 37.4337 16.4483 37.3516C16.0003 37.2636 16.0003 36.3939 16.0003 34.6543V25.9957C16.0003 25.5344 16.0003 25.3038 15.8335 25.1611C15.6666 25.0184 15.3969 25.0184 14.8575 25.0184Z" stroke="url(#paint0_linear_147_579)" stroke-width="4"/>
</g>
<defs>
<linearGradient id="paint0_linear_147_579" x1="16.0003" y1="5.64307" x2="16.0003" y2="37.3574" gradientUnits="userSpaceOnUse">
<stop stop-color="#0285FF"/>
<stop offset="1" stop-color="#1EEF32"/>
</linearGradient>
</defs>
</svg>
