<svg width="37" height="37" viewBox="0 0 37 37" fill="none" xmlns="http://www.w3.org/2000/svg">
<path d="M3.08333 0.75H33.4167C33.4167 0.75 35.75 0.75 35.75 3.08333V33.4167C35.75 33.4167 35.75 35.75 33.4167 35.75H3.08333C3.08333 35.75 0.75 35.75 0.75 33.4167V3.08333C0.75 3.08333 0.75 0.75 3.08333 0.75Z" stroke="url(#paint0_linear_93_34041)" stroke-width="1.5" stroke-linecap="round" stroke-linejoin="round"/>
<path d="M18.883 9.12906C19.0208 8.95543 19.2123 8.83246 19.4275 8.77948C19.6426 8.7265 19.8693 8.74651 20.0719 8.83636C20.2745 8.92621 20.4415 9.08081 20.5467 9.27587C20.6519 9.47094 20.6893 9.69542 20.653 9.91406L19.598 16.2501H23.417C23.605 16.25 23.7892 16.303 23.9485 16.4028C24.1077 16.5027 24.2356 16.6454 24.3175 16.8147C24.3993 16.9839 24.4318 17.1728 24.4112 17.3596C24.3906 17.5465 24.3178 17.7237 24.201 17.8711L16.284 27.8711C16.1463 28.0447 15.9548 28.1677 15.7396 28.2206C15.5244 28.2736 15.2977 28.2536 15.0952 28.1638C14.8926 28.0739 14.7256 27.9193 14.6204 27.7242C14.5152 27.5292 14.4778 27.3047 14.514 27.0861L15.569 20.7501H11.75C11.5621 20.7499 11.3781 20.6968 11.219 20.5969C11.0599 20.4969 10.9321 20.3542 10.8504 20.185C10.7687 20.0158 10.7363 19.827 10.7569 19.6403C10.7775 19.4535 10.8504 19.2763 10.967 19.1291L18.883 9.12906Z" fill="url(#paint1_linear_93_34041)"/>
<defs>
<linearGradient id="paint0_linear_93_34041" x1="18.25" y1="0.75" x2="18.25" y2="35.75" gradientUnits="userSpaceOnUse">
<stop stop-color="#0285FF"/>
<stop offset="1" stop-color="#1EEF32"/>
</linearGradient>
<linearGradient id="paint1_linear_93_34041" x1="17.584" y1="8.75049" x2="17.584" y2="28.2496" gradientUnits="userSpaceOnUse">
<stop stop-color="#0285FF"/>
<stop offset="1" stop-color="#1EEF32"/>
</linearGradient>
</defs>
</svg>
