<svg width="41" height="41" viewBox="0 0 41 41" fill="none" xmlns="http://www.w3.org/2000/svg">
<path d="M34.4729 10.7463L22.5189 5.15922C21.8694 4.85582 21.1614 4.69851 20.4446 4.69836C19.7278 4.69822 19.0197 4.85524 18.3702 5.15837L6.52886 10.6848C6.19086 10.8425 5.90486 11.0934 5.70446 11.408C5.50405 11.7226 5.39755 12.0878 5.39746 12.4608C5.39737 12.8338 5.5037 13.1991 5.70395 13.5137C5.90421 13.8284 6.19008 14.0794 6.52801 14.2373L18.4821 19.8244C19.1314 20.1279 19.8394 20.2854 20.5562 20.2857C21.273 20.286 21.9812 20.1291 22.6308 19.8261L34.4721 14.2988C34.8101 14.1411 35.0961 13.8902 35.2965 13.5756C35.4969 13.2611 35.6034 12.8958 35.6035 12.5228C35.6036 12.1498 35.4972 11.7846 35.297 11.4699C35.0967 11.1552 34.8109 10.9042 34.4729 10.7463Z" stroke="url(#paint0_linear_147_584)" stroke-width="2" stroke-linecap="round" stroke-linejoin="round"/>
<path d="M11.2985 16.4667L6.5288 18.6926C6.19056 18.8503 5.90433 19.1011 5.70375 19.4158C5.50317 19.7305 5.39657 20.0959 5.39648 20.469C5.39639 20.8422 5.50282 21.2076 5.70325 21.5224C5.90367 21.8372 6.18978 22.0882 6.52795 22.246L18.482 27.8322C19.1314 28.1357 19.8394 28.2932 20.5562 28.2935C21.273 28.2938 21.9811 28.1369 22.6307 27.8339L34.472 22.3075C34.81 22.1497 35.096 21.8989 35.2964 21.5843C35.4968 21.2697 35.6033 20.9045 35.6034 20.5315C35.6035 20.1585 35.4972 19.7932 35.2969 19.4786C35.0967 19.1639 34.8108 18.9129 34.4729 18.755L29.7023 16.5256" stroke="url(#paint1_linear_147_584)" stroke-width="0.5" stroke-linecap="round" stroke-linejoin="round"/>
<path d="M11.2985 24.4753L6.5288 26.7013C6.19056 26.8589 5.90433 27.1098 5.70375 27.4245C5.50317 27.7391 5.39657 28.1045 5.39648 28.4777C5.39639 28.8509 5.50282 29.2163 5.70325 29.5311C5.90367 29.8458 6.18978 30.0969 6.52795 30.2546L18.482 35.8409C19.1314 36.1443 19.8395 36.3016 20.5563 36.3017C21.2731 36.3019 21.9812 36.1449 22.6307 35.8417L34.472 30.3153C34.81 30.1576 35.096 29.9067 35.2964 29.5921C35.4968 29.2775 35.6033 28.9123 35.6034 28.5393C35.6035 28.1663 35.4972 27.801 35.2969 27.4864C35.0967 27.1717 34.8108 26.9207 34.4729 26.7628L29.7023 24.5334" stroke="url(#paint2_linear_147_584)" stroke-width="0.5" stroke-linecap="round" stroke-linejoin="round"/>
<defs>
<linearGradient id="paint0_linear_147_584" x1="20.5005" y1="4.69836" x2="20.5005" y2="20.2857" gradientUnits="userSpaceOnUse">
<stop offset="0.475962" stop-color="#0285FF"/>
<stop offset="0.625" stop-color="#1EEF32"/>
</linearGradient>
<linearGradient id="paint1_linear_147_584" x1="20.5" y1="16.4667" x2="20.5" y2="28.2935" gradientUnits="userSpaceOnUse">
<stop offset="0.475962" stop-color="#0285FF"/>
<stop offset="0.625" stop-color="#1EEF32"/>
</linearGradient>
<linearGradient id="paint2_linear_147_584" x1="20.5" y1="24.4753" x2="20.5" y2="36.3017" gradientUnits="userSpaceOnUse">
<stop offset="0.475962" stop-color="#0285FF"/>
<stop offset="0.625" stop-color="#1EEF32"/>
</linearGradient>
</defs>
</svg>
