<svg width="31" height="36" viewBox="0 0 31 36" fill="none" xmlns="http://www.w3.org/2000/svg">
<path d="M11.9583 3.41667C11.4743 3.41667 11.0689 3.25267 10.742 2.92467C10.4151 2.59667 10.2511 2.19122 10.25 1.70833C10.2489 1.22544 10.4129 0.82 10.742 0.492C11.0711 0.164 11.4766 0 11.9583 0H18.7917C19.2757 0 19.6817 0.164 20.0097 0.492C20.3377 0.82 20.5011 1.22544 20.5 1.70833C20.4989 2.19122 20.3349 2.59724 20.008 2.92638C19.6811 3.25551 19.2757 3.41894 18.7917 3.41667H11.9583ZM15.375 22.2083C15.859 22.2083 16.265 22.0443 16.593 21.7163C16.921 21.3883 17.0845 20.9829 17.0833 20.5V13.6667C17.0833 13.1826 16.9193 12.7772 16.5913 12.4503C16.2633 12.1235 15.8579 11.9595 15.375 11.9583C14.8921 11.9572 14.4867 12.1212 14.1587 12.4503C13.8307 12.7795 13.6667 13.1849 13.6667 13.6667V20.5C13.6667 20.984 13.8307 21.39 14.1587 21.718C14.4867 22.046 14.8921 22.2095 15.375 22.2083ZM15.375 35.875C13.2681 35.875 11.2818 35.4696 9.41633 34.6587C7.55083 33.8478 5.92108 32.7442 4.52708 31.3479C3.13308 29.9516 2.03007 28.3213 1.21804 26.457C0.406014 24.5926 0 22.6069 0 20.5C0 18.3931 0.406014 16.4068 1.21804 14.5413C2.03007 12.6758 3.13308 11.0461 4.52708 9.65208C5.92108 8.25808 7.5514 7.15507 9.41804 6.34304C11.2847 5.53101 13.2703 5.125 15.375 5.125C17.1403 5.125 18.8344 5.40972 20.4573 5.97917C22.0802 6.54861 23.6035 7.37431 25.0271 8.45625L26.2229 7.26042C26.5361 6.94722 26.9347 6.79063 27.4187 6.79063C27.9028 6.79063 28.3014 6.94722 28.6146 7.26042C28.9278 7.57361 29.0844 7.97222 29.0844 8.45625C29.0844 8.94028 28.9278 9.33889 28.6146 9.65208L27.4187 10.8479C28.5007 12.2715 29.3264 13.7948 29.8958 15.4177C30.4653 17.0406 30.75 18.7347 30.75 20.5C30.75 22.6069 30.344 24.5932 29.532 26.4587C28.7199 28.3242 27.6169 29.9539 26.2229 31.3479C24.8289 32.7419 23.1986 33.8455 21.332 34.6587C19.4653 35.4718 17.4797 35.8773 15.375 35.875ZM15.375 32.4583C18.6778 32.4583 21.4965 31.291 23.8313 28.9563C26.166 26.6215 27.3333 23.8028 27.3333 20.5C27.3333 17.1972 26.166 14.3785 23.8313 12.0438C21.4965 9.70903 18.6778 8.54167 15.375 8.54167C12.0722 8.54167 9.25347 9.70903 6.91875 12.0438C4.58403 14.3785 3.41667 17.1972 3.41667 20.5C3.41667 23.8028 4.58403 26.6215 6.91875 28.9563C9.25347 31.291 12.0722 32.4583 15.375 32.4583Z" fill="url(#paint0_linear_93_34232)"/>
<defs>
<linearGradient id="paint0_linear_93_34232" x1="15.375" y1="0" x2="15.375" y2="35.875" gradientUnits="userSpaceOnUse">
<stop stop-color="#0285FF"/>
<stop offset="1" stop-color="#1EEF32"/>
</linearGradient>
</defs>
</svg>
