<svg width="25" height="26" viewBox="0 0 25 26" fill="none" xmlns="http://www.w3.org/2000/svg">
<path d="M2.5 7.42857H20V4.95238H2.5V7.42857ZM2.5 24.7619C1.8125 24.7619 1.22396 24.5194 0.734375 24.0345C0.244792 23.5496 0 22.9667 0 22.2857V4.95238C0 4.27143 0.244792 3.68849 0.734375 3.20357C1.22396 2.71865 1.8125 2.47619 2.5 2.47619H3.75V0H6.25V2.47619H16.25V0H18.75V2.47619H20C20.6875 2.47619 21.276 2.71865 21.7656 3.20357C22.2552 3.68849 22.5 4.27143 22.5 4.95238V11.9786C22.1042 11.7929 21.6979 11.6381 21.2812 11.5143C20.8646 11.3905 20.4375 11.2976 20 11.2357V9.90476H2.5V22.2857H10.375C10.5208 22.7397 10.6927 23.173 10.8906 23.5857C11.0885 23.9984 11.3229 24.3905 11.5938 24.7619H2.5ZM18.75 26C17.0208 26 15.5469 25.3964 14.3281 24.1893C13.1094 22.9821 12.5 21.5222 12.5 19.8095C12.5 18.0968 13.1094 16.6369 14.3281 15.4298C15.5469 14.2226 17.0208 13.619 18.75 13.619C20.4792 13.619 21.9531 14.2226 23.1719 15.4298C24.3906 16.6369 25 18.0968 25 19.8095C25 21.5222 24.3906 22.9821 23.1719 24.1893C21.9531 25.3964 20.4792 26 18.75 26ZM20.8438 22.75L21.7188 21.8833L19.375 19.5619V16.0952H18.125V20.0571L20.8438 22.75Z" fill="#E8EAED"/>
</svg>
