<svg width="19" height="19" viewBox="0 0 19 19" fill="none" xmlns="http://www.w3.org/2000/svg">
<path d="M13.5 19V16.8173C12.618 16.5621 11.8667 16.0928 11.2462 15.4095C10.6257 14.7262 10.2463 13.923 10.1077 13H11.6077C11.7859 13.723 12.1602 14.3204 12.7308 14.7923C13.3012 15.2641 13.9743 15.5 14.75 15.5H17.75C18.0962 15.5 18.391 15.6218 18.6345 15.8655C18.8782 16.109 19 16.4038 19 16.75V19H13.5ZM16.25 14C15.7642 14 15.351 13.8298 15.0105 13.4895C14.6702 13.149 14.5 12.7358 14.5 12.25C14.5 11.7642 14.6702 11.351 15.0105 11.0105C15.351 10.6702 15.7642 10.5 16.25 10.5C16.7358 10.5 17.149 10.6702 17.4895 11.0105C17.8298 11.351 18 11.7642 18 12.25C18 12.7358 17.8298 13.149 17.4895 13.4895C17.149 13.8298 16.7358 14 16.25 14ZM6.88475 11.25C6.88475 9.032 7.66033 7.149 9.2115 5.601C10.7628 4.053 12.6474 3.279 14.8652 3.279V4.77875C13.0627 4.77875 11.532 5.40667 10.273 6.6625C9.014 7.91833 8.3845 9.4475 8.3845 11.25H6.88475ZM10.3845 11.25C10.3845 10.0077 10.8207 8.95033 11.6932 8.078C12.5658 7.2055 13.6231 6.76925 14.8652 6.76925V8.26925C14.0384 8.26925 13.3349 8.55933 12.7548 9.1395C12.1746 9.7195 11.8845 10.423 11.8845 11.25H10.3845ZM0 8.5V6.25C0 5.90383 0.121833 5.609 0.3655 5.3655C0.609 5.12183 0.903833 5 1.25 5H4.25C5.02567 5 5.69875 4.76408 6.26925 4.29225C6.83975 3.82058 7.21408 3.22317 7.39225 2.5H8.902C8.77633 3.41033 8.40167 4.21033 7.778 4.9C7.15417 5.58983 6.39483 6.06225 5.5 6.31725V8.5H0ZM2.75 3.5C2.26417 3.5 1.851 3.32983 1.5105 2.9895C1.17017 2.649 1 2.23583 1 1.75C1 1.26417 1.17017 0.851 1.5105 0.5105C1.851 0.170166 2.26417 0 2.75 0C3.23583 0 3.649 0.170166 3.9895 0.5105C4.32983 0.851 4.5 1.26417 4.5 1.75C4.5 2.23583 4.32983 2.649 3.9895 2.9895C3.649 3.32983 3.23583 3.5 2.75 3.5Z" fill="#E8EAED"/>
</svg>
