<svg width="19" height="19" viewBox="0 0 19 19" fill="none" xmlns="http://www.w3.org/2000/svg">
<path fill-rule="evenodd" clip-rule="evenodd" d="M6.67493 14.7964C6.67493 14.8708 6.58932 14.9304 6.48138 14.9304C6.35856 14.9415 6.27295 14.882 6.27295 14.7964C6.27295 14.7219 6.35856 14.6624 6.46649 14.6624C6.57816 14.6512 6.67493 14.7108 6.67493 14.7964ZM5.51742 14.6287C5.49137 14.7031 5.56581 14.7888 5.67747 14.8111C5.77424 14.8483 5.8859 14.8111 5.90823 14.7366C5.93056 14.6622 5.85985 14.5766 5.74819 14.5431C5.65141 14.517 5.54347 14.5543 5.51742 14.6287V14.6287ZM7.16255 14.5652C7.05462 14.5913 6.98018 14.662 6.99134 14.7476C7.00251 14.822 7.09928 14.8704 7.21094 14.8444C7.31888 14.8183 7.39332 14.7476 7.38215 14.6732C7.37099 14.6024 7.27049 14.5541 7.16255 14.5652ZM9.61164 0.302635C4.44919 0.302635 0.500122 4.22193 0.500122 9.38438C0.500122 13.5121 3.0981 17.0443 6.80896 18.2875C7.28538 18.3731 7.45287 18.079 7.45287 17.8371C7.45287 17.6063 7.4417 16.3334 7.4417 15.5518C7.4417 15.5518 4.83628 16.1101 4.28915 14.4426C4.28915 14.4426 3.86483 13.3595 3.25442 13.0804C3.25442 13.0804 2.40208 12.496 3.31397 12.5072C3.31397 12.5072 4.24076 12.5816 4.75068 13.4674C5.5658 14.9041 6.93178 14.491 7.46403 14.2453C7.54964 13.6498 7.79157 13.2367 8.05956 12.991C5.97895 12.7603 3.87972 12.4588 3.87972 8.87818C3.87972 7.85463 4.1626 7.34099 4.75812 6.68591C4.66135 6.44398 4.34498 5.44648 4.85489 4.15866C5.6328 3.91672 7.42309 5.1636 7.42309 5.1636C8.1675 4.95517 8.96773 4.84723 9.76053 4.84723C10.5533 4.84723 11.3536 4.95517 12.098 5.1636C12.098 5.1636 13.8883 3.913 14.6662 4.15866C15.1761 5.4502 14.8597 6.44398 14.7629 6.68591C15.3585 7.34471 15.7232 7.85835 15.7232 8.87818C15.7232 12.4699 13.5309 12.7565 11.4503 12.991C11.7928 13.2851 12.0831 13.8434 12.0831 14.718C12.0831 15.9724 12.0719 17.5245 12.0719 17.8297C12.0719 18.0716 12.2431 18.3656 12.7158 18.28C16.4378 17.0443 18.9614 13.5121 18.9614 9.38438C18.9614 4.22193 14.7741 0.302635 9.61164 0.302635ZM4.1179 13.1399C4.06951 13.1771 4.08067 13.2627 4.14395 13.3334C4.2035 13.393 4.28911 13.419 4.33749 13.3706C4.38588 13.3334 4.37472 13.2478 4.31144 13.1771C4.25189 13.1175 4.16628 13.0915 4.1179 13.1399ZM3.71593 12.8384C3.68988 12.8868 3.7271 12.9464 3.80154 12.9836C3.86109 13.0208 3.93553 13.0097 3.96159 12.9575C3.98764 12.9092 3.95042 12.8496 3.87598 12.8124C3.80154 12.7901 3.74199 12.8012 3.71593 12.8384ZM4.92187 14.1635C4.86231 14.2118 4.88465 14.3235 4.97025 14.3942C5.05586 14.4798 5.1638 14.491 5.21218 14.4314C5.26057 14.3831 5.23824 14.2714 5.1638 14.2007C5.08191 14.1151 4.97025 14.1039 4.92187 14.1635ZM4.49755 13.6163C4.43799 13.6535 4.43799 13.7503 4.49755 13.8359C4.5571 13.9215 4.65759 13.9587 4.70598 13.9215C4.76553 13.8731 4.76553 13.7764 4.70598 13.6908C4.65387 13.6051 4.5571 13.5679 4.49755 13.6163V13.6163Z" fill="black"/>
</svg>
