<svg width="560" height="550" viewBox="0 0 560 550" fill="none" xmlns="http://www.w3.org/2000/svg">
<g opacity="0.2">
<g opacity="0.8">
<path fill-rule="evenodd" clip-rule="evenodd" d="M0 534H28L28 542L0 534Z" fill="url(#paint0_linear_662_77)"/>
<rect y="8" width="28" height="526" fill="url(#paint1_linear_662_77)"/>
</g>
<g opacity="0.6">
<path fill-rule="evenodd" clip-rule="evenodd" d="M56 534H28L28 542L56 534Z" fill="url(#paint2_linear_662_77)"/>
<rect width="28" height="526" transform="matrix(-1 0 0 1 56 8)" fill="url(#paint3_linear_662_77)"/>
</g>
<rect width="29.1204" height="29.1204" transform="matrix(0.961524 0.274721 -0.961524 0.274721 28 0)" fill="url(#paint4_linear_662_77)"/>
</g>
<g opacity="0.8">
<path fill-rule="evenodd" clip-rule="evenodd" d="M0 534H28L28 542L0 534Z" fill="url(#paint5_linear_662_77)"/>
<rect y="162" width="28" height="372" fill="url(#paint6_linear_662_77)"/>
</g>
<g opacity="0.6">
<path fill-rule="evenodd" clip-rule="evenodd" d="M56 534H28L28 542L56 534Z" fill="url(#paint7_linear_662_77)"/>
<rect width="28" height="372" transform="matrix(-1 0 0 1 56 162)" fill="url(#paint8_linear_662_77)"/>
</g>
<rect width="29.1204" height="29.1204" transform="matrix(0.961524 0.274721 -0.961524 0.274721 28 154)" fill="url(#paint9_linear_662_77)"/>
<g opacity="0.2">
<g opacity="0.8">
<path fill-rule="evenodd" clip-rule="evenodd" d="M72 534V534H100L100 542L72 534Z" fill="url(#paint10_linear_662_77)"/>
<rect x="72" y="8" width="28" height="526" fill="url(#paint11_linear_662_77)"/>
</g>
<g opacity="0.6">
<path fill-rule="evenodd" clip-rule="evenodd" d="M128 534V534H100L100 542L128 534Z" fill="url(#paint12_linear_662_77)"/>
<rect width="28" height="526" transform="matrix(-1 0 0 1 128 8)" fill="url(#paint13_linear_662_77)"/>
</g>
<rect width="29.1204" height="29.1204" transform="matrix(0.961524 0.274721 -0.961524 0.274721 100 0)" fill="url(#paint14_linear_662_77)"/>
</g>
<g opacity="0.8">
<path fill-rule="evenodd" clip-rule="evenodd" d="M72 534L100 534L100 542L72 534Z" fill="url(#paint15_linear_662_77)"/>
<rect x="72" y="483" width="28" height="51" fill="url(#paint16_linear_662_77)"/>
</g>
<g opacity="0.6">
<path fill-rule="evenodd" clip-rule="evenodd" d="M128 534L100 534L100 542L128 534Z" fill="url(#paint17_linear_662_77)"/>
<rect width="28" height="51" transform="matrix(-1 0 0 1 128 483)" fill="url(#paint18_linear_662_77)"/>
</g>
<rect width="29.1204" height="29.1204" transform="matrix(0.961524 0.274721 -0.961524 0.274721 100 475)" fill="url(#paint19_linear_662_77)"/>
<g opacity="0.2">
<g opacity="0.8">
<path fill-rule="evenodd" clip-rule="evenodd" d="M144 534V534H172L172 542L144 534Z" fill="url(#paint20_linear_662_77)"/>
<rect x="144" y="8" width="28" height="526" fill="url(#paint21_linear_662_77)"/>
</g>
<g opacity="0.6">
<path fill-rule="evenodd" clip-rule="evenodd" d="M200 534V534H172L172 542L200 534Z" fill="url(#paint22_linear_662_77)"/>
<rect width="28" height="526" transform="matrix(-1 0 0 1 200 8)" fill="url(#paint23_linear_662_77)"/>
</g>
<rect width="29.1204" height="29.1204" transform="matrix(0.961524 0.274721 -0.961524 0.274721 172 0)" fill="url(#paint24_linear_662_77)"/>
</g>
<g opacity="0.8">
<path fill-rule="evenodd" clip-rule="evenodd" d="M144 534L172 542L172 534L144 534Z" fill="url(#paint25_linear_662_77)"/>
<rect x="144" y="516" width="28" height="18" fill="url(#paint26_linear_662_77)"/>
</g>
<g opacity="0.6">
<path fill-rule="evenodd" clip-rule="evenodd" d="M200 534L172 542L172 534L200 534Z" fill="url(#paint27_linear_662_77)"/>
<rect width="28" height="18" transform="matrix(-1 0 0 1 200 516)" fill="url(#paint28_linear_662_77)"/>
</g>
<rect width="29.1204" height="29.1204" transform="matrix(0.961524 0.274721 -0.961524 0.274721 172 508)" fill="url(#paint29_linear_662_77)"/>
<g opacity="0.2">
<g opacity="0.8">
<path fill-rule="evenodd" clip-rule="evenodd" d="M216 534V534H244L244 542L216 534Z" fill="url(#paint30_linear_662_77)"/>
<rect x="216" y="8" width="28" height="526" fill="url(#paint31_linear_662_77)"/>
</g>
<g opacity="0.6">
<path fill-rule="evenodd" clip-rule="evenodd" d="M272 534V534H244L244 542L272 534Z" fill="url(#paint32_linear_662_77)"/>
<rect width="28" height="526" transform="matrix(-1 0 0 1 272 8)" fill="url(#paint33_linear_662_77)"/>
</g>
<rect width="29.1204" height="29.1204" transform="matrix(0.961524 0.274721 -0.961524 0.274721 244 0)" fill="url(#paint34_linear_662_77)"/>
</g>
<g opacity="0.8">
<path fill-rule="evenodd" clip-rule="evenodd" d="M216 534V534H244L244 542L216 534Z" fill="url(#paint35_linear_662_77)"/>
<rect x="216" y="516" width="28" height="18" fill="url(#paint36_linear_662_77)"/>
</g>
<g opacity="0.6">
<path fill-rule="evenodd" clip-rule="evenodd" d="M272 534V534H244L244 542L272 534Z" fill="url(#paint37_linear_662_77)"/>
<rect width="28" height="18" transform="matrix(-1 0 0 1 272 516)" fill="url(#paint38_linear_662_77)"/>
</g>
<rect width="29.1204" height="29.1204" transform="matrix(0.961524 0.274721 -0.961524 0.274721 244 508)" fill="url(#paint39_linear_662_77)"/>
<g opacity="0.2">
<g opacity="0.8">
<path fill-rule="evenodd" clip-rule="evenodd" d="M288 534V534H316L316 542L288 534Z" fill="url(#paint40_linear_662_77)"/>
<rect x="288" y="8" width="28" height="526" fill="url(#paint41_linear_662_77)"/>
</g>
<g opacity="0.6">
<path fill-rule="evenodd" clip-rule="evenodd" d="M344 534V534H316L316 542L344 534Z" fill="url(#paint42_linear_662_77)"/>
<rect width="28" height="526" transform="matrix(-1 0 0 1 344 8)" fill="url(#paint43_linear_662_77)"/>
</g>
<rect width="29.1204" height="29.1204" transform="matrix(0.961524 0.274721 -0.961524 0.274721 316 0)" fill="url(#paint44_linear_662_77)"/>
</g>
<g opacity="0.8">
<path fill-rule="evenodd" clip-rule="evenodd" d="M288 534V534H316L316 542L288 534Z" fill="url(#paint45_linear_662_77)"/>
<rect x="288" y="525" width="28" height="9" fill="url(#paint46_linear_662_77)"/>
</g>
<g opacity="0.6">
<path fill-rule="evenodd" clip-rule="evenodd" d="M344 534V534H316L316 542L344 534Z" fill="url(#paint47_linear_662_77)"/>
<rect width="28" height="9" transform="matrix(-1 0 0 1 344 525)" fill="url(#paint48_linear_662_77)"/>
</g>
<rect width="29.1204" height="29.1204" transform="matrix(0.961524 0.274721 -0.961524 0.274721 316 517)" fill="url(#paint49_linear_662_77)"/>
<g opacity="0.2">
<g opacity="0.8">
<path fill-rule="evenodd" clip-rule="evenodd" d="M360 534V534H388L388 542L360 534Z" fill="url(#paint50_linear_662_77)"/>
<rect x="360" y="8" width="28" height="526" fill="url(#paint51_linear_662_77)"/>
</g>
<g opacity="0.6">
<path fill-rule="evenodd" clip-rule="evenodd" d="M416 534V534H388L388 542L416 534Z" fill="url(#paint52_linear_662_77)"/>
<rect width="28" height="526" transform="matrix(-1 0 0 1 416 8)" fill="url(#paint53_linear_662_77)"/>
</g>
<rect width="29.1204" height="29.1204" transform="matrix(0.961524 0.274721 -0.961524 0.274721 388 0)" fill="url(#paint54_linear_662_77)"/>
</g>
<g opacity="0.8">
<path fill-rule="evenodd" clip-rule="evenodd" d="M360 534V534H388L388 542L360 534Z" fill="url(#paint55_linear_662_77)"/>
<rect x="360" y="528" width="28" height="6" fill="url(#paint56_linear_662_77)"/>
</g>
<g opacity="0.6">
<path fill-rule="evenodd" clip-rule="evenodd" d="M416 534V534H388L388 542L416 534Z" fill="url(#paint57_linear_662_77)"/>
<rect width="28" height="6" transform="matrix(-1 0 0 1 416 528)" fill="url(#paint58_linear_662_77)"/>
</g>
<rect width="29.1204" height="29.1204" transform="matrix(0.961524 0.274721 -0.961524 0.274721 388 520)" fill="url(#paint59_linear_662_77)"/>
<g opacity="0.2">
<g opacity="0.8">
<path fill-rule="evenodd" clip-rule="evenodd" d="M432 534V534H460L460 542L432 534Z" fill="url(#paint60_linear_662_77)"/>
<rect x="432" y="8" width="28" height="526" fill="url(#paint61_linear_662_77)"/>
</g>
<g opacity="0.6">
<path fill-rule="evenodd" clip-rule="evenodd" d="M488 534V534H460L460 542L488 534Z" fill="url(#paint62_linear_662_77)"/>
<rect width="28" height="526" transform="matrix(-1 0 0 1 488 8)" fill="url(#paint63_linear_662_77)"/>
</g>
<rect width="29.1204" height="29.1204" transform="matrix(0.961524 0.274721 -0.961524 0.274721 460 0)" fill="url(#paint64_linear_662_77)"/>
</g>
<g opacity="0.8">
<path fill-rule="evenodd" clip-rule="evenodd" d="M432 534V534H460L460 542L432 534Z" fill="url(#paint65_linear_662_77)"/>
<rect x="432" y="528" width="28" height="6" fill="url(#paint66_linear_662_77)"/>
</g>
<g opacity="0.6">
<path fill-rule="evenodd" clip-rule="evenodd" d="M488 534V534H460L460 542L488 534Z" fill="url(#paint67_linear_662_77)"/>
<rect width="28" height="6" transform="matrix(-1 0 0 1 488 528)" fill="url(#paint68_linear_662_77)"/>
</g>
<rect width="29.1204" height="29.1204" transform="matrix(0.961524 0.274721 -0.961524 0.274721 460 520)" fill="url(#paint69_linear_662_77)"/>
<g opacity="0.2">
<g opacity="0.8">
<path fill-rule="evenodd" clip-rule="evenodd" d="M504 534V534H532L532 542L504 534Z" fill="url(#paint70_linear_662_77)"/>
<rect x="504" y="8" width="28" height="526" fill="url(#paint71_linear_662_77)"/>
</g>
<g opacity="0.6">
<path fill-rule="evenodd" clip-rule="evenodd" d="M560 534V534H532L532 542L560 534Z" fill="url(#paint72_linear_662_77)"/>
<rect width="28" height="526" transform="matrix(-1 0 0 1 560 8)" fill="url(#paint73_linear_662_77)"/>
</g>
<rect width="29.1204" height="29.1204" transform="matrix(0.961524 0.274721 -0.961524 0.274721 532 0)" fill="url(#paint74_linear_662_77)"/>
</g>
<g opacity="0.8">
<path fill-rule="evenodd" clip-rule="evenodd" d="M504 534V534H532L532 542L504 534Z" fill="url(#paint75_linear_662_77)"/>
<rect x="504" y="531" width="28" height="3" fill="url(#paint76_linear_662_77)"/>
</g>
<g opacity="0.6">
<path fill-rule="evenodd" clip-rule="evenodd" d="M560 534V534H532L532 542L560 534Z" fill="url(#paint77_linear_662_77)"/>
<rect width="28" height="3" transform="matrix(-1 0 0 1 560 531)" fill="url(#paint78_linear_662_77)"/>
</g>
<rect width="29.1204" height="29.1204" transform="matrix(0.961524 0.274721 -0.961524 0.274721 532 523)" fill="url(#paint79_linear_662_77)"/>
<defs>
<linearGradient id="paint0_linear_662_77" x1="14" y1="534" x2="14" y2="542" gradientUnits="userSpaceOnUse">
<stop stop-color="#0285FF"/>
<stop offset="1" stop-color="#1EEF32"/>
</linearGradient>
<linearGradient id="paint1_linear_662_77" x1="14" y1="8" x2="14" y2="534" gradientUnits="userSpaceOnUse">
<stop stop-color="#0285FF"/>
<stop offset="1" stop-color="#1EEF32"/>
</linearGradient>
<linearGradient id="paint2_linear_662_77" x1="42" y1="534" x2="42" y2="542" gradientUnits="userSpaceOnUse">
<stop stop-color="#0285FF"/>
<stop offset="1" stop-color="#1EEF32"/>
</linearGradient>
<linearGradient id="paint3_linear_662_77" x1="14" y1="0" x2="14" y2="526" gradientUnits="userSpaceOnUse">
<stop stop-color="#0285FF"/>
<stop offset="1" stop-color="#1EEF32"/>
</linearGradient>
<linearGradient id="paint4_linear_662_77" x1="14.5602" y1="0" x2="14.5602" y2="29.1204" gradientUnits="userSpaceOnUse">
<stop stop-color="#0285FF"/>
<stop offset="1" stop-color="#1EEF32"/>
</linearGradient>
<linearGradient id="paint5_linear_662_77" x1="14" y1="534" x2="14" y2="542" gradientUnits="userSpaceOnUse">
<stop stop-color="#0285FF"/>
<stop offset="1" stop-color="#1EEF32"/>
</linearGradient>
<linearGradient id="paint6_linear_662_77" x1="14" y1="162" x2="14" y2="534" gradientUnits="userSpaceOnUse">
<stop stop-color="#0285FF"/>
<stop offset="1" stop-color="#1EEF32"/>
</linearGradient>
<linearGradient id="paint7_linear_662_77" x1="42" y1="534" x2="42" y2="542" gradientUnits="userSpaceOnUse">
<stop stop-color="#0285FF"/>
<stop offset="1" stop-color="#1EEF32"/>
</linearGradient>
<linearGradient id="paint8_linear_662_77" x1="14" y1="0" x2="14" y2="372" gradientUnits="userSpaceOnUse">
<stop stop-color="#0285FF"/>
<stop offset="1" stop-color="#1EEF32"/>
</linearGradient>
<linearGradient id="paint9_linear_662_77" x1="14.5602" y1="0" x2="14.5602" y2="29.1204" gradientUnits="userSpaceOnUse">
<stop stop-color="#0285FF"/>
<stop offset="1" stop-color="#1EEF32"/>
</linearGradient>
<linearGradient id="paint10_linear_662_77" x1="86" y1="534" x2="86" y2="542" gradientUnits="userSpaceOnUse">
<stop stop-color="#0285FF"/>
<stop offset="1" stop-color="#1EEF32"/>
</linearGradient>
<linearGradient id="paint11_linear_662_77" x1="86" y1="8" x2="86" y2="534" gradientUnits="userSpaceOnUse">
<stop stop-color="#0285FF"/>
<stop offset="1" stop-color="#1EEF32"/>
</linearGradient>
<linearGradient id="paint12_linear_662_77" x1="114" y1="534" x2="114" y2="542" gradientUnits="userSpaceOnUse">
<stop stop-color="#0285FF"/>
<stop offset="1" stop-color="#1EEF32"/>
</linearGradient>
<linearGradient id="paint13_linear_662_77" x1="14" y1="0" x2="14" y2="526" gradientUnits="userSpaceOnUse">
<stop stop-color="#0285FF"/>
<stop offset="1" stop-color="#1EEF32"/>
</linearGradient>
<linearGradient id="paint14_linear_662_77" x1="14.5602" y1="0" x2="14.5602" y2="29.1204" gradientUnits="userSpaceOnUse">
<stop stop-color="#0285FF"/>
<stop offset="1" stop-color="#1EEF32"/>
</linearGradient>
<linearGradient id="paint15_linear_662_77" x1="86" y1="534" x2="86" y2="542" gradientUnits="userSpaceOnUse">
<stop stop-color="#0285FF"/>
<stop offset="1" stop-color="#1EEF32"/>
</linearGradient>
<linearGradient id="paint16_linear_662_77" x1="86" y1="483" x2="86" y2="534" gradientUnits="userSpaceOnUse">
<stop stop-color="#0285FF"/>
<stop offset="1" stop-color="#1EEF32"/>
</linearGradient>
<linearGradient id="paint17_linear_662_77" x1="114" y1="534" x2="114" y2="542" gradientUnits="userSpaceOnUse">
<stop stop-color="#0285FF"/>
<stop offset="1" stop-color="#1EEF32"/>
</linearGradient>
<linearGradient id="paint18_linear_662_77" x1="14" y1="0" x2="14" y2="51" gradientUnits="userSpaceOnUse">
<stop stop-color="#0285FF"/>
<stop offset="1" stop-color="#1EEF32"/>
</linearGradient>
<linearGradient id="paint19_linear_662_77" x1="14.5602" y1="0" x2="14.5602" y2="29.1204" gradientUnits="userSpaceOnUse">
<stop stop-color="#0285FF"/>
<stop offset="1" stop-color="#1EEF32"/>
</linearGradient>
<linearGradient id="paint20_linear_662_77" x1="158" y1="534" x2="158" y2="542" gradientUnits="userSpaceOnUse">
<stop stop-color="#0285FF"/>
<stop offset="1" stop-color="#1EEF32"/>
</linearGradient>
<linearGradient id="paint21_linear_662_77" x1="158" y1="8" x2="158" y2="534" gradientUnits="userSpaceOnUse">
<stop stop-color="#0285FF"/>
<stop offset="1" stop-color="#1EEF32"/>
</linearGradient>
<linearGradient id="paint22_linear_662_77" x1="186" y1="534" x2="186" y2="542" gradientUnits="userSpaceOnUse">
<stop stop-color="#0285FF"/>
<stop offset="1" stop-color="#1EEF32"/>
</linearGradient>
<linearGradient id="paint23_linear_662_77" x1="14" y1="0" x2="14" y2="526" gradientUnits="userSpaceOnUse">
<stop stop-color="#0285FF"/>
<stop offset="1" stop-color="#1EEF32"/>
</linearGradient>
<linearGradient id="paint24_linear_662_77" x1="14.5602" y1="0" x2="14.5602" y2="29.1204" gradientUnits="userSpaceOnUse">
<stop stop-color="#0285FF"/>
<stop offset="1" stop-color="#1EEF32"/>
</linearGradient>
<linearGradient id="paint25_linear_662_77" x1="158" y1="534" x2="158" y2="542" gradientUnits="userSpaceOnUse">
<stop stop-color="#0285FF"/>
<stop offset="1" stop-color="#1EEF32"/>
</linearGradient>
<linearGradient id="paint26_linear_662_77" x1="158" y1="516" x2="158" y2="534" gradientUnits="userSpaceOnUse">
<stop stop-color="#0285FF"/>
<stop offset="1" stop-color="#1EEF32"/>
</linearGradient>
<linearGradient id="paint27_linear_662_77" x1="186" y1="534" x2="186" y2="542" gradientUnits="userSpaceOnUse">
<stop stop-color="#0285FF"/>
<stop offset="1" stop-color="#1EEF32"/>
</linearGradient>
<linearGradient id="paint28_linear_662_77" x1="14" y1="0" x2="14" y2="18" gradientUnits="userSpaceOnUse">
<stop stop-color="#0285FF"/>
<stop offset="1" stop-color="#1EEF32"/>
</linearGradient>
<linearGradient id="paint29_linear_662_77" x1="14.5602" y1="0" x2="14.5602" y2="29.1204" gradientUnits="userSpaceOnUse">
<stop stop-color="#0285FF"/>
<stop offset="1" stop-color="#1EEF32"/>
</linearGradient>
<linearGradient id="paint30_linear_662_77" x1="230" y1="534" x2="230" y2="542" gradientUnits="userSpaceOnUse">
<stop stop-color="#0285FF"/>
<stop offset="1" stop-color="#1EEF32"/>
</linearGradient>
<linearGradient id="paint31_linear_662_77" x1="230" y1="8" x2="230" y2="534" gradientUnits="userSpaceOnUse">
<stop stop-color="#0285FF"/>
<stop offset="1" stop-color="#1EEF32"/>
</linearGradient>
<linearGradient id="paint32_linear_662_77" x1="258" y1="534" x2="258" y2="542" gradientUnits="userSpaceOnUse">
<stop stop-color="#0285FF"/>
<stop offset="1" stop-color="#1EEF32"/>
</linearGradient>
<linearGradient id="paint33_linear_662_77" x1="14" y1="0" x2="14" y2="526" gradientUnits="userSpaceOnUse">
<stop stop-color="#0285FF"/>
<stop offset="1" stop-color="#1EEF32"/>
</linearGradient>
<linearGradient id="paint34_linear_662_77" x1="14.5602" y1="0" x2="14.5602" y2="29.1204" gradientUnits="userSpaceOnUse">
<stop stop-color="#0285FF"/>
<stop offset="1" stop-color="#1EEF32"/>
</linearGradient>
<linearGradient id="paint35_linear_662_77" x1="230" y1="534" x2="230" y2="542" gradientUnits="userSpaceOnUse">
<stop stop-color="#0285FF"/>
<stop offset="1" stop-color="#1EEF32"/>
</linearGradient>
<linearGradient id="paint36_linear_662_77" x1="230" y1="516" x2="230" y2="534" gradientUnits="userSpaceOnUse">
<stop stop-color="#0285FF"/>
<stop offset="1" stop-color="#1EEF32"/>
</linearGradient>
<linearGradient id="paint37_linear_662_77" x1="258" y1="534" x2="258" y2="542" gradientUnits="userSpaceOnUse">
<stop stop-color="#0285FF"/>
<stop offset="1" stop-color="#1EEF32"/>
</linearGradient>
<linearGradient id="paint38_linear_662_77" x1="14" y1="0" x2="14" y2="18" gradientUnits="userSpaceOnUse">
<stop stop-color="#0285FF"/>
<stop offset="1" stop-color="#1EEF32"/>
</linearGradient>
<linearGradient id="paint39_linear_662_77" x1="14.5602" y1="0" x2="14.5602" y2="29.1204" gradientUnits="userSpaceOnUse">
<stop stop-color="#0285FF"/>
<stop offset="1" stop-color="#1EEF32"/>
</linearGradient>
<linearGradient id="paint40_linear_662_77" x1="302" y1="534" x2="302" y2="542" gradientUnits="userSpaceOnUse">
<stop stop-color="#0285FF"/>
<stop offset="1" stop-color="#1EEF32"/>
</linearGradient>
<linearGradient id="paint41_linear_662_77" x1="302" y1="8" x2="302" y2="534" gradientUnits="userSpaceOnUse">
<stop stop-color="#0285FF"/>
<stop offset="1" stop-color="#1EEF32"/>
</linearGradient>
<linearGradient id="paint42_linear_662_77" x1="330" y1="534" x2="330" y2="542" gradientUnits="userSpaceOnUse">
<stop stop-color="#0285FF"/>
<stop offset="1" stop-color="#1EEF32"/>
</linearGradient>
<linearGradient id="paint43_linear_662_77" x1="14" y1="0" x2="14" y2="526" gradientUnits="userSpaceOnUse">
<stop stop-color="#0285FF"/>
<stop offset="1" stop-color="#1EEF32"/>
</linearGradient>
<linearGradient id="paint44_linear_662_77" x1="14.5602" y1="0" x2="14.5602" y2="29.1204" gradientUnits="userSpaceOnUse">
<stop stop-color="#0285FF"/>
<stop offset="1" stop-color="#1EEF32"/>
</linearGradient>
<linearGradient id="paint45_linear_662_77" x1="302" y1="534" x2="302" y2="542" gradientUnits="userSpaceOnUse">
<stop stop-color="#0285FF"/>
<stop offset="1" stop-color="#1EEF32"/>
</linearGradient>
<linearGradient id="paint46_linear_662_77" x1="302" y1="525" x2="302" y2="534" gradientUnits="userSpaceOnUse">
<stop stop-color="#0285FF"/>
<stop offset="1" stop-color="#1EEF32"/>
</linearGradient>
<linearGradient id="paint47_linear_662_77" x1="330" y1="534" x2="330" y2="542" gradientUnits="userSpaceOnUse">
<stop stop-color="#0285FF"/>
<stop offset="1" stop-color="#1EEF32"/>
</linearGradient>
<linearGradient id="paint48_linear_662_77" x1="14" y1="0" x2="14" y2="9" gradientUnits="userSpaceOnUse">
<stop stop-color="#0285FF"/>
<stop offset="1" stop-color="#1EEF32"/>
</linearGradient>
<linearGradient id="paint49_linear_662_77" x1="14.5602" y1="0" x2="14.5602" y2="29.1204" gradientUnits="userSpaceOnUse">
<stop stop-color="#0285FF"/>
<stop offset="1" stop-color="#1EEF32"/>
</linearGradient>
<linearGradient id="paint50_linear_662_77" x1="374" y1="534" x2="374" y2="542" gradientUnits="userSpaceOnUse">
<stop stop-color="#0285FF"/>
<stop offset="1" stop-color="#1EEF32"/>
</linearGradient>
<linearGradient id="paint51_linear_662_77" x1="374" y1="8" x2="374" y2="534" gradientUnits="userSpaceOnUse">
<stop stop-color="#0285FF"/>
<stop offset="1" stop-color="#1EEF32"/>
</linearGradient>
<linearGradient id="paint52_linear_662_77" x1="402" y1="534" x2="402" y2="542" gradientUnits="userSpaceOnUse">
<stop stop-color="#0285FF"/>
<stop offset="1" stop-color="#1EEF32"/>
</linearGradient>
<linearGradient id="paint53_linear_662_77" x1="14" y1="0" x2="14" y2="526" gradientUnits="userSpaceOnUse">
<stop stop-color="#0285FF"/>
<stop offset="1" stop-color="#1EEF32"/>
</linearGradient>
<linearGradient id="paint54_linear_662_77" x1="14.5602" y1="0" x2="14.5602" y2="29.1204" gradientUnits="userSpaceOnUse">
<stop stop-color="#0285FF"/>
<stop offset="1" stop-color="#1EEF32"/>
</linearGradient>
<linearGradient id="paint55_linear_662_77" x1="374" y1="534" x2="374" y2="542" gradientUnits="userSpaceOnUse">
<stop stop-color="#0285FF"/>
<stop offset="1" stop-color="#1EEF32"/>
</linearGradient>
<linearGradient id="paint56_linear_662_77" x1="374" y1="528" x2="374" y2="534" gradientUnits="userSpaceOnUse">
<stop stop-color="#0285FF"/>
<stop offset="1" stop-color="#1EEF32"/>
</linearGradient>
<linearGradient id="paint57_linear_662_77" x1="402" y1="534" x2="402" y2="542" gradientUnits="userSpaceOnUse">
<stop stop-color="#0285FF"/>
<stop offset="1" stop-color="#1EEF32"/>
</linearGradient>
<linearGradient id="paint58_linear_662_77" x1="14" y1="0" x2="14" y2="6" gradientUnits="userSpaceOnUse">
<stop stop-color="#0285FF"/>
<stop offset="1" stop-color="#1EEF32"/>
</linearGradient>
<linearGradient id="paint59_linear_662_77" x1="14.5602" y1="0" x2="14.5602" y2="29.1204" gradientUnits="userSpaceOnUse">
<stop stop-color="#0285FF"/>
<stop offset="1" stop-color="#1EEF32"/>
</linearGradient>
<linearGradient id="paint60_linear_662_77" x1="446" y1="534" x2="446" y2="542" gradientUnits="userSpaceOnUse">
<stop stop-color="#0285FF"/>
<stop offset="1" stop-color="#1EEF32"/>
</linearGradient>
<linearGradient id="paint61_linear_662_77" x1="446" y1="8" x2="446" y2="534" gradientUnits="userSpaceOnUse">
<stop stop-color="#0285FF"/>
<stop offset="1" stop-color="#1EEF32"/>
</linearGradient>
<linearGradient id="paint62_linear_662_77" x1="474" y1="534" x2="474" y2="542" gradientUnits="userSpaceOnUse">
<stop stop-color="#0285FF"/>
<stop offset="1" stop-color="#1EEF32"/>
</linearGradient>
<linearGradient id="paint63_linear_662_77" x1="14" y1="0" x2="14" y2="526" gradientUnits="userSpaceOnUse">
<stop stop-color="#0285FF"/>
<stop offset="1" stop-color="#1EEF32"/>
</linearGradient>
<linearGradient id="paint64_linear_662_77" x1="14.5602" y1="0" x2="14.5602" y2="29.1204" gradientUnits="userSpaceOnUse">
<stop stop-color="#0285FF"/>
<stop offset="1" stop-color="#1EEF32"/>
</linearGradient>
<linearGradient id="paint65_linear_662_77" x1="446" y1="534" x2="446" y2="542" gradientUnits="userSpaceOnUse">
<stop stop-color="#0285FF"/>
<stop offset="1" stop-color="#1EEF32"/>
</linearGradient>
<linearGradient id="paint66_linear_662_77" x1="446" y1="528" x2="446" y2="534" gradientUnits="userSpaceOnUse">
<stop stop-color="#0285FF"/>
<stop offset="1" stop-color="#1EEF32"/>
</linearGradient>
<linearGradient id="paint67_linear_662_77" x1="474" y1="534" x2="474" y2="542" gradientUnits="userSpaceOnUse">
<stop stop-color="#0285FF"/>
<stop offset="1" stop-color="#1EEF32"/>
</linearGradient>
<linearGradient id="paint68_linear_662_77" x1="14" y1="0" x2="14" y2="6" gradientUnits="userSpaceOnUse">
<stop stop-color="#0285FF"/>
<stop offset="1" stop-color="#1EEF32"/>
</linearGradient>
<linearGradient id="paint69_linear_662_77" x1="14.5602" y1="0" x2="14.5602" y2="29.1204" gradientUnits="userSpaceOnUse">
<stop stop-color="#0285FF"/>
<stop offset="1" stop-color="#1EEF32"/>
</linearGradient>
<linearGradient id="paint70_linear_662_77" x1="518" y1="534" x2="518" y2="542" gradientUnits="userSpaceOnUse">
<stop stop-color="#0285FF"/>
<stop offset="1" stop-color="#1EEF32"/>
</linearGradient>
<linearGradient id="paint71_linear_662_77" x1="518" y1="8" x2="518" y2="534" gradientUnits="userSpaceOnUse">
<stop stop-color="#0285FF"/>
<stop offset="1" stop-color="#1EEF32"/>
</linearGradient>
<linearGradient id="paint72_linear_662_77" x1="546" y1="534" x2="546" y2="542" gradientUnits="userSpaceOnUse">
<stop stop-color="#0285FF"/>
<stop offset="1" stop-color="#1EEF32"/>
</linearGradient>
<linearGradient id="paint73_linear_662_77" x1="14" y1="0" x2="14" y2="526" gradientUnits="userSpaceOnUse">
<stop stop-color="#0285FF"/>
<stop offset="1" stop-color="#1EEF32"/>
</linearGradient>
<linearGradient id="paint74_linear_662_77" x1="14.5602" y1="0" x2="14.5602" y2="29.1204" gradientUnits="userSpaceOnUse">
<stop stop-color="#0285FF"/>
<stop offset="1" stop-color="#1EEF32"/>
</linearGradient>
<linearGradient id="paint75_linear_662_77" x1="518" y1="534" x2="518" y2="542" gradientUnits="userSpaceOnUse">
<stop stop-color="#0285FF"/>
<stop offset="1" stop-color="#1EEF32"/>
</linearGradient>
<linearGradient id="paint76_linear_662_77" x1="518" y1="531" x2="518" y2="534" gradientUnits="userSpaceOnUse">
<stop stop-color="#0285FF"/>
<stop offset="1" stop-color="#1EEF32"/>
</linearGradient>
<linearGradient id="paint77_linear_662_77" x1="546" y1="534" x2="546" y2="542" gradientUnits="userSpaceOnUse">
<stop stop-color="#0285FF"/>
<stop offset="1" stop-color="#1EEF32"/>
</linearGradient>
<linearGradient id="paint78_linear_662_77" x1="14" y1="0" x2="14" y2="3" gradientUnits="userSpaceOnUse">
<stop stop-color="#0285FF"/>
<stop offset="1" stop-color="#1EEF32"/>
</linearGradient>
<linearGradient id="paint79_linear_662_77" x1="14.5602" y1="0" x2="14.5602" y2="29.1204" gradientUnits="userSpaceOnUse">
<stop stop-color="#0285FF"/>
<stop offset="1" stop-color="#1EEF32"/>
</linearGradient>
</defs>
</svg>
