<svg width="24" height="24" viewBox="0 0 24 24" fill="none" xmlns="http://www.w3.org/2000/svg">
<path d="M6.05 2.81818C5.375 2.81818 4.83125 3.19697 4.41875 3.95455C4.00625 4.71212 3.8 5.54545 3.8 6.45455C3.8 7.40909 3.93125 8.25379 4.19375 8.98864C4.45625 9.72348 4.7 10.2727 4.925 10.6364L7.4 10.1364C7.595 9.65152 7.79375 9.09848 7.99625 8.47727C8.19875 7.85606 8.3 7.18182 8.3 6.45455C8.3 5.54545 8.09375 4.71212 7.68125 3.95455C7.26875 3.19697 6.725 2.81818 6.05 2.81818ZM7.2875 14.6364C7.5725 14.6364 7.8125 14.5303 8.0075 14.3182C8.2025 14.1061 8.3 13.8106 8.3 13.4318C8.3 13.1742 8.24 12.9091 8.12 12.6364C8 12.3636 7.88 12.1212 7.76 11.9091L5.6 12.3636C5.6 12.9697 5.73125 13.5 5.99375 13.9545C6.25625 14.4091 6.6875 14.6364 7.2875 14.6364ZM15.95 7.36364C15.275 7.36364 14.7313 7.74242 14.3188 8.5C13.9062 9.25758 13.7 10.0909 13.7 11C13.7 11.7273 13.8013 12.3977 14.0038 13.0114C14.2063 13.625 14.405 14.1818 14.6 14.6818L17.075 15.1818C17.3 14.8182 17.5438 14.2727 17.8063 13.5455C18.0688 12.8182 18.2 11.9697 18.2 11C18.2 10.0909 17.9938 9.25758 17.5813 8.5C17.1688 7.74242 16.625 7.36364 15.95 7.36364ZM14.7125 19.1818C15.3125 19.1818 15.7438 18.9545 16.0063 18.5C16.2688 18.0455 16.4 17.5152 16.4 16.9091L14.24 16.4545C14.12 16.6667 14 16.9091 13.88 17.1818C13.76 17.4545 13.7 17.7197 13.7 17.9773C13.7 18.2803 13.7938 18.5568 13.9813 18.8068C14.1688 19.0568 14.4125 19.1818 14.7125 19.1818ZM7.2875 16.4545C6.1325 16.4545 5.255 16.0227 4.655 15.1591C4.055 14.2955 3.77 13.3258 3.8 12.25L3.395 11.6364C3.23 11.3788 2.95625 10.7955 2.57375 9.88636C2.19125 8.97727 2 7.83333 2 6.45455C2 4.89394 2.3825 3.5947 3.1475 2.55682C3.9125 1.51894 4.88 1 6.05 1C7.325 1 8.31875 1.57197 9.03125 2.71591C9.74375 3.85985 10.1 5.10606 10.1 6.45455C10.1 7.33333 9.98 8.14394 9.74 8.88636C9.5 9.62879 9.29 10.2273 9.11 10.6818L9.29 10.9773C9.41 11.1894 9.575 11.5265 9.785 11.9886C9.995 12.4508 10.1 12.9318 10.1 13.4318C10.1 14.2955 9.83375 15.0152 9.30125 15.5909C8.76875 16.1667 8.0975 16.4545 7.2875 16.4545ZM14.7125 21C13.9025 21 13.2313 20.7121 12.6988 20.1364C12.1663 19.5606 11.9 18.8409 11.9 17.9773C11.9 17.4773 12.005 16.9962 12.215 16.5341C12.425 16.072 12.59 15.7348 12.71 15.5227L12.89 15.2273C12.71 14.7727 12.5 14.1742 12.26 13.4318C12.02 12.6894 11.9 11.8788 11.9 11C11.9 9.65152 12.2563 8.4053 12.9688 7.26136C13.6813 6.11742 14.675 5.54545 15.95 5.54545C17.12 5.54545 18.0875 6.06439 18.8525 7.10227C19.6175 8.14015 20 9.43939 20 11C20 12.3788 19.8088 13.5189 19.4263 14.4205C19.0438 15.322 18.77 15.9015 18.605 16.1591L18.2 16.7955C18.215 17.8712 17.9263 18.8409 17.3338 19.7045C16.7413 20.5682 15.8675 21 14.7125 21Z" fill="white" fill-opacity="0.7"/>
</svg>
