<svg width="29" height="29" viewBox="0 0 29 29" fill="none" xmlns="http://www.w3.org/2000/svg">
<path d="M13.4412 25.5584C13.9252 27.0835 12.7805 28.6992 11.1301 28.6992H2.41892C0.828419 28.6992 -0.374999 27.1595 0.107871 25.5584L1.50638 21.0192C1.82633 20 2.75081 19.3126 3.8293 19.3126H9.73157C10.7982 19.3126 11.7345 20 12.0426 21.0192L13.4412 25.5584ZM26.0279 28.6992H17.3167C15.6649 28.6992 14.5219 27.0824 15.0056 25.5584L16.4042 21.0192C16.7123 20 17.6486 19.3126 18.7152 19.3126H24.6175C25.696 19.3126 26.6205 20 26.9404 21.0192L28.3389 25.5584C28.822 27.1604 27.6174 28.6992 26.0279 28.6992ZM21.1686 7.50217C20.7063 7.03993 20.7063 6.29333 21.1686 5.83109L22.7686 4.23105C23.2308 3.76888 23.9893 3.76888 24.4515 4.23105C24.9138 4.69329 24.9138 5.43996 24.4515 5.9022L22.8516 7.50217C22.3771 7.97667 21.6437 7.97726 21.1686 7.50217ZM13.0382 3.44886V1.18519C13.0382 0.521412 13.5716 0 14.2234 0C14.8752 0 15.4086 0.521412 15.4086 1.18519V3.44886C15.4086 4.10069 14.8752 4.63404 14.2234 4.63404C13.5716 4.63404 13.0382 4.10069 13.0382 3.44886ZM7.5508 14.2577L8.96117 9.71846C9.26933 8.69922 10.2056 8.01179 11.2723 8.01179H17.1745C18.2412 8.01179 19.1775 8.69922 19.4856 9.71846L20.896 14.2577C21.3669 15.7944 20.232 17.3866 18.573 17.3866H9.87379C8.21456 17.3866 7.07992 15.7942 7.5508 14.2577ZM3.99524 5.9022C3.533 5.43996 3.533 4.69329 3.99524 4.23105C4.45748 3.76888 5.21602 3.76888 5.67818 4.23105L7.27823 5.83109C7.74047 6.29333 7.74047 7.03993 7.27823 7.50217C6.80373 7.97667 6.0703 7.97726 5.59521 7.50217L3.99524 5.9022Z" fill="#0285FF"/>
</svg>
