<svg width="18" height="28" viewBox="0 0 18 28" fill="none" xmlns="http://www.w3.org/2000/svg">
<path d="M13.5 16.8C16.3 15.2 18 12.2 18 9C18 5.8 16.3 2.8 13.5 1.2C12.2 0.4 10.6 0 9 0C4 0 0 4 0 9C0 13.6 3.5 17.5 8 17.9C8 17.9 8 17.9 8 18V21.3C6.3 19.3 3.8 18 1 18C0.5 18 0 18.5 0 19C0 24 4 28 9 28C13.9 28 18 24 18 19C18 18.5 17.5 18 17 18C14.2 18 11.7 19.3 10 21.4V18C10 18 10 18 10 17.9C11.2 17.8 12.4 17.4 13.5 16.8ZM9 14C8.5 14 8 13.5 8 13H7C6.5 13 6 12.5 6 12C6 11.5 6.5 11 7 11H9.5C9.8 11 10 10.8 10 10.5C10 10.2 9.8 10 9.5 10H8.5C7.1 10 6 8.9 6 7.5C6 6.3 6.9 5.3 8 5C8 4.5 8.5 4 9 4C9.5 4 10 4.5 10 5H11C11.5 5 12 5.5 12 6C12 6.5 11.5 7 11 7H8.5C8.2 7 8 7.2 8 7.5C8 7.8 8.2 8 8.5 8H9.5C10.9 8 12 9.1 12 10.5C12 11.7 11.1 12.7 10 13C10 13.5 9.5 14 9 14Z" fill="#1EEF32"/>
</svg>
