<svg width="18" height="18" viewBox="0 0 18 18" fill="none" xmlns="http://www.w3.org/2000/svg">
<path d="M8.955 14.4C9.27 14.4 9.53625 14.2913 9.75375 14.0738C9.97125 13.8563 10.08 13.59 10.08 13.275C10.08 12.96 9.97125 12.6938 9.75375 12.4763C9.53625 12.2588 9.27 12.15 8.955 12.15C8.64 12.15 8.37375 12.2588 8.15625 12.4763C7.93875 12.6938 7.83 12.96 7.83 13.275C7.83 13.59 7.93875 13.8563 8.15625 14.0738C8.37375 14.2913 8.64 14.4 8.955 14.4ZM8.145 10.935H9.81C9.81 10.44 9.86625 10.05 9.97875 9.765C10.0913 9.48 10.41 9.09 10.935 8.595C11.325 8.205 11.6325 7.83375 11.8575 7.48125C12.0825 7.12875 12.195 6.705 12.195 6.21C12.195 5.37 11.8875 4.725 11.2725 4.275C10.6575 3.825 9.93 3.6 9.09 3.6C8.235 3.6 7.54125 3.825 7.00875 4.275C6.47625 4.725 6.105 5.265 5.895 5.895L7.38 6.48C7.455 6.21 7.62375 5.9175 7.88625 5.6025C8.14875 5.2875 8.55 5.13 9.09 5.13C9.57 5.13 9.93 5.26125 10.17 5.52375C10.41 5.78625 10.53 6.075 10.53 6.39C10.53 6.69 10.44 6.97125 10.26 7.23375C10.08 7.49625 9.855 7.74 9.585 7.965C8.925 8.55 8.52 8.9925 8.37 9.2925C8.22 9.5925 8.145 10.14 8.145 10.935ZM9 18C7.755 18 6.585 17.7638 5.49 17.2913C4.395 16.8188 3.4425 16.1775 2.6325 15.3675C1.8225 14.5575 1.18125 13.605 0.70875 12.51C0.23625 11.415 0 10.245 0 9C0 7.755 0.23625 6.585 0.70875 5.49C1.18125 4.395 1.8225 3.4425 2.6325 2.6325C3.4425 1.8225 4.395 1.18125 5.49 0.70875C6.585 0.23625 7.755 0 9 0C10.245 0 11.415 0.23625 12.51 0.70875C13.605 1.18125 14.5575 1.8225 15.3675 2.6325C16.1775 3.4425 16.8188 4.395 17.2913 5.49C17.7638 6.585 18 7.755 18 9C18 10.245 17.7638 11.415 17.2913 12.51C16.8188 13.605 16.1775 14.5575 15.3675 15.3675C14.5575 16.1775 13.605 16.8188 12.51 17.2913C11.415 17.7638 10.245 18 9 18ZM9 16.2C11.01 16.2 12.7125 15.5025 14.1075 14.1075C15.5025 12.7125 16.2 11.01 16.2 9C16.2 6.99 15.5025 5.2875 14.1075 3.8925C12.7125 2.4975 11.01 1.8 9 1.8C6.99 1.8 5.2875 2.4975 3.8925 3.8925C2.4975 5.2875 1.8 6.99 1.8 9C1.8 11.01 2.4975 12.7125 3.8925 14.1075C5.2875 15.5025 6.99 16.2 9 16.2Z" fill="white"/>
</svg>
