<svg width="20" height="20" viewBox="0 0 20 20" fill="none" xmlns="http://www.w3.org/2000/svg">
<path d="M10 19.95C8.61667 19.95 7.31667 19.6875 6.1 19.1625C4.88333 18.6375 3.825 17.9208 2.925 17.0125C2.025 16.1042 1.3125 15.0417 0.7875 13.825C0.2625 12.6083 0 11.3167 0 9.95C0 7.33333 0.866667 5.08333 2.6 3.2C4.33333 1.31667 6.46667 0.25 9 0V3C7.28333 3.23333 5.85417 4.00417 4.7125 5.3125C3.57083 6.62083 3 8.16667 3 9.95C3 11.8833 3.68333 13.5333 5.05 14.9C6.41667 16.2667 8.06667 16.95 10 16.95C11.1 16.95 12.1292 16.7167 13.0875 16.25C14.0458 15.7833 14.85 15.15 15.5 14.35L18.1 15.85C17.2 17.1 16.0417 18.0958 14.625 18.8375C13.2083 19.5792 11.6667 19.95 10 19.95ZM19.15 14L16.55 12.5C16.7 12.1 16.8125 11.6875 16.8875 11.2625C16.9625 10.8375 17 10.4 17 9.95C17 8.16667 16.4292 6.62083 15.2875 5.3125C14.1458 4.00417 12.7167 3.23333 11 3V0C13.5333 0.25 15.6667 1.31667 17.4 3.2C19.1333 5.08333 20 7.33333 20 9.95C20 10.6833 19.9333 11.3917 19.8 12.075C19.6667 12.7583 19.45 13.4 19.15 14Z" fill="white" fill-opacity="0.7"/>
</svg>
