<svg width="804" height="134" viewBox="0 0 804 134" fill="none" xmlns="http://www.w3.org/2000/svg">
<path d="M123.619 81.7472C65.3085 64.7533 -57.1485 25.6936 30.7965 29.14C50.3494 29.9062 58.7809 33.1401 78.5339 33.4313C139.959 34.3371 102.663 0.372218 164.175 0.00381629C228.101 -0.379042 193.344 28.255 251.399 35.03C331.548 44.3833 372.824 5.78124 457.867 11.7671C563.074 19.1723 465.783 65.2958 564.476 77.1152C639.954 86.1543 713.138 58.3465 777.33 71.8528C867.472 90.819 703.151 143.365 594.652 132.107C554.717 127.963 548.098 119.69 513.978 113.005C387.59 88.2419 228.393 112.283 123.619 81.7472Z" fill="#2B3FF2" fill-opacity="0.5"/>
</svg>
