<svg width="1341" height="224" viewBox="0 0 1341 224" fill="none" xmlns="http://www.w3.org/2000/svg">
<path d="M1827.43 8.3064C1559.45 18.5529 1139.3 39.2891 1353.05 104.748C1625.05 188.05 2289.74 166.227 1994.53 230.522" stroke="white" stroke-opacity="0.05"/>
<path d="M1731.8 6.87195C1463.82 17.1184 1043.67 37.8547 1257.42 103.314C1529.42 186.615 2194.11 164.793 1898.9 229.087" stroke="white" stroke-opacity="0.05"/>
<path d="M1636.64 4.11182C1368.66 14.3583 948.518 35.0946 1162.26 100.554C1434.26 183.855 2098.95 162.032 1803.74 226.327" stroke="white" stroke-opacity="0.05"/>
<path d="M1541.91 0.536499C1273.93 10.783 853.788 31.5192 1067.53 96.9784C1339.53 180.28 2004.22 158.457 1709.01 222.752" stroke="white" stroke-opacity="0.05"/>
<path d="M1447.43 -3.43323C1179.45 6.81323 759.307 27.5495 973.05 93.0087C1245.05 176.31 1909.74 154.487 1614.53 218.782" stroke="white" stroke-opacity="0.05"/>
<path d="M1352.98 -7.46973C1085 2.77673 664.858 23.513 878.601 88.9722C1150.6 172.274 1815.29 150.451 1520.08 214.746" stroke="white" stroke-opacity="0.05"/>
<path d="M1258.43 -11.3256C990.447 -1.0791 570.303 19.6572 784.046 85.1163C1056.05 168.418 1720.74 146.595 1425.53 210.89" stroke="white" stroke-opacity="0.05"/>
<path d="M1163.64 -14.8201C895.658 -4.57361 475.514 16.1627 689.257 81.6218C961.26 164.923 1625.95 143.101 1330.74 207.395" stroke="white" stroke-opacity="0.05"/>
<path d="M1068.6 -17.8242C800.619 -7.57776 380.475 13.1585 594.218 78.6177C866.221 161.919 1530.91 140.096 1235.7 204.391" stroke="white" stroke-opacity="0.05"/>
<path d="M973.298 -20.2506C705.318 -10.0041 285.174 10.7321 498.917 76.1913C770.92 159.493 1435.61 137.67 1140.4 201.965" stroke="white" stroke-opacity="0.05"/>
<path d="M877.185 -22.0668C609.205 -11.8203 189.061 8.91596 402.804 74.3751C674.807 157.676 1339.5 135.854 1044.29 200.148" stroke="white" stroke-opacity="0.05"/>
<path d="M781.571 -23.4645C513.591 -13.218 93.4478 7.51826 307.191 72.9774C579.194 156.279 1243.88 134.456 948.672 198.751" stroke="white" stroke-opacity="0.05"/>
<path d="M685.872 -24.5129C417.892 -14.2665 -2.2514 6.4698 211.492 71.9289C483.495 155.23 1148.18 133.408 852.973 197.702" stroke="white" stroke-opacity="0.05"/>
<path d="M590.138 -25.1644C322.158 -14.918 -97.9858 5.81831 115.757 71.2775C387.76 154.579 1052.45 132.756 757.239 197.051" stroke="white" stroke-opacity="0.05"/>
<path d="M494.357 -25.3586C226.376 -15.1122 -193.767 5.62409 19.9759 71.0832C291.979 154.385 956.669 132.562 661.457 196.857" stroke="white" stroke-opacity="0.05"/>
<path d="M398.575 -25.019C130.595 -14.7726 -289.548 5.96369 -75.8053 71.4228C196.198 154.724 860.888 132.902 565.676 197.196" stroke="white" stroke-opacity="0.05"/>
<path d="M302.872 -24.0446C34.8921 -13.7981 -385.251 6.93818 -171.508 72.3973C100.495 155.699 765.184 133.876 469.973 198.171" stroke="white" stroke-opacity="0.05"/>
<path d="M207.329 -22.2991C-60.6509 -12.0526 -480.794 8.68366 -267.051 74.1428C4.95155 157.444 669.641 135.622 374.43 199.916" stroke="white" stroke-opacity="0.05"/>
<path d="M112.15 -19.5908C-155.831 -9.34436 -575.974 11.3919 -362.231 76.8511C-90.2281 160.152 574.462 138.33 279.25 202.624" stroke="white" stroke-opacity="0.05"/>
<path d="M17.6457 -15.6438C-250.334 -5.39734 -670.478 15.3389 -456.735 80.7981C-184.732 164.099 479.958 142.277 184.746 206.571" stroke="white" stroke-opacity="0.05"/>
<path d="M-75.5301 -10.0634C-343.51 0.183107 -763.654 20.9194 -549.911 86.3785C-277.908 169.68 386.782 147.857 91.5707 212.152" stroke="white" stroke-opacity="0.05"/>
<path d="M-165.975 -2.61975C-433.956 7.62671 -854.099 28.363 -640.356 93.8221C-368.353 177.124 296.337 155.301 1.12537 219.595" stroke="white" stroke-opacity="0.05"/>
</svg>
