<svg width="38" height="38" viewBox="0 0 38 38" fill="none" xmlns="http://www.w3.org/2000/svg">
<path d="M17.29 32.3H20.615V29.925C22.1983 29.64 23.56 29.0225 24.7 28.0725C25.84 27.1225 26.41 25.7133 26.41 23.845C26.41 22.515 26.03 21.2958 25.27 20.1875C24.51 19.0792 22.99 18.1133 20.71 17.29C18.81 16.6567 17.4958 16.1025 16.7675 15.6275C16.0392 15.1525 15.675 14.5033 15.675 13.68C15.675 12.8567 15.9679 12.2075 16.5537 11.7325C17.1396 11.2575 17.9867 11.02 19.095 11.02C20.1083 11.02 20.9 11.2654 21.47 11.7562C22.04 12.2471 22.4517 12.8567 22.705 13.585L25.745 12.35C25.3967 11.2417 24.7554 10.2758 23.8212 9.4525C22.8871 8.62917 21.85 8.17 20.71 8.075V5.7H17.385V8.075C15.8017 8.42333 14.5667 9.12 13.68 10.165C12.7933 11.21 12.35 12.3817 12.35 13.68C12.35 15.1683 12.7854 16.3717 13.6562 17.29C14.5271 18.2083 15.8967 19 17.765 19.665C19.76 20.3933 21.1454 21.0425 21.9212 21.6125C22.6971 22.1825 23.085 22.9267 23.085 23.845C23.085 24.89 22.7129 25.6579 21.9688 26.1488C21.2246 26.6396 20.33 26.885 19.285 26.885C18.24 26.885 17.3137 26.5604 16.5063 25.9112C15.6987 25.2621 15.105 24.2883 14.725 22.99L11.59 24.225C12.0333 25.745 12.7221 26.9721 13.6562 27.9062C14.5904 28.8404 15.8017 29.4817 17.29 29.83V32.3ZM19 38C16.3717 38 13.9017 37.5013 11.59 36.5037C9.27833 35.5062 7.2675 34.1525 5.5575 32.4425C3.8475 30.7325 2.49375 28.7217 1.49625 26.41C0.49875 24.0983 0 21.6283 0 19C0 16.3717 0.49875 13.9017 1.49625 11.59C2.49375 9.27833 3.8475 7.2675 5.5575 5.5575C7.2675 3.8475 9.27833 2.49375 11.59 1.49625C13.9017 0.49875 16.3717 0 19 0C21.6283 0 24.0983 0.49875 26.41 1.49625C28.7217 2.49375 30.7325 3.8475 32.4425 5.5575C34.1525 7.2675 35.5062 9.27833 36.5037 11.59C37.5013 13.9017 38 16.3717 38 19C38 21.6283 37.5013 24.0983 36.5037 26.41C35.5062 28.7217 34.1525 30.7325 32.4425 32.4425C30.7325 34.1525 28.7217 35.5062 26.41 36.5037C24.0983 37.5013 21.6283 38 19 38Z" fill="white"/>
</svg>
