<svg width="33" height="34" viewBox="0 0 33 34" fill="none" xmlns="http://www.w3.org/2000/svg">
<path d="M5.5 0.5C2.46243 0.5 0 2.96243 0 6V10.125C0 13.1626 2.46243 15.625 5.5 15.625H9.625C12.6626 15.625 15.125 13.1626 15.125 10.125V6C15.125 2.96243 12.6626 0.5 9.625 0.5H5.5Z" fill="white"/>
<path d="M23.375 0.5C20.3374 0.5 17.875 2.96243 17.875 6V10.125C17.875 13.1626 20.3374 15.625 23.375 15.625H27.5C30.5376 15.625 33 13.1626 33 10.125V6C33 2.96243 30.5376 0.5 27.5 0.5H23.375Z" fill="white"/>
<path d="M5.5 18.375C2.46243 18.375 0 20.8374 0 23.875V28C0 31.0376 2.46243 33.5 5.5 33.5H9.625C12.6626 33.5 15.125 31.0376 15.125 28V23.875C15.125 20.8374 12.6626 18.375 9.625 18.375H5.5Z" fill="white"/>
<path d="M26.8125 19.75C26.8125 18.9906 26.1969 18.375 25.4375 18.375C24.6781 18.375 24.0625 18.9906 24.0625 19.75V24.5625H19.25C18.4906 24.5625 17.875 25.1781 17.875 25.9375C17.875 26.6969 18.4906 27.3125 19.25 27.3125H24.0625V32.125C24.0625 32.8844 24.6781 33.5 25.4375 33.5C26.1969 33.5 26.8125 32.8844 26.8125 32.125V27.3125H31.625C32.3844 27.3125 33 26.6969 33 25.9375C33 25.1781 32.3844 24.5625 31.625 24.5625H26.8125V19.75Z" fill="white"/>
</svg>
