<svg width="38" height="38" viewBox="0 0 38 38" fill="none" xmlns="http://www.w3.org/2000/svg">
<path d="M13.3432 33.0341C10.3492 31.6523 7.91667 29.5652 6.04545 26.7727C4.17424 23.9803 3.23864 20.828 3.23864 17.3159C3.23864 16.5674 3.27462 15.8333 3.34659 15.1136C3.41856 14.3939 3.54091 13.6886 3.71364 12.9977L1.72727 14.1636L0 11.1841L8.24773 6.43409L12.9977 14.6386L9.975 16.3659L7.64318 12.3068C7.32652 13.0841 7.08902 13.8902 6.93068 14.725C6.77235 15.5598 6.69318 16.4235 6.69318 17.3159C6.69318 20.1083 7.45606 22.6489 8.98182 24.9375C10.5076 27.2261 12.5371 28.9174 15.0705 30.0114L13.3432 33.0341ZM26.5568 12.0909V8.63636H31.2636C29.9394 6.99545 28.3417 5.72159 26.4705 4.81477C24.5992 3.90795 22.6129 3.45455 20.5114 3.45455C18.928 3.45455 17.4311 3.69924 16.0205 4.18864C14.6098 4.67803 13.3144 5.36894 12.1341 6.26136L10.4068 3.23864C11.8462 2.23106 13.4152 1.43939 15.1136 0.863636C16.8121 0.287879 18.6114 0 20.5114 0C22.7856 0 24.9591 0.424621 27.0318 1.27386C29.1045 2.12311 30.9614 3.35379 32.6023 4.96591V2.59091H36.0568V12.0909H26.5568ZM25.4341 38L17.1864 33.25L21.9364 25.0455L24.9159 26.7727L22.4545 31.0045C25.8515 30.5152 28.6799 28.975 30.9398 26.3841C33.1996 23.7932 34.3295 20.7561 34.3295 17.2727C34.3295 16.9561 34.3223 16.661 34.308 16.3875C34.2936 16.114 34.2576 15.8333 34.2 15.5455H37.6977C37.7265 15.8333 37.7481 16.114 37.7625 16.3875C37.7769 16.661 37.7841 16.9561 37.7841 17.2727C37.7841 21.1591 36.6254 24.6352 34.308 27.7011C31.9905 30.767 28.975 32.8326 25.2614 33.8977L27.1614 35.0205L25.4341 38Z" fill="#E8EAED"/>
</svg>
