<svg width="31" height="42" viewBox="0 0 31 42" fill="none" xmlns="http://www.w3.org/2000/svg">
<path d="M15.5 0.375C7.14669 0.375 0.375 7.14669 0.375 15.5C0.375 21.0931 3.41157 25.9753 7.91946 28.5908C9.17613 29.32 9.96306 30.4388 9.99868 31.5647C10.0183 32.1857 10.452 32.7164 11.0567 32.8594C11.7009 33.0116 12.3574 33.1314 13.0242 33.2171C13.6175 33.2934 14.1253 32.8181 14.1253 32.22V23.6747C13.54 23.61 12.9664 23.5043 12.4076 23.3605C11.6722 23.1712 11.2294 22.4216 11.4187 21.6862C11.608 20.9507 12.3576 20.508 13.0931 20.6973C13.8609 20.8949 14.6672 21.0003 15.5003 21.0003C16.3334 21.0003 17.1398 20.8949 17.9076 20.6973C18.643 20.508 19.3927 20.9507 19.5819 21.6862C19.7712 22.4216 19.3285 23.1712 18.5931 23.3605C18.0343 23.5043 17.4607 23.61 16.8753 23.6747V32.2199C16.8753 32.818 17.3832 33.2933 17.9765 33.217C18.6431 33.1314 19.2993 33.0116 19.9433 32.8594C20.548 32.7164 20.9817 32.1857 21.0013 31.5647C21.0369 30.4388 21.8239 29.32 23.0805 28.5908C27.5884 25.9753 30.625 21.0931 30.625 15.5C30.625 7.14669 23.8533 0.375 15.5 0.375Z" fill="white"/>
<path fill-rule="evenodd" clip-rule="evenodd" d="M10.0241 35.4827C10.1656 34.7366 10.8852 34.2465 11.6313 34.3881C12.8834 34.6256 14.1765 34.75 15.5 34.75C16.8235 34.75 18.1166 34.6256 19.3687 34.3881C20.1148 34.2465 20.8344 34.7366 20.9759 35.4827C21.1174 36.2288 20.6273 36.9483 19.8813 37.0899C18.4611 37.3593 16.9963 37.5 15.5 37.5C14.0037 37.5 12.539 37.3593 11.1187 37.0899C10.3727 36.9483 9.88256 36.2288 10.0241 35.4827Z" fill="white"/>
<path fill-rule="evenodd" clip-rule="evenodd" d="M11.3825 39.9639C11.4615 39.2087 12.1378 38.6605 12.8931 38.7395C13.7494 38.829 14.6191 38.875 15.5 38.875C16.3809 38.875 17.2506 38.829 18.1069 38.7395C18.8622 38.6605 19.5385 39.2087 19.6175 39.9639C19.6965 40.7192 19.1483 41.3955 18.3931 41.4745C17.4419 41.574 16.4767 41.625 15.5 41.625C14.5233 41.625 13.5581 41.574 12.6069 41.4745C11.8517 41.3955 11.3035 40.7192 11.3825 39.9639Z" fill="white"/>
</svg>
