<svg width="38" height="28" viewBox="0 0 38 28" fill="none" xmlns="http://www.w3.org/2000/svg">
<path d="M6.36944 27.7309C4.63626 27.7309 3.15583 27.1098 1.92816 25.8677C0.700494 24.6256 0.0577727 23.1235 0 21.3615C0 21.1015 0.0144432 20.8415 0.0433295 20.5815C0.0722159 20.3215 0.115545 20.0616 0.173318 19.8016L3.813 5.24287C4.21741 3.68301 5.04067 2.41923 6.28278 1.45154C7.5249 0.483846 8.94033 0 10.5291 0H27.4276C29.0163 0 30.4318 0.483846 31.6739 1.45154C32.916 2.41923 33.7393 3.68301 34.1437 5.24287L37.7834 19.8016C37.8411 20.0616 37.8917 20.3288 37.935 20.6032C37.9783 20.8776 38 21.1448 38 21.4048C38 23.1669 37.3717 24.6617 36.1152 25.8894C34.8586 27.1171 33.3493 27.7309 31.5872 27.7309C30.374 27.7309 29.2474 27.4131 28.2075 26.7776C27.1676 26.1421 26.3877 25.2756 25.8677 24.1779L24.6545 21.6648C24.5101 21.3759 24.2934 21.1593 24.0046 21.0148C23.7157 20.8704 23.4124 20.7982 23.0946 20.7982H14.862C14.5443 20.7982 14.241 20.8704 13.9521 21.0148C13.6632 21.1593 13.4466 21.3759 13.3022 21.6648L12.0889 24.1779C11.569 25.2756 10.7891 26.1421 9.74914 26.7776C8.70924 27.4131 7.58267 27.7309 6.36944 27.7309ZM21.5781 12.1323C22.0692 12.1323 22.4808 11.9662 22.813 11.634C23.1452 11.3018 23.3113 10.8902 23.3113 10.3991C23.3113 9.90802 23.1452 9.49639 22.813 9.1642C22.4808 8.832 22.0692 8.66591 21.5781 8.66591C21.087 8.66591 20.6754 8.832 20.3432 9.1642C20.011 9.49639 19.8449 9.90802 19.8449 10.3991C19.8449 10.8902 20.011 11.3018 20.3432 11.634C20.6754 11.9662 21.087 12.1323 21.5781 12.1323ZM25.0445 8.66591C25.5355 8.66591 25.9472 8.49981 26.2794 8.16762C26.6116 7.83542 26.7777 7.42379 26.7777 6.93272C26.7777 6.44166 26.6116 6.03003 26.2794 5.69783C25.9472 5.36564 25.5355 5.19954 25.0445 5.19954C24.5534 5.19954 24.1418 5.36564 23.8096 5.69783C23.4774 6.03003 23.3113 6.44166 23.3113 6.93272C23.3113 7.42379 23.4774 7.83542 23.8096 8.16762C24.1418 8.49981 24.5534 8.66591 25.0445 8.66591ZM25.0445 15.5986C25.5355 15.5986 25.9472 15.4325 26.2794 15.1003C26.6116 14.7681 26.7777 14.3565 26.7777 13.8654C26.7777 13.3744 26.6116 12.9628 26.2794 12.6306C25.9472 12.2984 25.5355 12.1323 25.0445 12.1323C24.5534 12.1323 24.1418 12.2984 23.8096 12.6306C23.4774 12.9628 23.3113 13.3744 23.3113 13.8654C23.3113 14.3565 23.4774 14.7681 23.8096 15.1003C24.1418 15.4325 24.5534 15.5986 25.0445 15.5986ZM28.5108 12.1323C29.0019 12.1323 29.4135 11.9662 29.7457 11.634C30.0779 11.3018 30.244 10.8902 30.244 10.3991C30.244 9.90802 30.0779 9.49639 29.7457 9.1642C29.4135 8.832 29.0019 8.66591 28.5108 8.66591C28.0198 8.66591 27.6081 8.832 27.2759 9.1642C26.9437 9.49639 26.7777 9.90802 26.7777 10.3991C26.7777 10.8902 26.9437 11.3018 27.2759 11.634C27.6081 11.9662 28.0198 12.1323 28.5108 12.1323ZM12.9122 14.732C13.2877 14.732 13.5983 14.6093 13.8438 14.3637C14.0893 14.1182 14.2121 13.8077 14.2121 13.4322V11.699H15.9453C16.3208 11.699 16.6313 11.5762 16.8769 11.3307C17.1224 11.0851 17.2452 10.7746 17.2452 10.3991C17.2452 10.0236 17.1224 9.71304 16.8769 9.4675C16.6313 9.22197 16.3208 9.0992 15.9453 9.0992H14.2121V7.36602C14.2121 6.9905 14.0893 6.67997 13.8438 6.43443C13.5983 6.1889 13.2877 6.06613 12.9122 6.06613C12.5367 6.06613 12.2261 6.1889 11.9806 6.43443C11.7351 6.67997 11.6123 6.9905 11.6123 7.36602V9.0992H9.87913C9.50361 9.0992 9.19308 9.22197 8.94755 9.4675C8.70201 9.71304 8.57925 10.0236 8.57925 10.3991C8.57925 10.7746 8.70201 11.0851 8.94755 11.3307C9.19308 11.5762 9.50361 11.699 9.87913 11.699H11.6123V13.4322C11.6123 13.8077 11.7351 14.1182 11.9806 14.3637C12.2261 14.6093 12.5367 14.732 12.9122 14.732Z" fill="#E8EAED"/>
</svg>
