<svg viewBox="154.63 197.1768 119.29884615384617 50.339839999999995" fill="none" xmlns="http://www.w3.org/2000/svg" style="max-height: 500px" width="119.29884615384617" height="50.339839999999995">
<g opacity="0.1">
<path fill="#1EEF32" d="M258.062 237.893L247.569 239.964L237.013 237.893L247.506 235.821L258.062 237.893Z" opacity="0.1"/>
</g>
<g opacity="0.1">
<path fill="#1EEF32" d="M244.699 240.615L238.575 241.83L232.388 240.615L238.511 239.411L244.699 240.615Z" opacity="0.1"/>
</g>
<g opacity="0.1">
<path fill="#1EEF32" d="M212.167 245.441L202.631 247.317L193.031 245.441L202.567 243.554L212.167 245.441Z" opacity="0.1"/>
</g>
<g opacity="0.1">
<path fill="#1EEF32" d="M176.479 241.017L170.323 242.231L164.168 241.017L170.292 239.802L176.479 241.017Z" opacity="0.1"/>
</g>
<g filter="url(#filter0_f_2515_3091)">
<path fill="url(#paint0_linear_2515_3091)" d="M245.353 233.483C246.374 233.684 246.375 235.145 245.353 235.346L217.241 240.899C214.245 241.491 211.162 241.493 208.164 240.905L179.827 235.346C178.802 235.145 178.802 233.679 179.826 233.477L211.061 227.308C211.982 227.126 212.93 227.125 213.851 227.306L245.353 233.483Z"/>
</g>
<path fill="url(#paint1_linear_2515_3091)" d="M270.628 228.818L270.597 229.697L212.806 241.118V240.239L270.628 228.818Z"/>
<path fill="url(#paint2_linear_2515_3091)" d="M212.805 240.239V241.118L154.632 229.697V228.818L212.805 240.239Z"/>
<path fill="#1EEF32" d="M270.628 228.817L212.805 240.238L154.632 228.817L212.423 217.396L270.628 228.817Z"/>
<path fill-opacity="0.3" fill="url(#paint3_linear_2515_3091)" d="M260.39 228.818L212.773 238.221L164.869 228.818L212.486 219.414L260.39 228.818Z" data-figma-bg-blur-radius="100"/>
<path fill-opacity="0.6" fill="url(#paint4_linear_2515_3091)" d="M239.353 234.508C239.366 234.511 239.38 234.511 239.394 234.509C239.511 234.486 239.512 234.318 239.395 234.295L237.097 233.844C237.084 233.841 237.07 233.841 237.056 233.844C236.939 233.866 236.938 234.034 237.056 234.057L239.353 234.508ZM246.178 233.174C246.191 233.177 246.205 233.177 246.219 233.175C246.336 233.152 246.337 232.984 246.22 232.961L243.923 232.51C243.909 232.507 243.895 232.507 243.882 232.51C243.764 232.532 243.763 232.7 243.881 232.723L246.178 233.174ZM247.868 232.838C247.882 232.841 247.896 232.841 247.909 232.838C248.027 232.816 248.027 232.648 247.91 232.625L245.613 232.174C245.599 232.171 245.585 232.171 245.572 232.174C245.454 232.196 245.454 232.364 245.571 232.387L247.868 232.838ZM241.075 234.172C241.088 234.175 241.102 234.175 241.116 234.172C241.233 234.15 241.234 233.982 241.117 233.959L238.82 233.508C238.806 233.505 238.792 233.505 238.779 233.508C238.661 233.53 238.661 233.698 238.778 233.721L241.075 234.172ZM249.59 232.502C249.604 232.505 249.618 232.505 249.632 232.502C249.749 232.48 249.75 232.312 249.632 232.289L247.335 231.838C247.322 231.835 247.308 231.835 247.294 231.837C247.177 231.86 247.176 232.028 247.293 232.051L249.59 232.502ZM242.765 233.847C242.779 233.85 242.793 233.85 242.806 233.847C242.924 233.825 242.924 233.657 242.807 233.634L240.51 233.182C240.496 233.18 240.482 233.18 240.469 233.182C240.351 233.204 240.351 233.372 240.468 233.395L242.765 233.847ZM244.456 233.511C244.469 233.513 244.483 233.513 244.497 233.511C244.614 233.489 244.615 233.321 244.497 233.298L242.2 232.846C242.187 232.844 242.173 232.844 242.159 232.846C242.042 232.868 242.041 233.036 242.158 233.059L244.456 233.511ZM256.416 231.168C256.429 231.171 256.443 231.171 256.457 231.168C256.574 231.146 256.575 230.978 256.458 230.955L254.16 230.503C254.147 230.501 254.133 230.501 254.119 230.503C254.002 230.526 254.001 230.693 254.119 230.717L256.416 231.168ZM258.106 230.832C258.12 230.834 258.133 230.834 258.147 230.832C258.265 230.81 258.265 230.642 258.148 230.619L255.851 230.167C255.837 230.165 255.823 230.165 255.81 230.167C255.692 230.189 255.692 230.357 255.809 230.38L258.106 230.832ZM251.281 232.166C251.294 232.168 251.308 232.168 251.322 232.166C251.439 232.144 251.44 231.976 251.323 231.953L249.026 231.501C249.012 231.499 248.998 231.499 248.984 231.501C248.867 231.523 248.866 231.691 248.984 231.714L251.281 232.166ZM259.828 230.495C259.842 230.498 259.856 230.498 259.869 230.496C259.987 230.473 259.987 230.305 259.87 230.282L257.573 229.831C257.559 229.828 257.545 229.828 257.532 229.831C257.414 229.853 257.414 230.021 257.531 230.044L259.828 230.495ZM254.693 231.493C254.707 231.496 254.721 231.496 254.734 231.493C254.852 231.471 254.853 231.303 254.735 231.28L252.438 230.829C252.425 230.826 252.411 230.826 252.397 230.829C252.28 230.851 252.279 231.019 252.396 231.042L254.693 231.493ZM253.003 231.829C253.017 231.832 253.031 231.832 253.044 231.83C253.162 231.807 253.162 231.639 253.045 231.616L250.748 231.165C250.734 231.162 250.72 231.162 250.707 231.165C250.589 231.187 250.589 231.355 250.706 231.378L253.003 231.829ZM220.599 238.196C220.613 238.199 220.627 238.199 220.64 238.196C220.758 238.174 220.758 238.006 220.641 237.983L218.344 237.532C218.331 237.529 218.317 237.529 218.303 237.532C218.186 237.554 218.185 237.722 218.302 237.745L220.599 238.196ZM222.29 237.86C222.303 237.863 222.317 237.863 222.331 237.86C222.448 237.838 222.449 237.67 222.332 237.647L220.034 237.196C220.021 237.193 220.007 237.193 219.993 237.195C219.876 237.218 219.875 237.385 219.993 237.409L222.29 237.86ZM263.241 229.823C263.254 229.826 263.268 229.826 263.282 229.823C263.399 229.801 263.4 229.633 263.283 229.61L260.986 229.159C260.972 229.156 260.958 229.156 260.944 229.158C260.827 229.181 260.826 229.349 260.944 229.372L263.241 229.823ZM237.662 234.845C237.676 234.847 237.69 234.847 237.703 234.845C237.821 234.823 237.821 234.655 237.704 234.632L235.407 234.18C235.393 234.178 235.38 234.178 235.366 234.18C235.249 234.202 235.248 234.37 235.365 234.393L237.662 234.845ZM224.012 237.524C224.026 237.526 224.039 237.526 224.053 237.524C224.17 237.502 224.171 237.334 224.054 237.311L221.757 236.859C221.743 236.857 221.729 236.857 221.716 236.859C221.598 236.881 221.598 237.049 221.715 237.072L224.012 237.524ZM218.877 238.532C218.891 238.535 218.905 238.535 218.918 238.533C219.036 238.51 219.036 238.342 218.919 238.319L216.622 237.868C216.608 237.865 216.594 237.865 216.581 237.868C216.463 237.89 216.463 238.058 216.58 238.081L218.877 238.532ZM217.187 238.869C217.2 238.871 217.214 238.871 217.228 238.869C217.345 238.847 217.346 238.679 217.229 238.656L214.931 238.204C214.918 238.202 214.904 238.201 214.89 238.204C214.773 238.226 214.772 238.394 214.89 238.417L217.187 238.869ZM225.702 237.187C225.716 237.19 225.73 237.19 225.743 237.188C225.861 237.165 225.861 236.997 225.744 236.974L223.447 236.523C223.433 236.52 223.42 236.52 223.406 236.523C223.289 236.545 223.288 236.713 223.405 236.736L225.702 237.187ZM234.25 235.517C234.263 235.52 234.277 235.52 234.291 235.517C234.408 235.495 234.409 235.327 234.292 235.304L231.994 234.853C231.981 234.85 231.967 234.85 231.953 234.853C231.836 234.875 231.835 235.043 231.953 235.066L234.25 235.517ZM227.425 236.851C227.438 236.854 227.452 236.854 227.466 236.851C227.583 236.829 227.584 236.661 227.466 236.638L225.169 236.187C225.156 236.184 225.142 236.184 225.128 236.187C225.011 236.209 225.01 236.377 225.127 236.4L227.425 236.851ZM232.527 235.853C232.541 235.856 232.555 235.856 232.569 235.854C232.686 235.831 232.687 235.663 232.569 235.64L230.272 235.189C230.259 235.186 230.245 235.186 230.231 235.189C230.114 235.211 230.113 235.379 230.23 235.402L232.527 235.853ZM235.94 235.181C235.954 235.184 235.968 235.184 235.981 235.181C236.099 235.159 236.099 234.991 235.982 234.968L233.685 234.517C233.671 234.514 233.657 234.514 233.644 234.516C233.526 234.539 233.526 234.707 233.643 234.73L235.94 235.181ZM229.115 236.526C229.128 236.528 229.142 236.529 229.156 236.526C229.273 236.504 229.274 236.336 229.157 236.313L226.86 235.861C226.846 235.859 226.832 235.859 226.819 235.861C226.701 235.883 226.7 236.051 226.818 236.074L229.115 236.526ZM230.837 236.19C230.851 236.192 230.865 236.192 230.878 236.19C230.996 236.168 230.996 236 230.879 235.977L228.582 235.525C228.568 235.523 228.554 235.522 228.541 235.525C228.423 235.547 228.423 235.715 228.54 235.738L230.837 236.19ZM261.519 230.159C261.532 230.162 261.546 230.162 261.56 230.159C261.677 230.137 261.678 229.969 261.56 229.946L259.263 229.495C259.25 229.492 259.236 229.492 259.222 229.495C259.105 229.517 259.104 229.685 259.221 229.708L261.519 230.159ZM196.752 235.514C196.739 235.512 196.725 235.512 196.711 235.514L194.414 235.966C194.297 235.989 194.297 236.157 194.415 236.179C194.428 236.181 194.442 236.181 194.456 236.179L196.753 235.727C196.87 235.704 196.87 235.536 196.752 235.514ZM195.03 235.178C195.016 235.175 195.003 235.175 194.989 235.178L192.692 235.629C192.575 235.653 192.575 235.82 192.693 235.843C192.706 235.845 192.72 235.845 192.734 235.843L195.031 235.391C195.148 235.368 195.147 235.2 195.03 235.178ZM212.173 238.544C212.107 238.532 212.038 238.532 211.972 238.545L209.755 238.981C209.638 239.004 209.638 239.172 209.756 239.194C209.769 239.197 209.783 239.197 209.797 239.194L211.197 238.919C212.154 238.731 213.139 238.731 214.096 238.919L215.496 239.194C215.51 239.197 215.524 239.197 215.537 239.194C215.655 239.172 215.656 239.004 215.538 238.981L213.326 238.546C213.256 238.533 213.185 238.533 213.115 238.547L212.943 238.581C212.768 238.616 212.588 238.618 212.412 238.586L212.173 238.544ZM193.34 234.842C193.326 234.839 193.312 234.839 193.299 234.842L191.001 235.293C190.884 235.316 190.885 235.484 191.002 235.506C191.016 235.509 191.03 235.509 191.043 235.506L193.34 235.055C193.458 235.032 193.457 234.864 193.34 234.842ZM200.165 236.187C200.151 236.184 200.137 236.184 200.124 236.187L197.827 236.638C197.709 236.661 197.71 236.829 197.827 236.851C197.841 236.854 197.855 236.854 197.869 236.851L200.166 236.4C200.283 236.377 200.282 236.209 200.165 236.187ZM189.927 234.18C189.913 234.178 189.9 234.178 189.886 234.18L187.589 234.632C187.472 234.655 187.472 234.823 187.59 234.845C187.603 234.847 187.617 234.847 187.631 234.845L189.928 234.393C190.045 234.37 190.045 234.202 189.927 234.18ZM191.617 234.516C191.604 234.514 191.59 234.514 191.576 234.517L189.279 234.968C189.162 234.991 189.163 235.159 189.28 235.181C189.294 235.184 189.308 235.184 189.321 235.181L191.618 234.73C191.735 234.707 191.735 234.539 191.617 234.516ZM205.268 237.195C205.254 237.193 205.24 237.193 205.227 237.196L202.93 237.647C202.812 237.67 202.813 237.838 202.93 237.86C202.944 237.863 202.958 237.863 202.971 237.86L205.269 237.409C205.386 237.385 205.385 237.218 205.268 237.195ZM208.68 237.857C208.667 237.854 208.653 237.854 208.639 237.857L206.342 238.308C206.225 238.332 206.226 238.499 206.343 238.522C206.357 238.524 206.37 238.524 206.384 238.522L208.681 238.07C208.798 238.047 208.798 237.879 208.68 237.857ZM210.403 238.193C210.389 238.191 210.375 238.191 210.362 238.193L208.064 238.645C207.947 238.668 207.948 238.836 208.065 238.858C208.079 238.86 208.093 238.86 208.106 238.858L210.403 238.406C210.521 238.383 210.52 238.215 210.403 238.193ZM201.855 236.523C201.842 236.52 201.828 236.52 201.814 236.523L199.517 236.974C199.4 236.997 199.4 237.165 199.518 237.188C199.531 237.19 199.545 237.19 199.559 237.187L201.856 236.736C201.973 236.713 201.973 236.545 201.855 236.523ZM206.99 237.521C206.976 237.518 206.963 237.518 206.949 237.521L204.652 237.972C204.535 237.995 204.535 238.163 204.653 238.185C204.666 238.188 204.68 238.188 204.694 238.185L206.991 237.734C207.108 237.711 207.107 237.543 206.99 237.521ZM203.577 236.859C203.564 236.857 203.55 236.857 203.536 236.859L201.239 237.311C201.122 237.334 201.123 237.502 201.24 237.524C201.254 237.526 201.268 237.526 201.281 237.524L203.578 237.072C203.695 237.049 203.695 236.881 203.577 236.859ZM188.205 233.844C188.191 233.841 188.177 233.841 188.164 233.844L185.867 234.295C185.749 234.318 185.75 234.486 185.867 234.509C185.881 234.511 185.895 234.511 185.908 234.508L188.206 234.057C188.323 234.034 188.322 233.866 188.205 233.844ZM198.443 235.85C198.429 235.848 198.415 235.848 198.402 235.851L196.104 236.302C195.987 236.325 195.988 236.493 196.105 236.515C196.119 236.518 196.133 236.518 196.146 236.515L198.443 236.064C198.561 236.041 198.56 235.873 198.443 235.85ZM174.554 231.165C174.541 231.162 174.527 231.162 174.513 231.165L172.216 231.616C172.099 231.639 172.1 231.807 172.217 231.83C172.231 231.832 172.245 231.832 172.258 231.829L174.555 231.378C174.672 231.355 174.672 231.187 174.554 231.165ZM172.864 230.829C172.851 230.826 172.837 230.826 172.823 230.829L170.526 231.28C170.409 231.303 170.409 231.471 170.527 231.493C170.54 231.496 170.554 231.496 170.568 231.493L172.865 231.042C172.982 231.019 172.982 230.851 172.864 230.829ZM186.514 233.508C186.501 233.505 186.487 233.505 186.473 233.508L184.176 233.959C184.059 233.982 184.06 234.15 184.177 234.172C184.191 234.175 184.205 234.175 184.218 234.172L186.515 233.721C186.633 233.698 186.632 233.53 186.514 233.508ZM171.174 230.492C171.16 230.49 171.146 230.49 171.133 230.493L168.836 230.944C168.718 230.967 168.719 231.135 168.836 231.157C168.85 231.16 168.864 231.16 168.877 231.157L171.175 230.706C171.292 230.683 171.291 230.515 171.174 230.492ZM164.349 229.158C164.335 229.156 164.321 229.156 164.307 229.159L162.01 229.61C161.893 229.633 161.894 229.801 162.011 229.823C162.025 229.826 162.039 229.826 162.052 229.823L164.349 229.372C164.467 229.349 164.466 229.181 164.349 229.158ZM166.039 229.484C166.025 229.481 166.011 229.481 165.998 229.484L163.701 229.935C163.583 229.958 163.584 230.126 163.701 230.148C163.715 230.151 163.729 230.151 163.743 230.148L166.04 229.697C166.157 229.674 166.156 229.506 166.039 229.484ZM167.761 229.82C167.748 229.817 167.734 229.817 167.72 229.82L165.423 230.272C165.306 230.295 165.306 230.463 165.424 230.485C165.437 230.487 165.451 230.487 165.465 230.485L167.762 230.033C167.879 230.01 167.879 229.842 167.761 229.82ZM183.102 232.835C183.088 232.833 183.074 232.833 183.061 232.835L180.764 233.287C180.646 233.31 180.647 233.478 180.764 233.5C180.778 233.502 180.792 233.502 180.806 233.5L183.103 233.048C183.22 233.025 183.219 232.857 183.102 232.835ZM181.38 232.499C181.366 232.496 181.352 232.496 181.339 232.499L179.041 232.951C178.924 232.974 178.925 233.142 179.042 233.164C179.056 233.166 179.07 233.166 179.083 233.164L181.38 232.712C181.498 232.689 181.497 232.521 181.38 232.499ZM176.277 231.501C176.263 231.499 176.249 231.499 176.236 231.501L173.938 231.953C173.821 231.976 173.822 232.144 173.939 232.166C173.953 232.168 173.967 232.168 173.98 232.166L176.277 231.714C176.395 231.691 176.394 231.523 176.277 231.501ZM184.792 233.171C184.779 233.169 184.765 233.169 184.751 233.172L182.454 233.623C182.337 233.646 182.337 233.814 182.455 233.836C182.468 233.839 182.482 233.839 182.496 233.836L184.793 233.385C184.91 233.362 184.91 233.194 184.792 233.171ZM177.967 231.837C177.953 231.835 177.94 231.835 177.926 231.838L175.629 232.289C175.512 232.312 175.512 232.48 175.63 232.502C175.643 232.505 175.657 232.505 175.671 232.502L177.968 232.051C178.085 232.028 178.084 231.86 177.967 231.837ZM179.689 232.163C179.676 232.16 179.662 232.16 179.648 232.163L177.351 232.614C177.234 232.637 177.234 232.805 177.352 232.827C177.365 232.83 177.379 232.83 177.393 232.827L179.69 232.376C179.807 232.353 179.807 232.185 179.689 232.163ZM169.452 230.156C169.438 230.154 169.424 230.154 169.41 230.156L167.113 230.608C166.996 230.631 166.997 230.799 167.114 230.821C167.128 230.823 167.142 230.823 167.155 230.821L169.452 230.369C169.57 230.346 169.569 230.178 169.452 230.156ZM164.307 228.478C164.321 228.481 164.335 228.481 164.349 228.478C164.466 228.456 164.467 228.288 164.349 228.265L162.052 227.814C162.039 227.811 162.025 227.811 162.011 227.813C161.894 227.836 161.893 228.004 162.01 228.027L164.307 228.478ZM167.72 227.816C167.734 227.819 167.748 227.819 167.761 227.817C167.879 227.794 167.879 227.626 167.762 227.603L165.465 227.152C165.451 227.149 165.437 227.149 165.424 227.152C165.306 227.174 165.306 227.342 165.423 227.365L167.72 227.816ZM203.536 220.777C203.55 220.78 203.564 220.78 203.577 220.777C203.695 220.755 203.695 220.587 203.578 220.564L201.281 220.113C201.268 220.11 201.254 220.11 201.24 220.113C201.123 220.135 201.122 220.303 201.239 220.326L203.536 220.777ZM201.814 221.114C201.828 221.116 201.842 221.116 201.855 221.114C201.973 221.091 201.973 220.924 201.856 220.9L199.559 220.449C199.545 220.446 199.531 220.446 199.518 220.449C199.4 220.471 199.4 220.639 199.517 220.662L201.814 221.114ZM165.998 228.142C166.011 228.144 166.025 228.145 166.039 228.142C166.156 228.12 166.157 227.952 166.04 227.929L163.743 227.477C163.729 227.475 163.715 227.475 163.701 227.477C163.584 227.499 163.583 227.667 163.701 227.69L165.998 228.142ZM205.227 220.441C205.24 220.444 205.254 220.444 205.268 220.441C205.385 220.419 205.386 220.251 205.269 220.228L202.971 219.777C202.958 219.774 202.944 219.774 202.93 219.777C202.813 219.799 202.812 219.967 202.93 219.99L205.227 220.441ZM169.41 227.48C169.424 227.483 169.438 227.483 169.452 227.48C169.569 227.458 169.57 227.29 169.452 227.267L167.155 226.816C167.142 226.813 167.128 226.813 167.114 226.816C166.997 226.838 166.996 227.006 167.113 227.029L169.41 227.48ZM171.133 227.144C171.146 227.147 171.16 227.147 171.174 227.144C171.291 227.122 171.292 226.954 171.175 226.931L168.877 226.48C168.864 226.477 168.85 226.477 168.836 226.479C168.719 226.502 168.718 226.67 168.836 226.693L171.133 227.144ZM198.402 221.786C198.415 221.789 198.429 221.789 198.443 221.786C198.56 221.764 198.561 221.596 198.443 221.573L196.146 221.122C196.133 221.119 196.119 221.119 196.105 221.121C195.988 221.144 195.987 221.312 196.104 221.335L198.402 221.786ZM193.299 222.784C193.312 222.786 193.326 222.787 193.34 222.784C193.457 222.762 193.458 222.594 193.34 222.571L191.043 222.119C191.03 222.117 191.016 222.117 191.002 222.119C190.885 222.141 190.884 222.309 191.001 222.332L193.299 222.784ZM172.823 226.808C172.837 226.81 172.851 226.81 172.864 226.808C172.982 226.786 172.982 226.618 172.865 226.595L170.568 226.143C170.554 226.141 170.54 226.141 170.527 226.143C170.409 226.165 170.409 226.333 170.526 226.356L172.823 226.808ZM162.606 228.818L160.288 229.274C160.171 229.297 160.171 229.465 160.289 229.487C160.302 229.489 160.316 229.489 160.33 229.487L162.607 229.039C162.728 229.015 162.728 228.841 162.606 228.818C162.728 228.795 162.728 228.621 162.607 228.597L160.33 228.15C160.316 228.147 160.302 228.147 160.289 228.15C160.171 228.172 160.171 228.34 160.288 228.363L162.606 228.818ZM191.576 223.12C191.59 223.123 191.604 223.123 191.617 223.12C191.735 223.098 191.735 222.93 191.618 222.907L189.321 222.456C189.308 222.453 189.294 222.453 189.28 222.456C189.163 222.478 189.162 222.646 189.279 222.669L191.576 223.12ZM194.989 222.458C195.003 222.461 195.016 222.461 195.03 222.459C195.147 222.436 195.148 222.268 195.031 222.245L192.734 221.794C192.72 221.791 192.706 221.791 192.693 221.794C192.575 221.816 192.575 221.984 192.692 222.007L194.989 222.458ZM188.164 223.793C188.177 223.795 188.191 223.795 188.205 223.793C188.322 223.77 188.323 223.603 188.206 223.579L185.908 223.128C185.895 223.125 185.881 223.125 185.867 223.128C185.75 223.15 185.749 223.318 185.867 223.341L188.164 223.793ZM200.124 221.45C200.137 221.452 200.151 221.452 200.165 221.45C200.282 221.428 200.283 221.26 200.166 221.237L197.869 220.785C197.855 220.783 197.841 220.783 197.827 220.785C197.71 220.807 197.709 220.975 197.827 220.998L200.124 221.45ZM189.886 223.456C189.9 223.459 189.913 223.459 189.927 223.456C190.045 223.434 190.045 223.266 189.928 223.243L187.631 222.792C187.617 222.789 187.603 222.789 187.59 222.792C187.472 222.814 187.472 222.982 187.589 223.005L189.886 223.456ZM176.236 226.135C176.249 226.138 176.263 226.138 176.277 226.135C176.394 226.113 176.395 225.945 176.277 225.922L173.98 225.471C173.967 225.468 173.953 225.468 173.939 225.471C173.822 225.493 173.821 225.661 173.938 225.684L176.236 226.135ZM177.926 225.799C177.94 225.802 177.953 225.802 177.967 225.799C178.084 225.777 178.085 225.609 177.968 225.586L175.671 225.135C175.657 225.132 175.643 225.132 175.63 225.135C175.512 225.157 175.512 225.325 175.629 225.348L177.926 225.799ZM179.648 225.463C179.662 225.465 179.676 225.466 179.689 225.463C179.807 225.441 179.807 225.273 179.69 225.25L177.393 224.798C177.379 224.796 177.365 224.796 177.352 224.798C177.234 224.82 177.234 224.988 177.351 225.011L179.648 225.463ZM208.639 219.779C208.653 219.782 208.667 219.782 208.68 219.78C208.798 219.757 208.798 219.589 208.681 219.566L206.384 219.115C206.37 219.112 206.357 219.112 206.343 219.115C206.226 219.137 206.225 219.305 206.342 219.328L208.639 219.779ZM184.751 224.465C184.765 224.468 184.779 224.468 184.792 224.465C184.91 224.443 184.91 224.275 184.793 224.252L182.496 223.801C182.482 223.798 182.468 223.798 182.455 223.8C182.337 223.823 182.337 223.991 182.454 224.014L184.751 224.465ZM181.339 225.137C181.352 225.14 181.366 225.14 181.38 225.138C181.497 225.115 181.498 224.947 181.38 224.924L179.083 224.473C179.07 224.47 179.056 224.47 179.042 224.473C178.925 224.495 178.924 224.663 179.041 224.686L181.339 225.137ZM210.362 219.443C210.375 219.446 210.389 219.446 210.403 219.443C210.52 219.421 210.521 219.253 210.403 219.23L208.106 218.779C208.093 218.776 208.079 218.776 208.065 218.779C207.948 218.801 207.947 218.969 208.064 218.992L210.362 219.443ZM206.949 220.105C206.963 220.108 206.976 220.108 206.99 220.105C207.107 220.083 207.108 219.915 206.991 219.892L204.694 219.44C204.68 219.438 204.666 219.438 204.653 219.44C204.535 219.462 204.535 219.63 204.652 219.653L206.949 220.105ZM183.061 224.801C183.074 224.804 183.088 224.804 183.102 224.801C183.219 224.779 183.22 224.611 183.103 224.588L180.806 224.137C180.792 224.134 180.778 224.134 180.764 224.137C180.647 224.159 180.646 224.327 180.764 224.35L183.061 224.801ZM174.513 226.471C174.527 226.474 174.541 226.474 174.554 226.472C174.672 226.449 174.672 226.282 174.555 226.258L172.258 225.807C172.245 225.804 172.231 225.804 172.217 225.807C172.1 225.829 172.099 225.997 172.216 226.02L174.513 226.471ZM186.473 224.129C186.487 224.131 186.501 224.131 186.514 224.129C186.632 224.107 186.633 223.939 186.515 223.916L184.218 223.464C184.205 223.462 184.191 223.462 184.177 223.464C184.06 223.486 184.059 223.654 184.176 223.677L186.473 224.129ZM196.711 222.122C196.725 222.125 196.739 222.125 196.752 222.122C196.87 222.1 196.87 221.932 196.753 221.909L194.456 221.458C194.442 221.455 194.428 221.455 194.415 221.458C194.297 221.48 194.297 221.648 194.414 221.671L196.711 222.122ZM248.984 226.135C248.998 226.138 249.012 226.138 249.026 226.135L251.323 225.684C251.44 225.661 251.439 225.493 251.322 225.471C251.308 225.468 251.294 225.468 251.281 225.471L248.984 225.922C248.866 225.945 248.867 226.113 248.984 226.135ZM262.624 228.818C262.506 228.842 262.506 229.01 262.624 229.033L264.931 229.487C264.945 229.489 264.959 229.489 264.972 229.487C265.089 229.465 265.09 229.298 264.973 229.275L262.624 228.818L264.973 228.362C265.09 228.339 265.089 228.172 264.972 228.15C264.959 228.147 264.945 228.147 264.931 228.15L262.624 228.603C262.506 228.626 262.506 228.795 262.624 228.818ZM237.056 223.793C237.07 223.795 237.084 223.795 237.097 223.793L239.395 223.341C239.512 223.318 239.511 223.15 239.394 223.128C239.38 223.125 239.366 223.125 239.353 223.128L237.056 223.579C236.938 223.603 236.939 223.77 237.056 223.793ZM260.913 228.478C260.926 228.481 260.94 228.481 260.954 228.478L263.251 228.027C263.368 228.004 263.367 227.836 263.25 227.813C263.236 227.811 263.223 227.811 263.209 227.814L260.912 228.265C260.795 228.288 260.795 228.456 260.913 228.478ZM259.222 228.142C259.236 228.145 259.25 228.144 259.263 228.142L261.56 227.69C261.678 227.667 261.677 227.499 261.56 227.477C261.546 227.475 261.532 227.475 261.519 227.477L259.221 227.929C259.104 227.952 259.105 228.12 259.222 228.142ZM252.397 226.808C252.411 226.81 252.425 226.81 252.438 226.808L254.735 226.356C254.853 226.333 254.852 226.165 254.734 226.143C254.721 226.141 254.707 226.141 254.693 226.143L252.396 226.595C252.279 226.618 252.28 226.786 252.397 226.808ZM254.087 227.144C254.101 227.147 254.115 227.147 254.128 227.144L256.426 226.693C256.543 226.67 256.542 226.502 256.425 226.479C256.411 226.477 256.397 226.477 256.384 226.48L254.087 226.931C253.969 226.954 253.97 227.122 254.087 227.144ZM257.5 227.817C257.514 227.819 257.528 227.819 257.541 227.816L259.838 227.365C259.955 227.342 259.955 227.174 259.837 227.152C259.824 227.149 259.81 227.149 259.796 227.152L257.499 227.603C257.382 227.626 257.383 227.794 257.5 227.817ZM250.675 226.472C250.688 226.474 250.702 226.474 250.716 226.471L253.013 226.02C253.13 225.997 253.13 225.829 253.012 225.807C252.999 225.804 252.985 225.804 252.971 225.807L250.674 226.258C250.557 226.282 250.557 226.449 250.675 226.472ZM255.81 227.48C255.823 227.483 255.837 227.483 255.851 227.48L258.148 227.029C258.265 227.006 258.265 226.838 258.147 226.816C258.133 226.813 258.12 226.813 258.106 226.816L255.809 227.267C255.692 227.29 255.692 227.458 255.81 227.48ZM247.262 225.799C247.276 225.802 247.29 225.802 247.303 225.799L249.6 225.348C249.718 225.325 249.717 225.157 249.6 225.135C249.586 225.132 249.572 225.132 249.559 225.135L247.261 225.586C247.144 225.609 247.145 225.777 247.262 225.799ZM226.819 221.786C226.832 221.789 226.846 221.789 226.86 221.786L229.157 221.335C229.274 221.312 229.273 221.144 229.156 221.121C229.142 221.119 229.128 221.119 229.115 221.122L226.818 221.573C226.7 221.596 226.701 221.764 226.819 221.786ZM228.509 222.122C228.522 222.125 228.536 222.125 228.55 222.122L230.847 221.671C230.964 221.648 230.964 221.48 230.846 221.458C230.833 221.455 230.819 221.455 230.805 221.458L228.508 221.909C228.391 221.932 228.391 222.1 228.509 222.122ZM221.684 220.777C221.697 220.78 221.711 220.78 221.725 220.777L224.022 220.326C224.139 220.303 224.139 220.135 224.021 220.113C224.008 220.11 223.994 220.11 223.98 220.113L221.683 220.564C221.566 220.587 221.566 220.755 221.684 220.777ZM223.406 221.114C223.42 221.116 223.433 221.116 223.447 221.114L225.744 220.662C225.861 220.639 225.861 220.471 225.743 220.449C225.73 220.446 225.716 220.446 225.702 220.449L223.405 220.9C223.288 220.924 223.289 221.091 223.406 221.114ZM225.096 221.45C225.11 221.452 225.124 221.452 225.137 221.45L227.435 220.998C227.552 220.975 227.551 220.807 227.434 220.785C227.42 220.783 227.406 220.783 227.393 220.785L225.096 221.237C224.978 221.26 224.979 221.428 225.096 221.45ZM235.334 223.456C235.348 223.459 235.362 223.459 235.375 223.456L237.672 223.005C237.79 222.982 237.789 222.814 237.672 222.792C237.658 222.789 237.644 222.789 237.63 222.792L235.333 223.243C235.216 223.266 235.217 223.434 235.334 223.456ZM233.644 223.12C233.657 223.123 233.671 223.123 233.685 223.12L235.982 222.669C236.099 222.646 236.099 222.478 235.981 222.456C235.968 222.453 235.954 222.453 235.94 222.456L233.643 222.907C233.526 222.93 233.526 223.098 233.644 223.12ZM231.921 222.784C231.935 222.787 231.949 222.786 231.963 222.784L234.26 222.332C234.377 222.309 234.376 222.141 234.259 222.119C234.245 222.117 234.231 222.117 234.218 222.119L231.921 222.571C231.803 222.594 231.804 222.762 231.921 222.784ZM230.231 222.459C230.245 222.461 230.259 222.461 230.272 222.458L232.569 222.007C232.687 221.984 232.686 221.816 232.569 221.794C232.555 221.791 232.541 221.791 232.527 221.794L230.23 222.245C230.113 222.268 230.114 222.436 230.231 222.459ZM243.85 225.138C243.863 225.14 243.877 225.14 243.891 225.137L246.188 224.686C246.305 224.663 246.304 224.495 246.187 224.473C246.173 224.47 246.16 224.47 246.146 224.473L243.849 224.924C243.732 224.947 243.732 225.115 243.85 225.138ZM219.993 220.441C220.007 220.444 220.021 220.444 220.034 220.441L222.332 219.99C222.449 219.967 222.448 219.799 222.331 219.777C222.317 219.774 222.303 219.774 222.29 219.777L219.993 220.228C219.875 220.251 219.876 220.419 219.993 220.441ZM240.437 224.465C240.451 224.468 240.465 224.468 240.478 224.465L242.775 224.014C242.893 223.991 242.892 223.823 242.774 223.8C242.761 223.798 242.747 223.798 242.733 223.801L240.436 224.252C240.319 224.275 240.32 224.443 240.437 224.465ZM245.572 225.463C245.585 225.466 245.599 225.465 245.613 225.463L247.91 225.011C248.027 224.988 248.027 224.82 247.909 224.798C247.896 224.796 247.882 224.796 247.868 224.798L245.571 225.25C245.454 225.273 245.454 225.441 245.572 225.463ZM238.747 224.129C238.76 224.131 238.774 224.131 238.788 224.129L241.085 223.677C241.202 223.654 241.202 223.486 241.084 223.464C241.071 223.462 241.057 223.462 241.043 223.464L238.746 223.916C238.629 223.939 238.629 224.107 238.747 224.129ZM242.159 224.801C242.173 224.804 242.187 224.804 242.2 224.801L244.497 224.35C244.615 224.327 244.614 224.159 244.497 224.137C244.483 224.134 244.469 224.134 244.456 224.137L242.158 224.588C242.041 224.611 242.042 224.779 242.159 224.801ZM212.615 218.992L209.765 218.432C209.751 218.429 209.737 218.429 209.724 218.432C209.606 218.454 209.606 218.622 209.723 218.645L211.938 219.08C212.006 219.093 212.075 219.094 212.143 219.081L212.615 218.992L213.047 219.087C213.119 219.103 213.195 219.104 213.268 219.089L215.474 218.656C215.592 218.633 215.591 218.465 215.474 218.442C215.46 218.44 215.446 218.44 215.433 218.443L212.615 218.992ZM218.271 220.105C218.285 220.108 218.299 220.108 218.312 220.105L220.609 219.653C220.727 219.63 220.726 219.462 220.609 219.44C220.595 219.438 220.581 219.438 220.567 219.44L218.27 219.892C218.153 219.915 218.154 220.083 218.271 220.105ZM216.581 219.78C216.594 219.782 216.608 219.782 216.622 219.779L218.919 219.328C219.036 219.305 219.036 219.137 218.918 219.115C218.905 219.112 218.891 219.112 218.877 219.115L216.58 219.566C216.463 219.589 216.463 219.757 216.581 219.78ZM214.859 219.443C214.872 219.446 214.886 219.446 214.9 219.443L217.197 218.992C217.314 218.969 217.313 218.801 217.196 218.779C217.182 218.776 217.168 218.776 217.155 218.779L214.858 219.23C214.74 219.253 214.741 219.421 214.859 219.443Z" data-figma-bg-blur-radius="100"/>
<path fill="url(#paint5_linear_2515_3091)" d="M238.957 227.858L238.925 230.158L212.709 235.342V233.043L238.957 227.858Z"/>
<path fill="url(#paint6_linear_2515_3091)" d="M212.71 233.043V235.342L186.302 230.158V227.858L212.71 233.043Z"/>
<path fill="#0285FF" d="M238.957 227.859L212.709 233.044L186.301 227.859L212.549 222.675L238.957 227.859Z"/>
<path fill="url(#paint7_radial_2515_3091)" d="M186.875 227.86L212.549 222.784L238.415 227.86L212.709 232.936L186.875 227.86Z"/>
<path stroke-miterlimit="10" stroke-opacity="0.46" stroke="#26BAD8" d="M196.22 227.86L212.581 224.628L229.038 227.86L212.677 231.092L196.22 227.86Z"/>
<path fill="#0285FF" d="M197.145 227.644L197.814 227.514L195.295 227.015L194.625 227.145L197.145 227.644ZM216.281 231.397L216.95 231.267L214.431 230.768L213.761 230.909L216.281 231.397ZM219.023 230.865L219.693 230.735L217.174 230.236L216.504 230.366L219.023 230.865ZM221.766 230.323L222.436 230.193L219.916 229.694L219.247 229.824L221.766 230.323ZM199.887 227.102L200.557 226.972L198.038 226.473L197.368 226.603L199.887 227.102ZM200.78 229.792L203.3 229.293L202.63 229.163L200.111 229.661L200.78 229.792ZM208.977 231.397L211.497 230.898L210.827 230.768L208.307 231.267L208.977 231.397ZM206.234 230.865L208.754 230.366L208.084 230.236L205.564 230.735L206.234 230.865ZM198.038 229.249L200.557 228.75L199.887 228.62L197.368 229.119L198.038 229.249ZM195.295 228.718L197.814 228.219L197.145 228.089L194.625 228.588L195.295 228.718ZM203.491 230.323L206.011 229.824L205.341 229.694L202.822 230.193L203.491 230.323ZM202.598 226.57L203.268 226.44L200.749 225.941L200.079 226.071L202.598 226.57ZM227.22 229.249L227.89 229.119L225.37 228.62L224.7 228.75L227.22 229.249ZM219.916 226.028L222.436 225.529L221.766 225.399L219.247 225.898L219.916 226.028ZM225.402 227.102L227.922 226.603L227.252 226.473L224.732 226.972L225.402 227.102ZM222.659 226.57L225.179 226.071L224.509 225.941L221.99 226.44L222.659 226.57ZM217.174 225.497L219.693 224.998L219.023 224.867L216.504 225.366L217.174 225.497ZM214.431 224.954L216.95 224.455L216.281 224.325L213.761 224.824L214.431 224.954ZM229.963 228.718L230.633 228.588L228.113 228.089L227.443 228.219L229.963 228.718ZM208.084 225.497L208.754 225.366L206.234 224.867L205.564 224.998L208.084 225.497ZM205.341 226.028L206.011 225.898L203.491 225.399L202.822 225.529L205.341 226.028ZM224.477 229.792L225.147 229.661L222.627 229.163L221.958 229.293L224.477 229.792ZM210.827 224.954L211.497 224.824L208.977 224.325L208.307 224.455L210.827 224.954ZM228.113 227.644L230.633 227.145L229.963 227.015L227.443 227.514L228.113 227.644Z"/>
<g opacity="0.52">
<path fill="url(#paint8_linear_2515_3091)" d="M154.704 161.527V157.215V229.512L213.625 242.54L272.158 229.512V161.527H154.704Z" opacity="0.4"/>
<path fill="url(#paint9_linear_2515_3091)" d="M167.436 160.09V229.356L212.989 238.734L258.195 229.356V160.09H167.436Z" opacity="0.4"/>
<path fill="url(#paint10_linear_2515_3091)" d="M186.327 149V227.629L212.485 232.983L238.483 227.629V149H186.327Z" opacity="0.4"/>
</g>
<defs>
<filter color-interpolation-filters="sRGB" filterUnits="userSpaceOnUse" height="468.173" width="521.061" y="0.170898" x="-47.9419" id="filter0_f_2515_3091">
<feFlood result="BackgroundImageFix" flood-opacity="0"/>
<feBlend result="shape" in2="BackgroundImageFix" in="SourceGraphic" mode="normal"/>
<feGaussianBlur result="effect1_foregroundBlur_2515_3091" stdDeviation="113.5"/>
</filter>
<clipPath transform="translate(-64.8691 -119.414)" id="bgblur_0_2515_3091_clip_path"><path d="M260.39 228.818L212.773 238.221L164.869 228.818L212.486 219.414L260.39 228.818Z"/>
</clipPath><clipPath transform="translate(-60.2007 -118.43)" id="bgblur_1_2515_3091_clip_path"><path d="M239.353 234.508C239.366 234.511 239.38 234.511 239.394 234.509C239.511 234.486 239.512 234.318 239.395 234.295L237.097 233.844C237.084 233.841 237.07 233.841 237.056 233.844C236.939 233.866 236.938 234.034 237.056 234.057L239.353 234.508ZM246.178 233.174C246.191 233.177 246.205 233.177 246.219 233.175C246.336 233.152 246.337 232.984 246.22 232.961L243.923 232.51C243.909 232.507 243.895 232.507 243.882 232.51C243.764 232.532 243.763 232.7 243.881 232.723L246.178 233.174ZM247.868 232.838C247.882 232.841 247.896 232.841 247.909 232.838C248.027 232.816 248.027 232.648 247.91 232.625L245.613 232.174C245.599 232.171 245.585 232.171 245.572 232.174C245.454 232.196 245.454 232.364 245.571 232.387L247.868 232.838ZM241.075 234.172C241.088 234.175 241.102 234.175 241.116 234.172C241.233 234.15 241.234 233.982 241.117 233.959L238.82 233.508C238.806 233.505 238.792 233.505 238.779 233.508C238.661 233.53 238.661 233.698 238.778 233.721L241.075 234.172ZM249.59 232.502C249.604 232.505 249.618 232.505 249.632 232.502C249.749 232.48 249.75 232.312 249.632 232.289L247.335 231.838C247.322 231.835 247.308 231.835 247.294 231.837C247.177 231.86 247.176 232.028 247.293 232.051L249.59 232.502ZM242.765 233.847C242.779 233.85 242.793 233.85 242.806 233.847C242.924 233.825 242.924 233.657 242.807 233.634L240.51 233.182C240.496 233.18 240.482 233.18 240.469 233.182C240.351 233.204 240.351 233.372 240.468 233.395L242.765 233.847ZM244.456 233.511C244.469 233.513 244.483 233.513 244.497 233.511C244.614 233.489 244.615 233.321 244.497 233.298L242.2 232.846C242.187 232.844 242.173 232.844 242.159 232.846C242.042 232.868 242.041 233.036 242.158 233.059L244.456 233.511ZM256.416 231.168C256.429 231.171 256.443 231.171 256.457 231.168C256.574 231.146 256.575 230.978 256.458 230.955L254.16 230.503C254.147 230.501 254.133 230.501 254.119 230.503C254.002 230.526 254.001 230.693 254.119 230.717L256.416 231.168ZM258.106 230.832C258.12 230.834 258.133 230.834 258.147 230.832C258.265 230.81 258.265 230.642 258.148 230.619L255.851 230.167C255.837 230.165 255.823 230.165 255.81 230.167C255.692 230.189 255.692 230.357 255.809 230.38L258.106 230.832ZM251.281 232.166C251.294 232.168 251.308 232.168 251.322 232.166C251.439 232.144 251.44 231.976 251.323 231.953L249.026 231.501C249.012 231.499 248.998 231.499 248.984 231.501C248.867 231.523 248.866 231.691 248.984 231.714L251.281 232.166ZM259.828 230.495C259.842 230.498 259.856 230.498 259.869 230.496C259.987 230.473 259.987 230.305 259.87 230.282L257.573 229.831C257.559 229.828 257.545 229.828 257.532 229.831C257.414 229.853 257.414 230.021 257.531 230.044L259.828 230.495ZM254.693 231.493C254.707 231.496 254.721 231.496 254.734 231.493C254.852 231.471 254.853 231.303 254.735 231.28L252.438 230.829C252.425 230.826 252.411 230.826 252.397 230.829C252.28 230.851 252.279 231.019 252.396 231.042L254.693 231.493ZM253.003 231.829C253.017 231.832 253.031 231.832 253.044 231.83C253.162 231.807 253.162 231.639 253.045 231.616L250.748 231.165C250.734 231.162 250.72 231.162 250.707 231.165C250.589 231.187 250.589 231.355 250.706 231.378L253.003 231.829ZM220.599 238.196C220.613 238.199 220.627 238.199 220.64 238.196C220.758 238.174 220.758 238.006 220.641 237.983L218.344 237.532C218.331 237.529 218.317 237.529 218.303 237.532C218.186 237.554 218.185 237.722 218.302 237.745L220.599 238.196ZM222.29 237.86C222.303 237.863 222.317 237.863 222.331 237.86C222.448 237.838 222.449 237.67 222.332 237.647L220.034 237.196C220.021 237.193 220.007 237.193 219.993 237.195C219.876 237.218 219.875 237.385 219.993 237.409L222.29 237.86ZM263.241 229.823C263.254 229.826 263.268 229.826 263.282 229.823C263.399 229.801 263.4 229.633 263.283 229.61L260.986 229.159C260.972 229.156 260.958 229.156 260.944 229.158C260.827 229.181 260.826 229.349 260.944 229.372L263.241 229.823ZM237.662 234.845C237.676 234.847 237.69 234.847 237.703 234.845C237.821 234.823 237.821 234.655 237.704 234.632L235.407 234.18C235.393 234.178 235.38 234.178 235.366 234.18C235.249 234.202 235.248 234.37 235.365 234.393L237.662 234.845ZM224.012 237.524C224.026 237.526 224.039 237.526 224.053 237.524C224.17 237.502 224.171 237.334 224.054 237.311L221.757 236.859C221.743 236.857 221.729 236.857 221.716 236.859C221.598 236.881 221.598 237.049 221.715 237.072L224.012 237.524ZM218.877 238.532C218.891 238.535 218.905 238.535 218.918 238.533C219.036 238.51 219.036 238.342 218.919 238.319L216.622 237.868C216.608 237.865 216.594 237.865 216.581 237.868C216.463 237.89 216.463 238.058 216.58 238.081L218.877 238.532ZM217.187 238.869C217.2 238.871 217.214 238.871 217.228 238.869C217.345 238.847 217.346 238.679 217.229 238.656L214.931 238.204C214.918 238.202 214.904 238.201 214.89 238.204C214.773 238.226 214.772 238.394 214.89 238.417L217.187 238.869ZM225.702 237.187C225.716 237.19 225.73 237.19 225.743 237.188C225.861 237.165 225.861 236.997 225.744 236.974L223.447 236.523C223.433 236.52 223.42 236.52 223.406 236.523C223.289 236.545 223.288 236.713 223.405 236.736L225.702 237.187ZM234.25 235.517C234.263 235.52 234.277 235.52 234.291 235.517C234.408 235.495 234.409 235.327 234.292 235.304L231.994 234.853C231.981 234.85 231.967 234.85 231.953 234.853C231.836 234.875 231.835 235.043 231.953 235.066L234.25 235.517ZM227.425 236.851C227.438 236.854 227.452 236.854 227.466 236.851C227.583 236.829 227.584 236.661 227.466 236.638L225.169 236.187C225.156 236.184 225.142 236.184 225.128 236.187C225.011 236.209 225.01 236.377 225.127 236.4L227.425 236.851ZM232.527 235.853C232.541 235.856 232.555 235.856 232.569 235.854C232.686 235.831 232.687 235.663 232.569 235.64L230.272 235.189C230.259 235.186 230.245 235.186 230.231 235.189C230.114 235.211 230.113 235.379 230.23 235.402L232.527 235.853ZM235.94 235.181C235.954 235.184 235.968 235.184 235.981 235.181C236.099 235.159 236.099 234.991 235.982 234.968L233.685 234.517C233.671 234.514 233.657 234.514 233.644 234.516C233.526 234.539 233.526 234.707 233.643 234.73L235.94 235.181ZM229.115 236.526C229.128 236.528 229.142 236.529 229.156 236.526C229.273 236.504 229.274 236.336 229.157 236.313L226.86 235.861C226.846 235.859 226.832 235.859 226.819 235.861C226.701 235.883 226.7 236.051 226.818 236.074L229.115 236.526ZM230.837 236.19C230.851 236.192 230.865 236.192 230.878 236.19C230.996 236.168 230.996 236 230.879 235.977L228.582 235.525C228.568 235.523 228.554 235.522 228.541 235.525C228.423 235.547 228.423 235.715 228.54 235.738L230.837 236.19ZM261.519 230.159C261.532 230.162 261.546 230.162 261.56 230.159C261.677 230.137 261.678 229.969 261.56 229.946L259.263 229.495C259.25 229.492 259.236 229.492 259.222 229.495C259.105 229.517 259.104 229.685 259.221 229.708L261.519 230.159ZM196.752 235.514C196.739 235.512 196.725 235.512 196.711 235.514L194.414 235.966C194.297 235.989 194.297 236.157 194.415 236.179C194.428 236.181 194.442 236.181 194.456 236.179L196.753 235.727C196.87 235.704 196.87 235.536 196.752 235.514ZM195.03 235.178C195.016 235.175 195.003 235.175 194.989 235.178L192.692 235.629C192.575 235.653 192.575 235.82 192.693 235.843C192.706 235.845 192.72 235.845 192.734 235.843L195.031 235.391C195.148 235.368 195.147 235.2 195.03 235.178ZM212.173 238.544C212.107 238.532 212.038 238.532 211.972 238.545L209.755 238.981C209.638 239.004 209.638 239.172 209.756 239.194C209.769 239.197 209.783 239.197 209.797 239.194L211.197 238.919C212.154 238.731 213.139 238.731 214.096 238.919L215.496 239.194C215.51 239.197 215.524 239.197 215.537 239.194C215.655 239.172 215.656 239.004 215.538 238.981L213.326 238.546C213.256 238.533 213.185 238.533 213.115 238.547L212.943 238.581C212.768 238.616 212.588 238.618 212.412 238.586L212.173 238.544ZM193.34 234.842C193.326 234.839 193.312 234.839 193.299 234.842L191.001 235.293C190.884 235.316 190.885 235.484 191.002 235.506C191.016 235.509 191.03 235.509 191.043 235.506L193.34 235.055C193.458 235.032 193.457 234.864 193.34 234.842ZM200.165 236.187C200.151 236.184 200.137 236.184 200.124 236.187L197.827 236.638C197.709 236.661 197.71 236.829 197.827 236.851C197.841 236.854 197.855 236.854 197.869 236.851L200.166 236.4C200.283 236.377 200.282 236.209 200.165 236.187ZM189.927 234.18C189.913 234.178 189.9 234.178 189.886 234.18L187.589 234.632C187.472 234.655 187.472 234.823 187.59 234.845C187.603 234.847 187.617 234.847 187.631 234.845L189.928 234.393C190.045 234.37 190.045 234.202 189.927 234.18ZM191.617 234.516C191.604 234.514 191.59 234.514 191.576 234.517L189.279 234.968C189.162 234.991 189.163 235.159 189.28 235.181C189.294 235.184 189.308 235.184 189.321 235.181L191.618 234.73C191.735 234.707 191.735 234.539 191.617 234.516ZM205.268 237.195C205.254 237.193 205.24 237.193 205.227 237.196L202.93 237.647C202.812 237.67 202.813 237.838 202.93 237.86C202.944 237.863 202.958 237.863 202.971 237.86L205.269 237.409C205.386 237.385 205.385 237.218 205.268 237.195ZM208.68 237.857C208.667 237.854 208.653 237.854 208.639 237.857L206.342 238.308C206.225 238.332 206.226 238.499 206.343 238.522C206.357 238.524 206.37 238.524 206.384 238.522L208.681 238.07C208.798 238.047 208.798 237.879 208.68 237.857ZM210.403 238.193C210.389 238.191 210.375 238.191 210.362 238.193L208.064 238.645C207.947 238.668 207.948 238.836 208.065 238.858C208.079 238.86 208.093 238.86 208.106 238.858L210.403 238.406C210.521 238.383 210.52 238.215 210.403 238.193ZM201.855 236.523C201.842 236.52 201.828 236.52 201.814 236.523L199.517 236.974C199.4 236.997 199.4 237.165 199.518 237.188C199.531 237.19 199.545 237.19 199.559 237.187L201.856 236.736C201.973 236.713 201.973 236.545 201.855 236.523ZM206.99 237.521C206.976 237.518 206.963 237.518 206.949 237.521L204.652 237.972C204.535 237.995 204.535 238.163 204.653 238.185C204.666 238.188 204.68 238.188 204.694 238.185L206.991 237.734C207.108 237.711 207.107 237.543 206.99 237.521ZM203.577 236.859C203.564 236.857 203.55 236.857 203.536 236.859L201.239 237.311C201.122 237.334 201.123 237.502 201.24 237.524C201.254 237.526 201.268 237.526 201.281 237.524L203.578 237.072C203.695 237.049 203.695 236.881 203.577 236.859ZM188.205 233.844C188.191 233.841 188.177 233.841 188.164 233.844L185.867 234.295C185.749 234.318 185.75 234.486 185.867 234.509C185.881 234.511 185.895 234.511 185.908 234.508L188.206 234.057C188.323 234.034 188.322 233.866 188.205 233.844ZM198.443 235.85C198.429 235.848 198.415 235.848 198.402 235.851L196.104 236.302C195.987 236.325 195.988 236.493 196.105 236.515C196.119 236.518 196.133 236.518 196.146 236.515L198.443 236.064C198.561 236.041 198.56 235.873 198.443 235.85ZM174.554 231.165C174.541 231.162 174.527 231.162 174.513 231.165L172.216 231.616C172.099 231.639 172.1 231.807 172.217 231.83C172.231 231.832 172.245 231.832 172.258 231.829L174.555 231.378C174.672 231.355 174.672 231.187 174.554 231.165ZM172.864 230.829C172.851 230.826 172.837 230.826 172.823 230.829L170.526 231.28C170.409 231.303 170.409 231.471 170.527 231.493C170.54 231.496 170.554 231.496 170.568 231.493L172.865 231.042C172.982 231.019 172.982 230.851 172.864 230.829ZM186.514 233.508C186.501 233.505 186.487 233.505 186.473 233.508L184.176 233.959C184.059 233.982 184.06 234.15 184.177 234.172C184.191 234.175 184.205 234.175 184.218 234.172L186.515 233.721C186.633 233.698 186.632 233.53 186.514 233.508ZM171.174 230.492C171.16 230.49 171.146 230.49 171.133 230.493L168.836 230.944C168.718 230.967 168.719 231.135 168.836 231.157C168.85 231.16 168.864 231.16 168.877 231.157L171.175 230.706C171.292 230.683 171.291 230.515 171.174 230.492ZM164.349 229.158C164.335 229.156 164.321 229.156 164.307 229.159L162.01 229.61C161.893 229.633 161.894 229.801 162.011 229.823C162.025 229.826 162.039 229.826 162.052 229.823L164.349 229.372C164.467 229.349 164.466 229.181 164.349 229.158ZM166.039 229.484C166.025 229.481 166.011 229.481 165.998 229.484L163.701 229.935C163.583 229.958 163.584 230.126 163.701 230.148C163.715 230.151 163.729 230.151 163.743 230.148L166.04 229.697C166.157 229.674 166.156 229.506 166.039 229.484ZM167.761 229.82C167.748 229.817 167.734 229.817 167.72 229.82L165.423 230.272C165.306 230.295 165.306 230.463 165.424 230.485C165.437 230.487 165.451 230.487 165.465 230.485L167.762 230.033C167.879 230.01 167.879 229.842 167.761 229.82ZM183.102 232.835C183.088 232.833 183.074 232.833 183.061 232.835L180.764 233.287C180.646 233.31 180.647 233.478 180.764 233.5C180.778 233.502 180.792 233.502 180.806 233.5L183.103 233.048C183.22 233.025 183.219 232.857 183.102 232.835ZM181.38 232.499C181.366 232.496 181.352 232.496 181.339 232.499L179.041 232.951C178.924 232.974 178.925 233.142 179.042 233.164C179.056 233.166 179.07 233.166 179.083 233.164L181.38 232.712C181.498 232.689 181.497 232.521 181.38 232.499ZM176.277 231.501C176.263 231.499 176.249 231.499 176.236 231.501L173.938 231.953C173.821 231.976 173.822 232.144 173.939 232.166C173.953 232.168 173.967 232.168 173.98 232.166L176.277 231.714C176.395 231.691 176.394 231.523 176.277 231.501ZM184.792 233.171C184.779 233.169 184.765 233.169 184.751 233.172L182.454 233.623C182.337 233.646 182.337 233.814 182.455 233.836C182.468 233.839 182.482 233.839 182.496 233.836L184.793 233.385C184.91 233.362 184.91 233.194 184.792 233.171ZM177.967 231.837C177.953 231.835 177.94 231.835 177.926 231.838L175.629 232.289C175.512 232.312 175.512 232.48 175.63 232.502C175.643 232.505 175.657 232.505 175.671 232.502L177.968 232.051C178.085 232.028 178.084 231.86 177.967 231.837ZM179.689 232.163C179.676 232.16 179.662 232.16 179.648 232.163L177.351 232.614C177.234 232.637 177.234 232.805 177.352 232.827C177.365 232.83 177.379 232.83 177.393 232.827L179.69 232.376C179.807 232.353 179.807 232.185 179.689 232.163ZM169.452 230.156C169.438 230.154 169.424 230.154 169.41 230.156L167.113 230.608C166.996 230.631 166.997 230.799 167.114 230.821C167.128 230.823 167.142 230.823 167.155 230.821L169.452 230.369C169.57 230.346 169.569 230.178 169.452 230.156ZM164.307 228.478C164.321 228.481 164.335 228.481 164.349 228.478C164.466 228.456 164.467 228.288 164.349 228.265L162.052 227.814C162.039 227.811 162.025 227.811 162.011 227.813C161.894 227.836 161.893 228.004 162.01 228.027L164.307 228.478ZM167.72 227.816C167.734 227.819 167.748 227.819 167.761 227.817C167.879 227.794 167.879 227.626 167.762 227.603L165.465 227.152C165.451 227.149 165.437 227.149 165.424 227.152C165.306 227.174 165.306 227.342 165.423 227.365L167.72 227.816ZM203.536 220.777C203.55 220.78 203.564 220.78 203.577 220.777C203.695 220.755 203.695 220.587 203.578 220.564L201.281 220.113C201.268 220.11 201.254 220.11 201.24 220.113C201.123 220.135 201.122 220.303 201.239 220.326L203.536 220.777ZM201.814 221.114C201.828 221.116 201.842 221.116 201.855 221.114C201.973 221.091 201.973 220.924 201.856 220.9L199.559 220.449C199.545 220.446 199.531 220.446 199.518 220.449C199.4 220.471 199.4 220.639 199.517 220.662L201.814 221.114ZM165.998 228.142C166.011 228.144 166.025 228.145 166.039 228.142C166.156 228.12 166.157 227.952 166.04 227.929L163.743 227.477C163.729 227.475 163.715 227.475 163.701 227.477C163.584 227.499 163.583 227.667 163.701 227.69L165.998 228.142ZM205.227 220.441C205.24 220.444 205.254 220.444 205.268 220.441C205.385 220.419 205.386 220.251 205.269 220.228L202.971 219.777C202.958 219.774 202.944 219.774 202.93 219.777C202.813 219.799 202.812 219.967 202.93 219.99L205.227 220.441ZM169.41 227.48C169.424 227.483 169.438 227.483 169.452 227.48C169.569 227.458 169.57 227.29 169.452 227.267L167.155 226.816C167.142 226.813 167.128 226.813 167.114 226.816C166.997 226.838 166.996 227.006 167.113 227.029L169.41 227.48ZM171.133 227.144C171.146 227.147 171.16 227.147 171.174 227.144C171.291 227.122 171.292 226.954 171.175 226.931L168.877 226.48C168.864 226.477 168.85 226.477 168.836 226.479C168.719 226.502 168.718 226.67 168.836 226.693L171.133 227.144ZM198.402 221.786C198.415 221.789 198.429 221.789 198.443 221.786C198.56 221.764 198.561 221.596 198.443 221.573L196.146 221.122C196.133 221.119 196.119 221.119 196.105 221.121C195.988 221.144 195.987 221.312 196.104 221.335L198.402 221.786ZM193.299 222.784C193.312 222.786 193.326 222.787 193.34 222.784C193.457 222.762 193.458 222.594 193.34 222.571L191.043 222.119C191.03 222.117 191.016 222.117 191.002 222.119C190.885 222.141 190.884 222.309 191.001 222.332L193.299 222.784ZM172.823 226.808C172.837 226.81 172.851 226.81 172.864 226.808C172.982 226.786 172.982 226.618 172.865 226.595L170.568 226.143C170.554 226.141 170.54 226.141 170.527 226.143C170.409 226.165 170.409 226.333 170.526 226.356L172.823 226.808ZM162.606 228.818L160.288 229.274C160.171 229.297 160.171 229.465 160.289 229.487C160.302 229.489 160.316 229.489 160.33 229.487L162.607 229.039C162.728 229.015 162.728 228.841 162.606 228.818C162.728 228.795 162.728 228.621 162.607 228.597L160.33 228.15C160.316 228.147 160.302 228.147 160.289 228.15C160.171 228.172 160.171 228.34 160.288 228.363L162.606 228.818ZM191.576 223.12C191.59 223.123 191.604 223.123 191.617 223.12C191.735 223.098 191.735 222.93 191.618 222.907L189.321 222.456C189.308 222.453 189.294 222.453 189.28 222.456C189.163 222.478 189.162 222.646 189.279 222.669L191.576 223.12ZM194.989 222.458C195.003 222.461 195.016 222.461 195.03 222.459C195.147 222.436 195.148 222.268 195.031 222.245L192.734 221.794C192.72 221.791 192.706 221.791 192.693 221.794C192.575 221.816 192.575 221.984 192.692 222.007L194.989 222.458ZM188.164 223.793C188.177 223.795 188.191 223.795 188.205 223.793C188.322 223.77 188.323 223.603 188.206 223.579L185.908 223.128C185.895 223.125 185.881 223.125 185.867 223.128C185.75 223.15 185.749 223.318 185.867 223.341L188.164 223.793ZM200.124 221.45C200.137 221.452 200.151 221.452 200.165 221.45C200.282 221.428 200.283 221.26 200.166 221.237L197.869 220.785C197.855 220.783 197.841 220.783 197.827 220.785C197.71 220.807 197.709 220.975 197.827 220.998L200.124 221.45ZM189.886 223.456C189.9 223.459 189.913 223.459 189.927 223.456C190.045 223.434 190.045 223.266 189.928 223.243L187.631 222.792C187.617 222.789 187.603 222.789 187.59 222.792C187.472 222.814 187.472 222.982 187.589 223.005L189.886 223.456ZM176.236 226.135C176.249 226.138 176.263 226.138 176.277 226.135C176.394 226.113 176.395 225.945 176.277 225.922L173.98 225.471C173.967 225.468 173.953 225.468 173.939 225.471C173.822 225.493 173.821 225.661 173.938 225.684L176.236 226.135ZM177.926 225.799C177.94 225.802 177.953 225.802 177.967 225.799C178.084 225.777 178.085 225.609 177.968 225.586L175.671 225.135C175.657 225.132 175.643 225.132 175.63 225.135C175.512 225.157 175.512 225.325 175.629 225.348L177.926 225.799ZM179.648 225.463C179.662 225.465 179.676 225.466 179.689 225.463C179.807 225.441 179.807 225.273 179.69 225.25L177.393 224.798C177.379 224.796 177.365 224.796 177.352 224.798C177.234 224.82 177.234 224.988 177.351 225.011L179.648 225.463ZM208.639 219.779C208.653 219.782 208.667 219.782 208.68 219.78C208.798 219.757 208.798 219.589 208.681 219.566L206.384 219.115C206.37 219.112 206.357 219.112 206.343 219.115C206.226 219.137 206.225 219.305 206.342 219.328L208.639 219.779ZM184.751 224.465C184.765 224.468 184.779 224.468 184.792 224.465C184.91 224.443 184.91 224.275 184.793 224.252L182.496 223.801C182.482 223.798 182.468 223.798 182.455 223.8C182.337 223.823 182.337 223.991 182.454 224.014L184.751 224.465ZM181.339 225.137C181.352 225.14 181.366 225.14 181.38 225.138C181.497 225.115 181.498 224.947 181.38 224.924L179.083 224.473C179.07 224.47 179.056 224.47 179.042 224.473C178.925 224.495 178.924 224.663 179.041 224.686L181.339 225.137ZM210.362 219.443C210.375 219.446 210.389 219.446 210.403 219.443C210.52 219.421 210.521 219.253 210.403 219.23L208.106 218.779C208.093 218.776 208.079 218.776 208.065 218.779C207.948 218.801 207.947 218.969 208.064 218.992L210.362 219.443ZM206.949 220.105C206.963 220.108 206.976 220.108 206.99 220.105C207.107 220.083 207.108 219.915 206.991 219.892L204.694 219.44C204.68 219.438 204.666 219.438 204.653 219.44C204.535 219.462 204.535 219.63 204.652 219.653L206.949 220.105ZM183.061 224.801C183.074 224.804 183.088 224.804 183.102 224.801C183.219 224.779 183.22 224.611 183.103 224.588L180.806 224.137C180.792 224.134 180.778 224.134 180.764 224.137C180.647 224.159 180.646 224.327 180.764 224.35L183.061 224.801ZM174.513 226.471C174.527 226.474 174.541 226.474 174.554 226.472C174.672 226.449 174.672 226.282 174.555 226.258L172.258 225.807C172.245 225.804 172.231 225.804 172.217 225.807C172.1 225.829 172.099 225.997 172.216 226.02L174.513 226.471ZM186.473 224.129C186.487 224.131 186.501 224.131 186.514 224.129C186.632 224.107 186.633 223.939 186.515 223.916L184.218 223.464C184.205 223.462 184.191 223.462 184.177 223.464C184.06 223.486 184.059 223.654 184.176 223.677L186.473 224.129ZM196.711 222.122C196.725 222.125 196.739 222.125 196.752 222.122C196.87 222.1 196.87 221.932 196.753 221.909L194.456 221.458C194.442 221.455 194.428 221.455 194.415 221.458C194.297 221.48 194.297 221.648 194.414 221.671L196.711 222.122ZM248.984 226.135C248.998 226.138 249.012 226.138 249.026 226.135L251.323 225.684C251.44 225.661 251.439 225.493 251.322 225.471C251.308 225.468 251.294 225.468 251.281 225.471L248.984 225.922C248.866 225.945 248.867 226.113 248.984 226.135ZM262.624 228.818C262.506 228.842 262.506 229.01 262.624 229.033L264.931 229.487C264.945 229.489 264.959 229.489 264.972 229.487C265.089 229.465 265.09 229.298 264.973 229.275L262.624 228.818L264.973 228.362C265.09 228.339 265.089 228.172 264.972 228.15C264.959 228.147 264.945 228.147 264.931 228.15L262.624 228.603C262.506 228.626 262.506 228.795 262.624 228.818ZM237.056 223.793C237.07 223.795 237.084 223.795 237.097 223.793L239.395 223.341C239.512 223.318 239.511 223.15 239.394 223.128C239.38 223.125 239.366 223.125 239.353 223.128L237.056 223.579C236.938 223.603 236.939 223.77 237.056 223.793ZM260.913 228.478C260.926 228.481 260.94 228.481 260.954 228.478L263.251 228.027C263.368 228.004 263.367 227.836 263.25 227.813C263.236 227.811 263.223 227.811 263.209 227.814L260.912 228.265C260.795 228.288 260.795 228.456 260.913 228.478ZM259.222 228.142C259.236 228.145 259.25 228.144 259.263 228.142L261.56 227.69C261.678 227.667 261.677 227.499 261.56 227.477C261.546 227.475 261.532 227.475 261.519 227.477L259.221 227.929C259.104 227.952 259.105 228.12 259.222 228.142ZM252.397 226.808C252.411 226.81 252.425 226.81 252.438 226.808L254.735 226.356C254.853 226.333 254.852 226.165 254.734 226.143C254.721 226.141 254.707 226.141 254.693 226.143L252.396 226.595C252.279 226.618 252.28 226.786 252.397 226.808ZM254.087 227.144C254.101 227.147 254.115 227.147 254.128 227.144L256.426 226.693C256.543 226.67 256.542 226.502 256.425 226.479C256.411 226.477 256.397 226.477 256.384 226.48L254.087 226.931C253.969 226.954 253.97 227.122 254.087 227.144ZM257.5 227.817C257.514 227.819 257.528 227.819 257.541 227.816L259.838 227.365C259.955 227.342 259.955 227.174 259.837 227.152C259.824 227.149 259.81 227.149 259.796 227.152L257.499 227.603C257.382 227.626 257.383 227.794 257.5 227.817ZM250.675 226.472C250.688 226.474 250.702 226.474 250.716 226.471L253.013 226.02C253.13 225.997 253.13 225.829 253.012 225.807C252.999 225.804 252.985 225.804 252.971 225.807L250.674 226.258C250.557 226.282 250.557 226.449 250.675 226.472ZM255.81 227.48C255.823 227.483 255.837 227.483 255.851 227.48L258.148 227.029C258.265 227.006 258.265 226.838 258.147 226.816C258.133 226.813 258.12 226.813 258.106 226.816L255.809 227.267C255.692 227.29 255.692 227.458 255.81 227.48ZM247.262 225.799C247.276 225.802 247.29 225.802 247.303 225.799L249.6 225.348C249.718 225.325 249.717 225.157 249.6 225.135C249.586 225.132 249.572 225.132 249.559 225.135L247.261 225.586C247.144 225.609 247.145 225.777 247.262 225.799ZM226.819 221.786C226.832 221.789 226.846 221.789 226.86 221.786L229.157 221.335C229.274 221.312 229.273 221.144 229.156 221.121C229.142 221.119 229.128 221.119 229.115 221.122L226.818 221.573C226.7 221.596 226.701 221.764 226.819 221.786ZM228.509 222.122C228.522 222.125 228.536 222.125 228.55 222.122L230.847 221.671C230.964 221.648 230.964 221.48 230.846 221.458C230.833 221.455 230.819 221.455 230.805 221.458L228.508 221.909C228.391 221.932 228.391 222.1 228.509 222.122ZM221.684 220.777C221.697 220.78 221.711 220.78 221.725 220.777L224.022 220.326C224.139 220.303 224.139 220.135 224.021 220.113C224.008 220.11 223.994 220.11 223.98 220.113L221.683 220.564C221.566 220.587 221.566 220.755 221.684 220.777ZM223.406 221.114C223.42 221.116 223.433 221.116 223.447 221.114L225.744 220.662C225.861 220.639 225.861 220.471 225.743 220.449C225.73 220.446 225.716 220.446 225.702 220.449L223.405 220.9C223.288 220.924 223.289 221.091 223.406 221.114ZM225.096 221.45C225.11 221.452 225.124 221.452 225.137 221.45L227.435 220.998C227.552 220.975 227.551 220.807 227.434 220.785C227.42 220.783 227.406 220.783 227.393 220.785L225.096 221.237C224.978 221.26 224.979 221.428 225.096 221.45ZM235.334 223.456C235.348 223.459 235.362 223.459 235.375 223.456L237.672 223.005C237.79 222.982 237.789 222.814 237.672 222.792C237.658 222.789 237.644 222.789 237.63 222.792L235.333 223.243C235.216 223.266 235.217 223.434 235.334 223.456ZM233.644 223.12C233.657 223.123 233.671 223.123 233.685 223.12L235.982 222.669C236.099 222.646 236.099 222.478 235.981 222.456C235.968 222.453 235.954 222.453 235.94 222.456L233.643 222.907C233.526 222.93 233.526 223.098 233.644 223.12ZM231.921 222.784C231.935 222.787 231.949 222.786 231.963 222.784L234.26 222.332C234.377 222.309 234.376 222.141 234.259 222.119C234.245 222.117 234.231 222.117 234.218 222.119L231.921 222.571C231.803 222.594 231.804 222.762 231.921 222.784ZM230.231 222.459C230.245 222.461 230.259 222.461 230.272 222.458L232.569 222.007C232.687 221.984 232.686 221.816 232.569 221.794C232.555 221.791 232.541 221.791 232.527 221.794L230.23 222.245C230.113 222.268 230.114 222.436 230.231 222.459ZM243.85 225.138C243.863 225.14 243.877 225.14 243.891 225.137L246.188 224.686C246.305 224.663 246.304 224.495 246.187 224.473C246.173 224.47 246.16 224.47 246.146 224.473L243.849 224.924C243.732 224.947 243.732 225.115 243.85 225.138ZM219.993 220.441C220.007 220.444 220.021 220.444 220.034 220.441L222.332 219.99C222.449 219.967 222.448 219.799 222.331 219.777C222.317 219.774 222.303 219.774 222.29 219.777L219.993 220.228C219.875 220.251 219.876 220.419 219.993 220.441ZM240.437 224.465C240.451 224.468 240.465 224.468 240.478 224.465L242.775 224.014C242.893 223.991 242.892 223.823 242.774 223.8C242.761 223.798 242.747 223.798 242.733 223.801L240.436 224.252C240.319 224.275 240.32 224.443 240.437 224.465ZM245.572 225.463C245.585 225.466 245.599 225.465 245.613 225.463L247.91 225.011C248.027 224.988 248.027 224.82 247.909 224.798C247.896 224.796 247.882 224.796 247.868 224.798L245.571 225.25C245.454 225.273 245.454 225.441 245.572 225.463ZM238.747 224.129C238.76 224.131 238.774 224.131 238.788 224.129L241.085 223.677C241.202 223.654 241.202 223.486 241.084 223.464C241.071 223.462 241.057 223.462 241.043 223.464L238.746 223.916C238.629 223.939 238.629 224.107 238.747 224.129ZM242.159 224.801C242.173 224.804 242.187 224.804 242.2 224.801L244.497 224.35C244.615 224.327 244.614 224.159 244.497 224.137C244.483 224.134 244.469 224.134 244.456 224.137L242.158 224.588C242.041 224.611 242.042 224.779 242.159 224.801ZM212.615 218.992L209.765 218.432C209.751 218.429 209.737 218.429 209.724 218.432C209.606 218.454 209.606 218.622 209.723 218.645L211.938 219.08C212.006 219.093 212.075 219.094 212.143 219.081L212.615 218.992L213.047 219.087C213.119 219.103 213.195 219.104 213.268 219.089L215.474 218.656C215.592 218.633 215.591 218.465 215.474 218.442C215.46 218.44 215.446 218.44 215.433 218.443L212.615 218.992ZM218.271 220.105C218.285 220.108 218.299 220.108 218.312 220.105L220.609 219.653C220.727 219.63 220.726 219.462 220.609 219.44C220.595 219.438 220.581 219.438 220.567 219.44L218.27 219.892C218.153 219.915 218.154 220.083 218.271 220.105ZM216.581 219.78C216.594 219.782 216.608 219.782 216.622 219.779L218.919 219.328C219.036 219.305 219.036 219.137 218.918 219.115C218.905 219.112 218.891 219.112 218.877 219.115L216.58 219.566C216.463 219.589 216.463 219.757 216.581 219.78ZM214.859 219.443C214.872 219.446 214.886 219.446 214.9 219.443L217.197 218.992C217.314 218.969 217.313 218.801 217.196 218.779C217.182 218.776 217.168 218.776 217.155 218.779L214.858 219.23C214.74 219.253 214.741 219.421 214.859 219.443Z"/>
</clipPath><linearGradient gradientUnits="userSpaceOnUse" y2="232.384" x2="280.817" y1="244.377" x1="280.967" id="paint0_linear_2515_3091">
<stop stop-color="#0285FF" offset="0.120359"/>
<stop stop-opacity="0.55" stop-color="#07EAD3" offset="0.380783"/>
<stop stop-opacity="0.65" stop-color="#9AE8FF" offset="0.879956"/>
</linearGradient>
<linearGradient gradientUnits="userSpaceOnUse" y2="183.126" x2="265.006" y1="251.025" x1="268.165" id="paint1_linear_2515_3091">
<stop stop-color="#0285FF" offset="0.154697"/>
<stop stop-color="#87BCED" offset="0.487951"/>
</linearGradient>
<linearGradient gradientUnits="userSpaceOnUse" y2="183.124" x2="207.187" y1="251.025" x1="210.327" id="paint2_linear_2515_3091">
<stop stop-color="#0285FF" offset="0.154697"/>
<stop stop-color="#87BCED" offset="0.487951"/>
</linearGradient>
<linearGradient gradientUnits="userSpaceOnUse" y2="260.604" x2="134.877" y1="214.224" x1="127.527" id="paint3_linear_2515_3091">
<stop stop-color="#010D14"/>
<stop stop-color="#01124A" offset="0.597767"/>
<stop stop-color="#050F14" offset="0.879453"/>
</linearGradient>
<linearGradient gradientUnits="userSpaceOnUse" y2="263.924" x2="126.474" y1="212.696" x1="118.379" id="paint4_linear_2515_3091">
<stop stop-color="#010D14"/>
<stop stop-color="#070214" offset="0.155482"/>
<stop stop-color="#050F14" offset="0.772926"/>
</linearGradient>
<linearGradient gradientUnits="userSpaceOnUse" y2="200.127" x2="235.267" y1="241.37" x1="237.839" id="paint5_linear_2515_3091">
<stop stop-color="#02373A" offset="0.176173"/>
<stop offset="0.644324"/>
</linearGradient>
<linearGradient gradientUnits="userSpaceOnUse" y2="200.125" x2="209.028" y1="241.37" x1="211.584" id="paint6_linear_2515_3091">
<stop stop-color="#0285FF" offset="0.154697"/>
<stop stop-color="#87BCED" offset="0.487951"/>
</linearGradient>
<radialGradient gradientTransform="translate(193.663 227.859) rotate(174.197) scale(60.7391 4.39598)" gradientUnits="userSpaceOnUse" r="1" cy="0" cx="0" id="paint7_radial_2515_3091">
<stop stop-color="#055257" offset="0.0761907"/>
<stop stop-color="#01191B" offset="0.571787"/>
</radialGradient>
<linearGradient gradientUnits="userSpaceOnUse" y2="190.317" x2="218.611" y1="254.999" x1="217.801" id="paint8_linear_2515_3091">
<stop stop-opacity="0.51" stop-color="#07EAD3"/>
<stop stop-opacity="0" stop-color="#0194FE" offset="0.852811"/>
</linearGradient>
<linearGradient gradientUnits="userSpaceOnUse" y2="201.13" x2="216.736" y1="247.705" x1="216.192" id="paint9_linear_2515_3091">
<stop stop-color="#07EAD3"/>
<stop stop-opacity="0" stop-color="#0194FE" offset="0.852811"/>
</linearGradient>
<linearGradient gradientUnits="userSpaceOnUse" y2="194.939" x2="215.315" y1="242.062" x1="214.346" id="paint10_linear_2515_3091">
<stop stop-color="#07EAD3"/>
<stop stop-opacity="0" stop-color="#0194FE" offset="0.852811"/>
</linearGradient>
</defs>
</svg>